<?xml version="1.0" encoding="utf-8"?>
<!-- Generator: Adobe Illustrator 24.0.0, SVG Export Plug-In . SVG Version: 6.00 Build 0)  -->
<svg version="1.1" xmlns="http://www.w3.org/2000/svg" xmlns:xlink="http://www.w3.org/1999/xlink" x="0px" y="0px"
	 viewBox="0 0 750 500" style="enable-background:new 0 0 750 500;" xml:space="preserve">
<style type="text/css">
	.st0{fill:#E0E0E0;}
	.st1{fill:#EBEBEB;}
	.st2{fill:#F5F5F5;}
	.st3{fill:#FAFAFA;}
	.st4{display:none;}
	.st5{display:inline;fill:#F5F5F5;}
	.st6{fill:#455A64;}
	.st7{fill:#263238;}
	.st8{fill:#E8505B;}
	.st9{opacity:0.2;}
	.st10{opacity:0.6;}
	.st11{fill:#FFFFFF;}
	.st12{fill:#C69481;}
	.st13{fill:#AA6550;}
	.st14{fill:#724940;}
	.st15{opacity:0.3;}
	.st16{fill:#936457;}
</style>
<g id="Background_Complete">
	<g>
		<rect x="219.8" y="256.4" class="st0" width="5.1" height="109.4"/>
		<polygon class="st0" points="219.8,365.8 182.5,471.1 186.9,471.1 224.9,365.8 		"/>
		<polygon class="st0" points="225,365.8 262.4,471.1 257.9,471.1 219.9,365.8 		"/>
		
			<rect x="203.7" y="419" transform="matrix(-1 -1.224647e-16 1.224647e-16 -1 444.7784 841.7582)" class="st0" width="37.4" height="3.7"/>
		<g>
			<polygon class="st1" points="243.4,199.2 263.2,206 272.7,192.1 261.5,178.2 			"/>
			<path class="st1" d="M214.8,162.5L214.8,162.5c-2.8,3.9-1.8,9.3,2.1,11.9l20.6,13.1l9.5-13l-20.7-14
				C222.6,157.9,217.4,158.8,214.8,162.5z"/>
			<path class="st1" d="M241.2,173.1l23.8,4.2l-20.3,25.7c0,0-9.9-20.8-9.9-21.8L241.2,173.1z"/>
			<rect x="221.1" y="171.6" class="st1" width="2.5" height="84.8"/>
			<polygon class="st1" points="246.5,199.8 250.9,215.6 248.1,216.1 244.3,202.2 			"/>
			<polygon class="st1" points="265,177.4 279.4,179.7 278.1,182.1 261.7,179.7 			"/>
			<g>
				<path class="st0" d="M237.3,187.4c-0.1,0,0.4-0.8,1.3-2c0.9-1.4,2-3,3.2-4.7c1.3-1.8,2.5-3.5,3.4-4.7c0.9-1.2,1.5-1.9,1.5-1.8
					c0.1,0-0.4,0.8-1.3,2c-0.9,1.4-2,3-3.2,4.7c-1.3,1.8-2.5,3.5-3.4,4.7C237.9,186.7,237.3,187.4,237.3,187.4z"/>
			</g>
			<g>
				<path class="st0" d="M245.3,176c0-0.1,1,0.2,2.6,0.5c1.6,0.4,3.8,0.9,6.3,1.4c2.5,0.5,4.7,1,6.3,1.3c1.6,0.3,2.6,0.5,2.6,0.6
					c0,0.1-1,0-2.7-0.3c-1.6-0.2-3.9-0.6-6.4-1.2c-2.5-0.5-4.7-1.1-6.3-1.6C246.2,176.4,245.2,176.1,245.3,176z"/>
			</g>
			<g>
				<path class="st0" d="M239.4,185.9c0.1,0,0.7,0.7,1.5,1.9c0.9,1.2,2,3,3,5c1,2,1.8,4,2.2,5.4c0.5,1.4,0.6,2.3,0.6,2.3
					c-0.1,0-0.4-0.8-0.9-2.2c-0.5-1.4-1.3-3.3-2.3-5.3c-1-2-2.1-3.8-2.8-5C239.8,186.7,239.3,186,239.4,185.9z"/>
			</g>
		</g>
	</g>
	<g>
		<g>
			<rect x="157.3" y="14.5" class="st1" width="7.2" height="27.1"/>
		</g>
		<g>
			<rect x="324.2" y="14.5" class="st1" width="7.2" height="27.1"/>
		</g>
		<g>
			<rect x="491.1" y="14.5" class="st1" width="7.2" height="27.1"/>
		</g>
		<g>
			<rect x="658" y="14.5" class="st1" width="7.2" height="27.1"/>
		</g>
		<g>
			<g>
				<polygon class="st0" points="196.3,30.7 178.3,53.7 198,65.2 212.6,39.7 				"/>
			</g>
			<g>
				<path class="st2" d="M178.3,53.7c0,0,0.9,15.5,19.7,11.5C198,65.2,193.2,47.5,178.3,53.7z"/>
			</g>
		</g>
		<g>
			<g>
				<polygon class="st0" points="412.2,31.1 392.5,52.6 411.2,65.7 427.7,41.4 				"/>
			</g>
			<g>
				<path class="st2" d="M392.5,52.6c0,0-0.3,15.5,18.7,13C411.2,65.7,407.8,47.7,392.5,52.6z"/>
			</g>
		</g>
		<g>
			<g>
				<polygon class="st0" points="290.1,34.3 292.2,63.3 314.5,58.7 308.2,30 				"/>
			</g>
			<g>
				<path class="st2" d="M292.2,63.3c0,0,11,10.9,22.3-4.7C314.5,58.7,299.1,48.8,292.2,63.3z"/>
			</g>
		</g>
		<g>
			<g>
				<polygon class="st0" points="514,36.9 522,64.9 542.9,55.8 530.9,29.1 				"/>
			</g>
			<g>
				<path class="st2" d="M522,64.9c0,0,13,8.4,20.9-9.1C542.9,55.8,525.8,49.3,522,64.9z"/>
			</g>
		</g>
		<g>
			<rect x="23.3" y="41.6" class="st1" width="688" height="10.2"/>
		</g>
		<g>
			<rect x="157.3" y="14.5" class="st1" width="7.2" height="27.1"/>
		</g>
		<g>
			<rect x="324.2" y="14.5" class="st1" width="7.2" height="27.1"/>
		</g>
		<g>
			<rect x="491.1" y="14.5" class="st1" width="7.2" height="27.1"/>
		</g>
		<g>
			<rect x="658" y="14.5" class="st1" width="7.2" height="27.1"/>
		</g>
		<g>
			<g>
				<polygon class="st0" points="196.3,30.7 178.3,53.7 198,65.2 212.6,39.7 				"/>
			</g>
			<g>
				<path class="st2" d="M178.3,53.7c0,0,0.9,15.5,19.7,11.5C198,65.2,193.2,47.5,178.3,53.7z"/>
			</g>
		</g>
		<g>
			<g>
				<polygon class="st0" points="412.2,31.1 392.5,52.6 411.2,65.7 427.7,41.4 				"/>
			</g>
			<g>
				<path class="st2" d="M392.5,52.6c0,0-0.3,15.5,18.7,13C411.2,65.7,407.8,47.7,392.5,52.6z"/>
			</g>
		</g>
		<g>
			<g>
				<polygon class="st0" points="290.1,34.3 292.2,63.3 314.5,58.7 308.2,30 				"/>
			</g>
			<g>
				<path class="st2" d="M292.2,63.3c0,0,11,10.9,22.3-4.7C314.5,58.7,299.1,48.8,292.2,63.3z"/>
			</g>
		</g>
		<g>
			<g>
				<polygon class="st0" points="514,36.9 522,64.9 542.9,55.8 530.9,29.1 				"/>
			</g>
			<g>
				<path class="st2" d="M522,64.9c0,0,13,8.4,20.9-9.1C542.9,55.8,525.8,49.3,522,64.9z"/>
			</g>
		</g>
	</g>
	<g>
		<g>
			<g>
				<path class="st0" d="M633.8,383c-4-2.5-8.7-4.1-13.4-4.6c-2.2-0.2-4.6-0.2-6.3,1.2c-0.4,0.3-0.7,0.7-0.7,1.2
					c0.1,0.3,0.3,0.6,0.6,0.8C619.5,385.6,627.7,386.2,633.8,383"/>
			</g>
			<g>
				<path class="st0" d="M633.4,382.6c-3-2.4-6.1-4.8-8.7-7.6c-2.6-2.9-4.7-6.3-5.4-10c-0.2-1.1-0.3-2.5,0.4-3.4
					C626.7,367,632.1,373.9,633.4,382.6"/>
			</g>
			<g>
				<path class="st0" d="M633.7,382.9c-0.5-3.8-0.7-7.7,0.2-11.4c0.9-3.7,2.9-7.3,6.1-9.4c1.2,2.8,0.7,6-0.2,8.9
					c-1.3,4.5-3.3,8.8-6,12.6"/>
			</g>
			<g>
				<path class="st0" d="M640.5,395c-4.1,0.5-7.7,2.7-10.8,5.4c-3.1,2.8-5.2,6.5-6.1,10.6c4-0.2,7.4-3.1,9.9-6.3
					C636,401.6,637.7,398.1,640.5,395"/>
			</g>
			<g>
				<path class="st0" d="M641.9,397c-3.3-8.1-2.1-18,3.1-25.1C647.4,380.2,646.5,389.6,641.9,397"/>
			</g>
			<g>
				<path class="st0" d="M650.9,407.6c-3.7-0.2-7.5,0.7-10.8,2.5c-3.2,1.9-5.9,4.7-7.6,8c-0.2,0.5-0.4,1-0.1,1.4
					c0.3,0.4,0.8,0.4,1.2,0.4c3.6-0.2,6.8-2.4,9.5-4.9C645.7,412.6,648,409.8,650.9,407.6"/>
			</g>
			<g>
				<path class="st0" d="M650.6,407c-1.9-6.2-2-12.9-0.3-19.1c0.7-2.5,1.8-5,4.1-6.2c0.2-0.1,0.4-0.2,0.6-0.1
					c0.2,0.1,0.3,0.3,0.4,0.5c0.8,1.7,1,3.6,1,5.5c-0.1,1.9-0.5,3.7-0.9,5.5c-0.7,3.4-1.1,7-3,9.9c-0.4,0.7-0.8,1.4-1.2,2.2
					c-0.4,0.7-0.4,1-0.7,1.6"/>
			</g>
			<g>
				<path class="st0" d="M674.3,410.6c-1.8-6.7,0.1-14.8,4.3-20.2c0.3-0.4,0.7-0.8,1.2-0.8c0.8,0.1,1,1.1,0.9,1.9
					C680.4,398.3,678.2,405,674.3,410.6"/>
			</g>
			<g>
				<path class="st0" d="M676.4,412c8.1,2.1,17.4,0.1,24.1-4.9c-4-2-8.7-2.6-13.1-1.6C683.1,406.5,679.1,408.5,676.4,412"/>
			</g>
			<g>
				<path class="st0" d="M678.2,407.6c4.5-7.4,13.2-12.2,21.9-12.7c-1,3.5-3.9,6.3-7.2,7.9c-3.3,1.7-6.9,2.4-10.5,3.1
					C681,406.2,679.1,406.5,678.2,407.6"/>
			</g>
			<g>
				<path class="st0" d="M674.7,386c1.2-4.2,2.5-8.5,2.8-12.8s-0.3-8.9-2.6-12.7c-4.2,8.2-4.7,17.8-0.4,26"/>
			</g>
			<g>
				<path class="st0" d="M689,378.8c5-9,15.1-16.2,25.3-17.2C710.3,371.4,699.6,379,689,378.8"/>
			</g>
			<g>
				<path class="st0" d="M685.9,380.6c7.4,1.1,13.7,5.8,20.6,8.7c1.5,0.6,3.1,1.1,4.7,0.9c1.6-0.2,3.2-1.3,3.5-2.8
					c0.3-1.3-0.3-2.7-1.2-3.6c-0.9-0.9-2.2-1.5-3.4-2.1c-7.5-3.1-15.6-3.2-23.5-1.3"/>
			</g>
			<g>
				<path class="st0" d="M681.6,385.8c1.7,0.5,2.2,1.3,3.6,2.5c4.5,3.8,9.9,6.6,15.6,8c0.6,0.1,1.4,0.2,1.7-0.3
					c0.3-0.5-0.1-1-0.4-1.5c-2.4-3-5.8-5.1-9.4-6.4c-3.6-1.3-6.7-3-11-2.6"/>
			</g>
			<g>
				<path class="st0" d="M676.8,354.5c6,5.6,14.5,8.5,22.7,7.7c0.4,0,0.8-0.1,1-0.4c0.6-0.6-0.1-1.6-0.8-2.1
					C693,354.5,684.9,352.4,676.8,354.5"/>
			</g>
			<g>
				<path class="st0" d="M682.5,352.4c7.9-6,18.8-7.8,28.3-4.7c-3.6,3.5-8.5,5.4-13.5,5.9C692.3,354.1,687.3,353.6,682.5,352.4"/>
			</g>
			<g>
				<path class="st0" d="M680.2,338c-0.7-6.7-0.2-11.9-0.7-18.6c0-0.5-0.2-1.2-0.7-1.4c-0.7-0.3-1.3,0.6-1.5,1.3
					c-2,6.2-0.9,13.2,2.8,18.5"/>
			</g>
			<g>
				<path class="st0" d="M679.7,338.7c4.5-2.8,7.9-6.4,11-10.7c2.2-3,4-6.5,3.5-10.2c-3.1-0.1-6,1.6-7.9,3.9c-2,2.3-3.2,5.2-4.1,8.2
					C681.4,332.8,680.8,335.8,679.7,338.7"/>
			</g>
			<g>
				<path class="st0" d="M690.6,335.7c9.9-3.7,19.1-9.1,27.1-16c-3.2-1.3-6.9-0.5-10.2,0.8c-7.4,3-13.4,8-17.1,15.1"/>
			</g>
			<g>
				<path class="st0" d="M682.8,342.4c5,0.5,10.1,0.9,15.1,0.1c4.9-0.8,9.5-2.8,14.1-4.7c0.4-0.2,0.8-0.3,1-0.7
					c0.2-0.4,0-0.9-0.3-1.2c-0.3-0.3-0.8-0.4-1.2-0.6c-5-1.4-10.3-0.7-15.2,0.9C691.2,337.8,687.2,339.8,682.8,342.4"/>
			</g>
			<g>
				<path class="st0" d="M654.2,354.7c-3.4-6.9-3.2-14.9-0.2-22c2.1,3.2,2.3,7.2,2,11c-0.4,3.8-1.5,7.6-1.6,11.4"/>
			</g>
			<g>
				<path class="st0" d="M640.6,347.8c-8.5-0.2-17.1,3.5-22.8,9.7c4.3,0.7,8.6-0.4,12.5-2.3c3.9-1.9,7.3-4.5,10.7-7.2"/>
			</g>
			<g>
				<path class="st0" d="M631.4,344.8c-4.2-0.3-8.2-0.9-12.2,0.4c-4,1.2-7.7,4-9.3,7.9c3.9,0.4,7.9-0.5,11.4-2.2
					C624.9,349.2,628.2,347,631.4,344.8"/>
			</g>
			<g>
				<path class="st0" d="M645,344.9c-3.8-2.5-7.6-5-12-6c-4.4-1-9.4-0.3-12.5,3c3.5,2.1,7.8,2.3,11.9,2.3c4.1,0,9.1,0,13,1.3"/>
			</g>
			<g>
				<path class="st0" d="M645,345.1c-6.4-6.3-8.8-17.6-6.3-26.2C643.8,326.5,646,336,645,345.1"/>
			</g>
			<g>
				<path class="st0" d="M662.6,327.2c1.2-2.8,2.1-5.8,3.1-8.6s2.4-5.7,4.5-8c2.1-2.3,4.9-4,7.9-4.1c-1.9,8.7-7.7,16.4-15.4,20.7"/>
			</g>
			<g>
				<path class="st0" d="M659.4,331c-2-2.8-4.3-6.5-7-8.6c-2.7-2.1-6.2-3.3-9.6-2.5C646.2,325.9,652.6,330.2,659.4,331"/>
			</g>
			<g>
				<path class="st0" d="M660.1,327.5c-1.3-3.3-2.6-6.7-3.2-10.2c-0.5-3.5-0.2-7.3,1.6-10.4c3.5,6.7,4.7,13.8,1.7,20.7"/>
			</g>
			<g>
				<path class="st0" d="M662.7,306.8c2-6.6,8-11.5,14.6-13.7c0.8-0.3,1.7-0.5,2.6-0.4c0.9,0.1,1.7,0.7,1.9,1.6
					c0.2,1.1-0.7,2.1-1.6,2.9C675,301.5,669,304.8,662.7,306.8"/>
			</g>
			<g>
				<path class="st0" d="M662.7,301.4c0.3-4.3,0.5-8.6,1.9-12.6c1.4-4,4.1-7.8,7.9-9.6c0.7,4.3-1.2,8.6-3.5,12.3
					c-2.3,3.7-5,7.2-6.4,11.3"/>
			</g>
			<g>
				<path class="st0" d="M662.6,304.3c-1.6-4.8-1.8-10.9-4.7-15.1c-2-2.9-5.2-4.9-7-8c-1.2,2.9-0.8,6.2,0.4,9.1s3.2,5.4,5.3,7.6
					C658.8,300.2,660.6,301.9,662.6,304.3"/>
			</g>
			<g>
				<g>
					<path class="st0" d="M662.7,445.9c-0.1,0-0.2-32.1-0.2-71.6c0-39.6,0.1-71.6,0.2-71.6c0.1,0,0.2,32.1,0.2,71.6
						C662.9,413.9,662.8,445.9,662.7,445.9z"/>
				</g>
			</g>
			<g>
				<g>
					<path class="st0" d="M690.7,349.9c0,0-0.4,0.2-1.2,0.5c-0.9,0.3-2,0.7-3.3,1.1c-2.8,1-6.6,2.3-10.8,4c-4.1,1.8-8,3.2-10.2,5.1
						c-1.1,0.9-1.7,2-2.1,2.7c-0.3,0.8-0.4,1.2-0.4,1.2c0,0,0-0.1,0-0.3c0-0.2,0.1-0.5,0.2-0.9c0.3-0.8,0.9-1.9,2-2.9
						c1.1-1,2.7-1.9,4.4-2.8c1.8-0.8,3.7-1.7,5.8-2.6c4.2-1.7,8.1-3.1,10.9-3.9c1.4-0.4,2.6-0.8,3.4-1
						C690.2,349.9,690.7,349.8,690.7,349.9z"/>
				</g>
			</g>
			<g>
				<g>
					<path class="st0" d="M699.9,327.3c0,0-0.1,0.1-0.3,0.4c-0.3,0.3-0.6,0.6-1,1c-1,0.9-2.3,2.1-3.8,3.5c-3.3,3-7.8,7-12.8,11.4
						c-5,4.4-9.3,8.7-12.3,11.9c-1.5,1.6-2.7,2.9-3.5,3.8c-0.4,0.4-0.7,0.8-0.9,1.1c-0.2,0.2-0.3,0.4-0.3,0.4c0,0,0.1-0.2,0.3-0.4
						c0.2-0.3,0.5-0.6,0.9-1.1c0.8-1,1.9-2.3,3.4-3.9c2.9-3.3,7.2-7.6,12.2-12c5-4.4,9.6-8.4,12.9-11.3c1.6-1.4,3-2.5,3.9-3.4
						c0.4-0.4,0.8-0.7,1.1-0.9C699.7,327.4,699.9,327.3,699.9,327.3z"/>
				</g>
			</g>
			<g>
				<g>
					<path class="st0" d="M676.5,348c-0.1-0.1,0.9-2.5,2-5.5c1-3,1.5-5.6,1.7-5.6c0.1,0-0.2,2.7-1.2,5.7c-0.5,1.5-1.1,2.9-1.6,3.9
						C676.9,347.5,676.5,348,676.5,348z"/>
				</g>
			</g>
			<g>
				<g>
					<path class="st0" d="M662.7,367.4c0,0-0.3-0.3-0.8-0.9c-0.5-0.7-1.2-1.5-2-2.5c-1.7-2.1-3.9-5.1-6.5-8.3
						c-2.6-3.2-4.9-6.1-6.6-8.2c-0.8-1-1.5-1.8-2-2.5c-0.5-0.6-0.7-0.9-0.7-1c0,0,0.3,0.3,0.8,0.8c0.5,0.6,1.2,1.4,2.1,2.4
						c1.8,2,4.2,4.9,6.7,8.2c2.6,3.2,4.8,6.2,6.4,8.4c0.8,1.1,1.4,2,1.9,2.6C662.5,367.1,662.7,367.4,662.7,367.4z"/>
				</g>
			</g>
			<g>
				<g>
					<path class="st0" d="M656.5,359.5c-0.1,0.1-1.7-1.9-2.6-4.8c-0.6-2.1-0.7-4-0.6-4.9l0.2,0c-0.1,0.4-0.2,0.6-0.2,0.6
						c0,0,0-0.2,0-0.6l0.2,0c0.1,0.9,0.2,2.7,0.8,4.7C655.2,357.5,656.7,359.5,656.5,359.5z"/>
				</g>
			</g>
			<g>
				<g>
					<path class="st0" d="M648.6,349.6c-0.1,0.1-0.6-0.6-1.8-1c-1.2-0.5-3-0.6-5-0.4c-2,0.1-3.8,0.5-5,0.8c-1.3,0.3-2,0.6-2.1,0.5
						c0-0.1,0.7-0.4,2-0.8c1.3-0.4,3.1-0.8,5.1-1c2-0.2,3.9,0,5.1,0.6C648.2,348.8,648.6,349.5,648.6,349.6z"/>
				</g>
			</g>
			<g>
				<g>
					<path class="st0" d="M646.7,347.1c0,0.1-1-0.4-2.8-1c-1.7-0.6-4.1-1.2-6.9-1.4c-2.7-0.2-5.2,0-7,0.4c-1.8,0.3-2.9,0.7-2.9,0.6
						c0,0,0.2-0.1,0.7-0.3c0.5-0.2,1.2-0.4,2.1-0.6c1.8-0.4,4.3-0.7,7.1-0.5c2.8,0.2,5.3,0.9,6.9,1.6c0.8,0.3,1.5,0.6,2,0.9
						C646.5,347,646.7,347.1,646.7,347.1z"/>
				</g>
			</g>
			<g>
				<g>
					<path class="st0" d="M662.6,336.9c-0.1,0-1-3.1-2-7c-1-3.9-1.7-7.1-1.6-7.1c0.1,0,1,3.1,2,7
						C662.1,333.7,662.8,336.9,662.6,336.9z"/>
				</g>
			</g>
			<g>
				<g>
					<path class="st0" d="M662.8,336.9c-0.1,0-0.7-2-2.2-4.2c-1.5-2.2-3.3-3.3-3.3-3.4c0,0,0.5,0.1,1.3,0.7c0.7,0.5,1.6,1.4,2.4,2.5
						C662.5,334.7,662.9,336.9,662.8,336.9z"/>
				</g>
			</g>
			<g>
				<g>
					<path class="st0" d="M662.7,428.8c-0.1,0-0.1-0.8-0.5-2.1c-0.4-1.4-1-3.3-2.1-5.6c-2.2-4.5-6.2-10.3-11.4-16
						c-2.5-2.9-5-5.6-7.1-8.3c-2.1-2.6-3.8-5.1-5.1-7.3c-1.3-2.2-2.1-4.1-2.6-5.4c-0.2-0.7-0.4-1.2-0.5-1.6
						c-0.1-0.4-0.1-0.5-0.1-0.6c0,0,0.3,0.7,0.8,2c0.5,1.3,1.4,3.2,2.7,5.3c1.3,2.2,3,4.6,5.1,7.2c2.1,2.6,4.6,5.3,7.1,8.2
						c5.1,5.8,9.2,11.6,11.3,16.2c1.1,2.3,1.7,4.3,2,5.7c0.1,0.7,0.2,1.2,0.3,1.6C662.7,428.6,662.7,428.8,662.7,428.8z"/>
				</g>
			</g>
			<g>
				<g>
					<path class="st0" d="M688,400.2c0,0-0.5,0.3-1.3,0.7c-0.9,0.5-2.1,1.2-3.4,2.3c-1.4,1.1-2.9,2.5-4.5,4.1
						c-1.6,1.7-3.2,3.6-4.9,5.7c-3.3,4.2-6.5,7.9-8.3,10.8c-0.9,1.5-1.6,2.7-2.1,3.6c-0.5,0.9-0.7,1.4-0.7,1.3c0,0,0-0.1,0.1-0.4
						c0.1-0.2,0.2-0.6,0.4-1c0.4-0.9,1.1-2.2,2-3.7c1.8-3,4.9-6.8,8.2-11c1.7-2.1,3.3-4,4.9-5.7c1.6-1.7,3.2-3.1,4.6-4.1
						c1.4-1,2.7-1.7,3.6-2.2c0.4-0.2,0.8-0.4,1-0.5C687.9,400.3,688,400.2,688,400.2z"/>
				</g>
			</g>
			<g>
				<g>
					<path class="st0" d="M688.5,409.5c0,0.1-1.1,0.2-2.8,0.4c-1.7,0.2-4.1,0.5-6.7,1.3c-2.5,0.8-4.6,2.1-6,3.1
						c-1.4,1.1-2,1.9-2.1,1.9c0,0,0.1-0.3,0.4-0.6c0.3-0.4,0.8-0.9,1.5-1.5c1.3-1.2,3.4-2.5,6-3.3c2.6-0.8,5-1.1,6.8-1.2
						C687.4,409.5,688.5,409.5,688.5,409.5z"/>
				</g>
			</g>
			<g>
				<g>
					<path class="st0" d="M671.8,415.2c-0.1-0.1,1.1-2,2.1-4.6c0.9-2.6,1.1-4.9,1.3-4.9c0.1,0,0.1,0.6,0,1.5
						c-0.1,0.9-0.3,2.2-0.8,3.5c-0.5,1.3-1.1,2.5-1.6,3.3C672.2,414.8,671.9,415.3,671.8,415.2z"/>
				</g>
			</g>
			<g>
				<g>
					<path class="st0" d="M696.2,375.3c0,0-0.1,0.1-0.4,0.2c-0.3,0.2-0.8,0.4-1.3,0.6c-0.6,0.2-1.3,0.6-2.1,1
						c-0.8,0.4-1.7,0.8-2.7,1.4c-0.5,0.3-1,0.6-1.5,0.9c-0.5,0.3-1.1,0.7-1.6,1c-1.1,0.7-2.3,1.5-3.5,2.4c-2.4,1.8-4.8,3.9-7.2,6.4
						c-2.4,2.5-4.4,5-6.1,7.4c-0.8,1.2-1.6,2.4-2.3,3.5c-0.3,0.6-0.7,1.1-1,1.6c-0.3,0.5-0.6,1.1-0.8,1.6c-0.5,1-0.9,1.9-1.3,2.7
						c-0.4,0.8-0.7,1.5-0.9,2.1c-0.2,0.5-0.4,1-0.6,1.3c-0.1,0.3-0.2,0.5-0.2,0.5c0,0,0-0.2,0.1-0.5c0.1-0.4,0.3-0.8,0.5-1.4
						c0.2-0.6,0.5-1.3,0.8-2.1c0.4-0.8,0.7-1.8,1.3-2.8c0.3-0.5,0.5-1,0.8-1.6c0.3-0.5,0.6-1.1,0.9-1.7c0.6-1.2,1.4-2.3,2.2-3.6
						c1.7-2.5,3.7-5,6.1-7.5c2.4-2.5,4.9-4.6,7.3-6.4c1.2-0.9,2.4-1.7,3.5-2.4c0.6-0.3,1.1-0.7,1.6-1c0.5-0.3,1.1-0.6,1.6-0.8
						c1-0.6,1.9-1,2.7-1.4c0.8-0.4,1.5-0.7,2.1-0.9c0.5-0.2,1-0.4,1.4-0.5C696,375.4,696.2,375.3,696.2,375.3z"/>
				</g>
			</g>
			<g>
				<g>
					<path class="st0" d="M676.1,388.7c0,0,0.2-0.8,1.1-1.6c0.9-0.9,2.5-1.6,4.4-1.7c1.9-0.1,3.5,0.5,4.7,0.9
						c1.1,0.4,1.8,0.8,1.8,0.9c0,0.1-0.7-0.2-1.9-0.5c-1.1-0.3-2.8-0.8-4.6-0.8c-1.8,0.1-3.3,0.7-4.2,1.5
						C676.5,388.1,676.2,388.8,676.1,388.7z"/>
				</g>
			</g>
			<g>
				<g>
					<path class="st0" d="M673.1,391.8c-0.1-0.1,1-1.7,1.3-4.1c0.3-2.4-0.4-4.2-0.3-4.3c0.1,0,0.3,0.4,0.5,1.2
						c0.2,0.8,0.4,1.9,0.2,3.1c-0.1,1.2-0.5,2.3-0.9,3C673.5,391.5,673.2,391.9,673.1,391.8z"/>
				</g>
			</g>
		</g>
		<g>
			<path class="st0" d="M640.5,433.4c0.7,12.3,4.4,24.7,10.1,37.3h24.7c5.4-12.5,8.9-24.9,9.5-37.3H640.5z"/>
		</g>
		<g>
			<g>
				<path class="st3" d="M680.7,453.3c0,0.1-8.1,0.2-18.2,0.2c-10,0-18.2-0.1-18.2-0.2c0-0.1,8.1-0.2,18.2-0.2
					C672.6,453,680.7,453.1,680.7,453.3z"/>
			</g>
		</g>
		<g>
			<g>
				<path class="st3" d="M680.2,457.7c0,0.1-7.6,0.2-17,0.2c-9.4,0-17-0.1-17-0.2c0-0.1,7.6-0.2,17-0.2
					C672.6,457.5,680.2,457.6,680.2,457.7z"/>
			</g>
		</g>
		<g>
			<g>
				<path class="st3" d="M651,441.5c0.1,0,0.2,2.5,0.2,5.7c0,3.1-0.1,5.7-0.2,5.7c-0.1,0-0.2-2.5-0.2-5.7
					C650.7,444,650.8,441.5,651,441.5z"/>
			</g>
		</g>
		<g>
			<g>
				<path class="st3" d="M664.2,441.5c0.1,0,0.2,2.6,0.2,5.9c0,3.3-0.1,5.9-0.2,5.9c-0.1,0-0.2-2.6-0.2-5.9
					C664,444.1,664.1,441.5,664.2,441.5z"/>
			</g>
		</g>
		<g>
			<g>
				<path class="st3" d="M676.6,441.4c0.1,0,0.2,2.7,0.2,6c0,3.3-0.1,6-0.2,6s-0.2-2.7-0.2-6C676.4,444.1,676.5,441.4,676.6,441.4z"
					/>
			</g>
		</g>
		<g>
			<g>
				<path class="st3" d="M684,441.5c0,0.1-9.5,0.2-21.3,0.2c-11.8,0-21.3-0.1-21.3-0.2c0-0.1,9.5-0.2,21.3-0.2
					C674.4,441.3,684,441.4,684,441.5z"/>
			</g>
		</g>
	</g>
</g>
<g id="Background_Simple" class="st4">
	<path class="st5" d="M208.4,109.5l2.1-3.4C228.1,77,260,59.4,293.6,61.6c4.3,0.3,8.6,0.9,12.9,1.8c30.6,6.5,57.2,29.7,68.2,59.3
		c6.5,17.4,8.3,37.5,20.6,51.3c16,18,43.2,18.5,67.1,17.8c23.9-0.7,51.1-0.1,67,17.9c10,11.3,13.2,27.4,12.3,42.5
		c-2.1,40.1-30.1,75.9-65.6,93.8c-35.5,17.8-77.4,19.4-116.2,11.6c-54.5-11-106.3-41.1-137.4-87.7
		C191.3,223.2,183.5,159.7,208.4,109.5z"/>
</g>
<g id="Spotlight_2">
	<g>
		
			<rect x="532" y="212" transform="matrix(-1 -1.224647e-16 1.224647e-16 -1 1070.0549 556.0171)" class="st6" width="6.1" height="132"/>
		<polygon class="st6" points="538.1,344 583.1,471.1 577.8,471.1 532,344 		"/>
		<polygon class="st6" points="531.8,344 486.8,471.1 492.2,471.1 538,344 		"/>
		<rect x="512.4" y="408.3" class="st6" width="45.2" height="4.5"/>
		<g>
			<polygon class="st6" points="509.7,143 485.8,151.2 474.3,134.4 487.8,117.6 			"/>
			<path class="st7" d="M544.2,98.7L544.2,98.7c3.3,4.7,2.2,11.2-2.6,14.4l-24.9,15.8l-11.5-15.7l24.9-16.9
				C534.8,93.1,541,94.2,544.2,98.7z"/>
			<path class="st7" d="M512.3,111.6l-28.7,5.1l24.4,31c0,0,11.9-25.1,11.9-26.3L512.3,111.6z"/>
			
				<rect x="533.5" y="109.7" transform="matrix(-1 -1.224647e-16 1.224647e-16 -1 1070.0549 321.7399)" class="st7" width="3.1" height="102.3"/>
			<polygon class="st7" points="505.9,143.8 500.6,162.8 504,163.4 508.5,146.6 			"/>
			<polygon class="st7" points="483.6,116.7 466.2,119.4 467.8,122.4 487.6,119.4 			"/>
			<g>
				<path class="st6" d="M517.1,128.7c-0.1,0-0.8-0.8-1.8-2.2c-1.1-1.4-2.5-3.4-4.1-5.6c-1.5-2.2-2.8-4.1-3.9-5.7
					c-1-1.5-1.6-2.4-1.5-2.4c0.1,0,0.8,0.8,1.8,2.2c1.1,1.4,2.5,3.4,4.1,5.6c1.5,2.2,2.8,4.1,3.9,5.7
					C516.5,127.8,517.1,128.7,517.1,128.7z"/>
			</g>
			<g>
				<path class="st6" d="M507.4,115c0,0.1-1.1,0.5-3.1,1c-1.9,0.6-4.6,1.3-7.6,1.9c-3,0.7-5.7,1.1-7.7,1.4c-2,0.3-3.2,0.4-3.2,0.3
					c0-0.1,1.2-0.3,3.2-0.7c2-0.4,4.7-0.9,7.6-1.6c3-0.7,5.7-1.3,7.6-1.8C506.2,115.3,507.4,115,507.4,115z"/>
			</g>
			<g>
				<path class="st6" d="M514.5,127c0.1,0-0.6,1-1.5,2.5c-1,1.5-2.2,3.6-3.4,6.1c-1.2,2.4-2.2,4.7-2.8,6.4c-0.6,1.7-1,2.7-1.1,2.7
					c-0.1,0,0.2-1.1,0.7-2.8c0.6-1.7,1.5-4,2.7-6.5c1.2-2.5,2.6-4.6,3.6-6.1C513.7,127.8,514.5,126.9,514.5,127z"/>
			</g>
		</g>
	</g>
</g>
<g id="Spotlight_1">
	<g>
		<polygon class="st7" points="147,471.1 143.3,471.1 143.3,130.5 147,130 		"/>
		<polygon class="st6" points="147.2,386.8 159.4,393.5 128.1,393.5 141.4,386.8 		"/>
		<path class="st7" d="M154,393.5c0.8,0,46.6,77.6,46.6,77.6h-4.8l-47.3-77.6H154z"/>
		<path class="st7" d="M134.1,393.5c-0.8,0-46.6,77.6-46.6,77.6h4.8l47.3-77.6H134.1z"/>
		<g>
			<path class="st7" d="M118.1,422.9c0,0,0.2,0.1,0.6,0.4c0.4,0.3,0.9,0.8,1.6,1.3c1.4,1.2,3.3,2.9,5.7,5
				c4.8,4.3,11.4,10.1,18.7,16.5c0.1,0.1,0.2,0.2,0.4,0.3l-0.3,0c7.4-6.1,14.2-11.5,19.1-15.6c2.4-1.9,4.4-3.5,5.8-4.7
				c0.7-0.5,1.2-0.9,1.6-1.2c0.4-0.3,0.6-0.4,0.6-0.4c0,0-0.2,0.2-0.5,0.5c-0.4,0.3-0.9,0.8-1.5,1.3c-1.4,1.2-3.3,2.8-5.7,4.8
				c-4.9,4-11.6,9.6-19,15.7l-0.2,0.1l-0.2-0.1c-0.1-0.1-0.2-0.2-0.4-0.3c-7.2-6.5-13.8-12.4-18.6-16.7c-2.3-2.1-4.2-3.9-5.6-5.1
				c-0.6-0.6-1.1-1-1.5-1.4C118.3,423.1,118.1,422.9,118.1,422.9z"/>
		</g>
		<g>
			<path class="st7" d="M161.1,407.5c0,0.1-7.5,0.3-16.7,0.3c-9.2,0-16.7-0.1-16.7-0.3s7.5-0.3,16.7-0.3
				C153.6,407.2,161.1,407.3,161.1,407.5z"/>
		</g>
		<path class="st7" d="M243.8,74.3l-137.1,84.9c-1,0.6-2.2,0.3-2.8-0.7l0,0c-0.6-1-0.3-2.2,0.7-2.8l137.1-84.9
			c1-0.6,2.2-0.3,2.8,0.7l0,0C245.1,72.4,244.8,73.7,243.8,74.3z"/>
		<path class="st7" d="M237.7,63.5c4.8,9.9,10.9,22.1,10.9,22.1l23.7-11.7l-10.4-22c-3.2-6.7-11.3-9.6-18-6.4h0
			C237.3,48.8,234.5,56.9,237.7,63.5z"/>
		<path class="st7" d="M248.1,84.2c-0.8,0.9-19.2,18-19.2,18l-19.2,45l2.9,6.8l137.6-60.1l-2.9-6.8L300.1,72l-28.3,0.5L248.1,84.2z"
			/>
		<path class="st6" d="M133.4,136c0.2,0.8,7,14.7,18,7.4c10.9-7.3,0-19.1,0-19.1L133.4,136z"/>
		<g>
			<path class="st7" d="M149.8,135.8c0,0-0.1-0.3-0.2-0.8c-0.2-0.5-0.5-1.3-1.3-1.8c-0.7-0.6-2-0.9-3.1-0.4
				c-1.2,0.4-2.2,1.6-2.1,3.1c0,1.4,1,2.7,2.1,3.1c1.2,0.4,2.4,0.1,3.1-0.4c0.8-0.6,1.1-1.3,1.3-1.8
				C149.8,136.1,149.8,135.8,149.8,135.8c0,0,0.1,0.3,0,0.9c-0.1,0.6-0.4,1.4-1.3,2.1c-0.8,0.7-2.2,1.1-3.5,0.6
				c-1.3-0.4-2.5-1.9-2.5-3.5c0-1.7,1.2-3.1,2.5-3.5c1.4-0.5,2.7-0.1,3.5,0.6c0.8,0.7,1.2,1.5,1.3,2.1
				C149.9,135.5,149.9,135.8,149.8,135.8z"/>
		</g>
		<g>
			<path class="st6" d="M347.4,87.4c0.1,0.1-30.8,13.5-68.9,29.8c-38.1,16.3-69.1,29.5-69.1,29.3c-0.1-0.1,30.8-13.5,68.9-29.8
				C316.4,100.4,347.3,87.3,347.4,87.4z"/>
		</g>
		<g>
			<path class="st6" d="M271.8,72.9c0,0-0.3,0.2-0.9,0.5c-0.7,0.3-1.5,0.7-2.5,1.2c-2.2,1-5.1,2.4-8.3,3.9c-3.2,1.5-6,2.8-8.3,3.9
				c-1,0.5-1.8,0.8-2.5,1.2c-0.6,0.3-0.9,0.4-1,0.4s0.3-0.2,0.9-0.5c0.6-0.3,1.4-0.8,2.4-1.3c2.1-1.1,5-2.5,8.2-4
				c3.2-1.5,6.2-2.8,8.4-3.7c1.1-0.5,2-0.8,2.6-1C271.5,73,271.8,72.9,271.8,72.9z"/>
		</g>
		<g>
			<path class="st6" d="M296.9,73.1c0,0-0.2,0.1-0.7,0.3c-0.5,0.2-1.1,0.5-1.9,0.8c-1.7,0.7-4.2,1.7-7.1,2.9
				c-6,2.5-14.3,5.9-23.4,9.8c-9.1,4-17.3,7.7-23.2,10.4c-2.9,1.4-5.3,2.5-7,3.2c-0.8,0.4-1.4,0.6-1.9,0.9c-0.4,0.2-0.7,0.3-0.7,0.3
				c0,0,0.2-0.1,0.6-0.4c0.5-0.2,1.1-0.6,1.9-1c1.6-0.8,4-2,6.9-3.4c5.9-2.8,14-6.6,23.1-10.6c9.1-4,17.4-7.3,23.5-9.7
				c3-1.2,5.5-2.1,7.2-2.7c0.8-0.3,1.5-0.5,2-0.7C296.7,73.2,296.9,73.1,296.9,73.1z"/>
		</g>
		<g>
			<path class="st7" d="M199.6,98.2c0,0-0.1-0.1-0.1-0.2c-0.1-0.2-0.2-0.4-0.3-0.7c-0.3-0.6-0.6-1.5-0.9-2.8
				c-0.5-2.5-0.6-6.4,1.5-10.6c1.1-2,2.7-4.1,4.8-5.7c2.1-1.7,4.8-3,7.7-3.7c3-0.7,6.2-0.7,9.4-1.1c1.6-0.2,3.2-0.6,4.7-1.4
				c1.5-0.8,2.8-1.9,3.6-3.4c0.8-1.5,1.2-3.2,1-4.8c-0.2-1.6-1.1-3.1-2.3-4.1c-1.2-1-2.7-1.6-4.2-1.5c-1.5,0.1-2.9,0.9-3.9,1.9
				c-1,1.1-1.5,2.5-1.3,3.9c0.1,1.4,0.9,2.6,1.8,3.5c1.9,1.8,4.5,2.3,6.7,2.1c4.5-0.3,7.9-2.2,9.9-3.7c1-0.8,1.7-1.4,2.2-1.9
				c0.5-0.5,0.7-0.7,0.7-0.7c0,0-0.8,1.2-2.8,2.8c-2,1.5-5.4,3.5-10,3.9c-1.1,0.1-2.4,0-3.6-0.3c-1.2-0.3-2.5-0.9-3.5-1.9
				c-1-0.9-1.8-2.2-1.9-3.7c-0.2-1.5,0.4-3.1,1.4-4.2c1-1.2,2.5-2,4.2-2.1c1.7-0.1,3.3,0.5,4.6,1.7c1.3,1.1,2.2,2.7,2.5,4.4
				c0.2,1.7-0.2,3.6-1.1,5.1c-0.4,0.8-1,1.5-1.6,2.1c-0.6,0.6-1.4,1.1-2.2,1.5c-1.6,0.8-3.2,1.2-4.9,1.4c-3.3,0.5-6.5,0.4-9.4,1.1
				c-2.9,0.7-5.5,2-7.6,3.6c-2.1,1.6-3.7,3.6-4.7,5.6c-2.1,4-2.1,7.9-1.6,10.4c0.2,1.2,0.6,2.2,0.8,2.8c0.1,0.3,0.2,0.5,0.3,0.7
				C199.6,98.1,199.6,98.2,199.6,98.2z"/>
		</g>
	</g>
</g>
<g id="Umbrella">
	<g>
		<path class="st7" d="M467.8,453.6L467.8,453.6c-1.2,0-2.2-1-2.2-2.2V321h4.4v130.3C470,452.6,469,453.6,467.8,453.6z"/>
		<g>
			<path class="st0" d="M438.2,209.3c0,0-20.3,13.2-28.2,15.3c0,0,11.1,28.5,4.5,45.4c0,0,33.5,24.1,40.1,55.2
				c0,0,27.9,0.7,49.8,22.9c0,0,12.4-19.5,24.8-21.1c0,0,4.1-26.9-1.2-37.5c0,0-0.1-20.7-11.8-33.7c0,0-19.2-37.2-54.3-40.9
				L438.2,209.3z"/>
			<g>
				<path class="st7" d="M438.2,209.3c0,0,0.5,0.1,1.6,0.3c1,0.2,2.6,0.6,4.6,1c4,0.9,10,2.3,17.6,4l0,0c8.2,0.8,18.3,4,28,10.9
					c4.8,3.4,9.6,7.7,14.1,12.7c4.5,5,8.8,10.7,12.4,17.3l0,0c3.7,4.2,6.6,9.5,8.5,15.3c1.9,5.8,3.1,12,3.3,18.5l0-0.1
					c1.3,2.8,1.9,5.8,2.3,8.9c0.4,3.1,0.5,6.2,0.4,9.4c0,6.4-0.6,12.8-1.5,19.4l0,0.2l-0.2,0c-2.6,0.4-5.1,1.4-7.4,2.9
					c-2.3,1.4-4.4,3.2-6.4,5.1c-4,3.8-7.6,8.3-10.7,13l-0.2,0.3l-0.2-0.2c-0.2-0.2-0.4-0.3-0.6-0.5c-6.8-6.7-14.7-12-23.2-15.7
					c-8.4-3.7-17.2-6-25.9-6.6l-0.2,0l0-0.2c-1.4-6.3-3.7-12.1-6.6-17.5c-1.4-2.7-3-5.3-4.7-7.7c-1.7-2.5-3.4-4.8-5.2-7.1
					c-3.6-4.5-7.5-8.7-11.4-12.4c-3.9-3.8-7.9-7.2-12-10.3l-0.1-0.1l0.1-0.1c1.7-4.3,2.1-8.7,2.1-13c0-4.2-0.4-8.3-1.1-12.1
					c-1.3-7.6-3.3-14.4-5.4-20.2l-0.1-0.1l0.1,0c2.4-0.7,4.6-1.8,6.7-2.7c2-1,3.9-2,5.7-3c3.5-1.9,6.4-3.6,8.7-5.1
					c2.3-1.4,4.1-2.5,5.3-3.3c0.6-0.4,1-0.6,1.4-0.8C438,209.4,438.2,209.3,438.2,209.3s-0.1,0.1-0.4,0.3c-0.3,0.2-0.8,0.5-1.3,0.9
					c-1.2,0.8-3,1.9-5.3,3.3c-2.3,1.4-5.2,3.2-8.7,5.1c-1.7,1-3.6,2-5.7,3c-2,1-4.2,2.1-6.7,2.8l0.1-0.2c2.2,5.8,4.1,12.6,5.5,20.2
					c0.7,3.8,1.1,7.9,1.1,12.2c0,4.2-0.4,8.8-2.1,13.1l-0.1-0.2c4.1,3,8.1,6.5,12,10.3c3.9,3.8,7.8,7.9,11.5,12.5
					c1.8,2.3,3.6,4.6,5.3,7.1c1.7,2.5,3.3,5.1,4.7,7.8c2.9,5.4,5.3,11.3,6.7,17.6l-0.2-0.2c8.8,0.6,17.7,2.9,26.1,6.6
					c8.5,3.7,16.5,9.1,23.3,15.8c0.2,0.2,0.4,0.4,0.6,0.5l-0.4,0c3.2-4.8,6.8-9.2,10.8-13.1c2-1.9,4.2-3.7,6.5-5.2
					c2.3-1.5,4.9-2.6,7.6-3l-0.2,0.2c0.9-6.5,1.5-13,1.5-19.3c0-3.2-0.1-6.3-0.4-9.3c-0.4-3-0.9-6.1-2.2-8.8l0,0l0-0.1
					c-0.2-6.4-1.4-12.6-3.3-18.4c-1.9-5.7-4.7-11-8.4-15.1l0,0l0,0c-3.6-6.5-7.8-12.2-12.3-17.2c-4.5-5-9.2-9.2-14-12.7
					c-9.7-6.9-19.7-10.2-27.8-11l0,0l0,0c-7.6-1.8-13.5-3.2-17.5-4.2c-2-0.5-3.5-0.9-4.6-1.1C438.7,209.5,438.2,209.3,438.2,209.3z"
					/>
			</g>
		</g>
		<path class="st7" d="M502.4,249.2c0,0,13.4-10.5,13.4-9.4s-12.1,11.4-12.1,11.4L502.4,249.2z"/>
		<g>
			<path class="st7" d="M503,249.3c0,0,0,0.1,0,0.2c0,0.2-0.1,0.4-0.1,0.7c-0.1,0.6-0.3,1.5-0.5,2.6c-0.2,1.1-0.6,2.5-1,4.1
				c-0.2,0.8-0.5,1.6-0.8,2.5c-0.3,0.9-0.6,1.8-0.9,2.8c-1.4,3.9-3.4,8.5-6,13.3c-2.6,4.9-5.7,10.1-9.2,15.3
				c-3.5,5.3-7.1,10.2-10.4,14.6c-3.3,4.4-6.2,8.4-8.9,11.6c-2.7,3.2-5.3,5.4-7.3,6.7c-1,0.6-1.8,1.1-2.3,1.4
				c-0.3,0.1-0.5,0.2-0.6,0.3c-0.1,0.1-0.2,0.1-0.2,0.1c0,0,0.1-0.1,0.2-0.1c0.2-0.1,0.4-0.2,0.6-0.3c0.5-0.3,1.3-0.8,2.3-1.4
				c1.9-1.3,4.4-3.5,7.1-6.7c2.7-3.2,5.5-7.2,8.8-11.6c3.3-4.4,6.8-9.3,10.3-14.6c3.5-5.3,6.7-10.4,9.2-15.3c2.6-4.8,4.6-9.4,6-13.2
				c0.4-1,0.7-1.9,1-2.8c0.3-0.9,0.6-1.7,0.8-2.5c0.4-1.6,0.9-2.9,1.1-4.1c0.3-1.1,0.5-2,0.6-2.6c0.1-0.3,0.1-0.5,0.2-0.7
				C503,249.4,503,249.3,503,249.3z"/>
		</g>
		<g>
			<path class="st7" d="M503,249.3c0,0,0,0.1,0.1,0.2c0.1,0.2,0.2,0.4,0.3,0.7c0.2,0.7,0.6,1.6,1,2.7c0.2,0.6,0.4,1.3,0.7,2
				c0.2,0.7,0.5,1.5,0.7,2.4c0.5,1.7,1.1,3.7,1.6,5.9c0.3,1.1,0.5,2.2,0.8,3.4c0.3,1.2,0.5,2.5,0.8,3.8c0.6,2.6,1,5.4,1.4,8.4
				c0.8,5.9,1.4,12.5,1.5,19.4c0,6.9-0.4,13.5-1.1,19.4c-0.4,3-0.7,5.8-1.3,8.4c-0.2,1.3-0.4,2.6-0.7,3.8c-0.3,1.2-0.5,2.4-0.8,3.5
				c-0.5,2.2-1,4.2-1.5,5.9c-0.2,0.9-0.4,1.7-0.7,2.4c-0.2,0.7-0.4,1.4-0.6,2c-0.4,1.2-0.7,2.1-0.9,2.8c-0.1,0.3-0.2,0.5-0.2,0.7
				c-0.1,0.2-0.1,0.2-0.1,0.2c0,0,0-0.1,0.1-0.3c0.1-0.2,0.1-0.4,0.2-0.7c0.2-0.7,0.5-1.6,0.8-2.8c0.2-0.6,0.4-1.3,0.6-2
				c0.2-0.7,0.4-1.6,0.6-2.4c0.4-1.7,1-3.7,1.4-5.9c0.2-1.1,0.5-2.3,0.7-3.5c0.3-1.2,0.4-2.5,0.7-3.8c0.5-2.6,0.8-5.4,1.2-8.4
				c0.6-5.9,1.1-12.5,1-19.3c-0.1-6.9-0.6-13.4-1.4-19.3c-0.4-2.9-0.8-5.7-1.4-8.3c-0.3-1.3-0.5-2.6-0.7-3.8
				c-0.3-1.2-0.5-2.3-0.8-3.4c-0.5-2.2-1.1-4.2-1.5-5.9c-0.2-0.9-0.5-1.7-0.7-2.4c-0.2-0.7-0.4-1.4-0.6-2c-0.4-1.2-0.7-2.1-0.9-2.8
				c-0.1-0.3-0.2-0.5-0.2-0.7C503,249.4,503,249.3,503,249.3z"/>
		</g>
		<g>
			<path class="st7" d="M529.7,300.6c0,0-0.1-0.2-0.1-0.6c-0.1-0.4-0.1-1-0.2-1.7c-0.1-0.7-0.2-1.6-0.4-2.6c-0.2-1-0.3-2.2-0.6-3.4
				c-0.3-1.3-0.6-2.7-1-4.1c-0.4-1.5-0.9-3-1.4-4.7c-1.1-3.2-2.5-6.7-4.3-10.3c-1.8-3.5-3.8-6.7-5.8-9.6c-1-1.4-2-2.7-2.9-3.9
				c-0.9-1.2-1.9-2.3-2.8-3.2c-0.8-1-1.7-1.8-2.4-2.5c-0.7-0.8-1.4-1.4-1.9-1.9c-0.5-0.5-0.9-0.9-1.2-1.2c-0.3-0.3-0.4-0.4-0.4-0.4
				c0,0,0.2,0.1,0.5,0.4c0.3,0.3,0.8,0.6,1.3,1.1c0.6,0.5,1.2,1.1,2,1.8c0.7,0.7,1.6,1.5,2.5,2.5c0.9,1,1.9,2,2.8,3.2
				c1,1.2,2,2.5,3,3.9c2,2.8,4,6,5.8,9.6c1.8,3.6,3.2,7.1,4.3,10.4c0.5,1.7,1,3.2,1.3,4.7c0.4,1.5,0.7,2.9,0.9,4.2
				c0.3,1.3,0.4,2.5,0.6,3.5c0.2,1,0.2,1.9,0.3,2.6c0,0.7,0.1,1.2,0.1,1.7C529.7,300.4,529.7,300.6,529.7,300.6z"/>
		</g>
		<g>
			<path class="st7" d="M502.9,249.7c0,0-0.1,0-0.2,0c-0.2,0-0.4-0.1-0.7-0.1c-0.3-0.1-0.7-0.1-1.1-0.2c-0.4-0.1-1-0.1-1.5-0.2
				c-2.3-0.3-5.6-0.6-9.8-0.2c-4.1,0.3-9,1.1-14.3,2.3c-5.3,1.2-11.2,2.6-17.3,4.3c-12.2,3.3-23.1,6.8-31,9.5
				c-3.9,1.4-7.1,2.5-9.2,3.3c-1.1,0.4-1.9,0.7-2.5,0.9c-0.3,0.1-0.5,0.2-0.7,0.2c-0.1,0-0.2,0.1-0.2,0.1c0,0,0.1,0,0.2-0.1
				c0.2-0.1,0.4-0.2,0.6-0.3c0.6-0.2,1.4-0.6,2.5-1c2.2-0.8,5.3-2.1,9.2-3.5c7.8-2.8,18.7-6.4,30.9-9.7c6.1-1.6,12-3,17.3-4.2
				c5.4-1.2,10.3-2,14.4-2.2c4.2-0.3,7.5,0,9.8,0.4c0.6,0.1,1.1,0.2,1.5,0.3c0.4,0.1,0.8,0.2,1.1,0.3c0.3,0.1,0.5,0.1,0.7,0.2
				C502.8,249.7,502.9,249.7,502.9,249.7z"/>
		</g>
		<g>
			<path class="st7" d="M503.1,249.7c0,0-0.1,0-0.2-0.1c-0.2-0.1-0.4-0.2-0.6-0.4c-0.6-0.4-1.4-0.9-2.4-1.6c-1-0.7-2.3-1.6-3.8-2.5
				c-0.8-0.5-1.6-1-2.4-1.5c-0.4-0.3-0.9-0.5-1.3-0.8c-0.5-0.3-0.9-0.5-1.4-0.8c-1.9-1-4-2.3-6.4-3.4c-1.2-0.6-2.4-1.2-3.6-1.8
				c-1.3-0.5-2.6-1.1-3.9-1.7c-5.4-2.2-11.5-4.4-18-6c-6.6-1.7-12.9-2.7-18.7-3.5c-2.9-0.3-5.7-0.6-8.3-0.8
				c-1.3-0.1-2.6-0.2-3.8-0.2c-1.2,0-2.4-0.1-3.5-0.1c-2.2-0.1-4.2-0.1-6-0.1c-0.9,0-1.7,0-2.5,0c-0.7,0-1.4,0-2.1,0.1
				c-1.2,0-2.2,0.1-2.9,0.1c-0.3,0-0.5,0-0.7,0c-0.2,0-0.3,0-0.3,0c0,0,0.1,0,0.3,0c0.2,0,0.4,0,0.7-0.1c0.7,0,1.6-0.1,2.9-0.2
				c0.6,0,1.3-0.1,2.1-0.1c0.8,0,1.6,0,2.5,0c1.8,0,3.8-0.1,6,0c1.1,0,2.3,0,3.5,0.1c1.2,0.1,2.5,0.1,3.8,0.2
				c2.6,0.1,5.4,0.4,8.3,0.7c5.8,0.7,12.2,1.8,18.8,3.5c6.6,1.6,12.7,3.8,18.1,6.1c1.3,0.6,2.7,1.2,3.9,1.7c1.3,0.6,2.5,1.2,3.6,1.8
				c2.4,1.1,4.5,2.4,6.4,3.4c0.5,0.3,1,0.5,1.4,0.8c0.4,0.3,0.9,0.6,1.3,0.8c0.8,0.5,1.6,1,2.4,1.5c1.5,0.9,2.7,1.8,3.7,2.5
				c1,0.7,1.8,1.3,2.3,1.7c0.2,0.2,0.4,0.3,0.6,0.4C503.1,249.7,503.1,249.7,503.1,249.7z"/>
		</g>
		<g>
			<path class="st7" d="M460.4,214.5c0,0,0.2,0,0.6,0c0.4,0.1,1,0.1,1.7,0.2c1.5,0.2,3.5,0.8,6,1.8c4.9,2,11.1,5.9,17.3,11
				c3,2.6,6.2,4.7,8.9,7c1.3,1.2,2.5,2.3,3.4,3.6c0.9,1.3,1.6,2.5,2.3,3.6c1.4,2.2,2.1,4.3,2.3,5.8c0.1,0.7,0.1,1.3,0.1,1.7
				c0,0.4,0,0.6-0.1,0.6c-0.1,0,0-0.8-0.2-2.3c-0.2-1.4-1-3.4-2.4-5.6c-0.7-1.1-1.5-2.3-2.4-3.6c-0.9-1.2-2.1-2.4-3.4-3.5
				c-2.6-2.3-5.8-4.4-8.9-7c-6.2-5.1-12.3-9.1-17.1-11.1c-2.4-1-4.4-1.7-5.9-2C461.3,214.7,460.4,214.6,460.4,214.5z"/>
		</g>
		<polygon class="st6" points="465.6,405.4 456.3,410.7 480.1,410.7 470,405.4 		"/>
		<path class="st7" d="M460.4,410.7c-0.6,0-35.6,60.4-35.6,60.4h3.6l36.1-60.4H460.4z"/>
		<path class="st7" d="M475.5,410.7c0.6,0,35.6,60.4,35.6,60.4h-3.6l-36.1-60.4H475.5z"/>
		<g>
			<path class="st7" d="M487.7,433.6c0,0-0.1,0.2-0.4,0.4c-0.3,0.3-0.7,0.7-1.1,1.1c-1.1,1-2.5,2.3-4.2,4c-3.7,3.4-8.6,7.9-14.1,13
				c-0.1,0.1-0.2,0.2-0.3,0.3l-0.2,0.2l-0.2-0.1c-5.6-4.8-10.7-9.1-14.5-12.2c-1.8-1.5-3.3-2.8-4.3-3.7c-0.5-0.4-0.9-0.8-1.2-1
				c-0.3-0.2-0.4-0.4-0.4-0.4c0,0,0.2,0.1,0.4,0.3c0.3,0.3,0.7,0.6,1.2,1c1.1,0.9,2.6,2.1,4.4,3.6c3.8,3.1,8.9,7.4,14.6,12.1l-0.3,0
				c0.1-0.1,0.2-0.2,0.3-0.3c5.5-5,10.5-9.5,14.2-12.9c1.8-1.6,3.3-2.9,4.4-3.9c0.5-0.4,0.9-0.8,1.2-1
				C487.5,433.7,487.7,433.6,487.7,433.6z"/>
		</g>
		<g>
			<path class="st7" d="M454.9,421.5c0-0.1,5.7-0.3,12.8-0.3c7,0,12.8,0.1,12.8,0.3s-5.7,0.3-12.8,0.3
				C460.7,421.8,454.9,421.7,454.9,421.5z"/>
		</g>
	</g>
</g>
<g id="Floor">
	<g>
		<path class="st7" d="M708.3,471.1c0,0.1-149.2,0.3-333.3,0.3c-184.1,0-333.3-0.1-333.3-0.3s149.2-0.3,333.3-0.3
			C559.1,470.8,708.3,470.9,708.3,471.1z"/>
	</g>
</g>
<g id="Plant">
	<g>
		<g>
			<g>
				<g>
					<rect x="69.7" y="412.3" class="st7" width="70" height="9.6"/>
				</g>
			</g>
			<g>
				<g>
					<path class="st7" d="M139.8,422H69.6v-9.9h70.2V422z M69.9,421.8h69.7v-9.4H69.9V421.8z"/>
				</g>
			</g>
		</g>
		<g>
			<g>
				<g>
					<polygon class="st7" points="76.2,418.7 86.3,468.4 123.6,468.4 133.3,421.9 					"/>
				</g>
			</g>
		</g>
		<g>
			<g>
				<g>
					<polygon class="st6" points="76.2,463.7 81.6,471.1 126.9,471.1 133.3,463.7 					"/>
				</g>
			</g>
		</g>
		<g>
			<g>
				<g>
					<g>
						<path class="st7" d="M102.1,420.1c-0.1,0-0.3-23-0.4-51.4c-0.1-28.4,0-51.4,0.1-51.4c0.1,0,0.3,23,0.4,51.4
							C102.3,397.1,102.2,420.1,102.1,420.1z"/>
					</g>
				</g>
			</g>
		</g>
		<g>
			<g>
				<g>
					<g>
						<path class="st7" d="M117.7,362.5c0,0,0,0.2-0.2,0.5c-0.2,0.4-0.4,0.9-0.6,1.5c-0.1,0.3-0.3,0.7-0.5,1.1
							c-0.1,0.4-0.3,0.8-0.5,1.3c-0.2,0.5-0.3,1-0.5,1.5c-0.2,0.5-0.3,1.1-0.5,1.7c-0.8,2.4-1.4,5.3-2,8.6
							c-0.5,3.3-0.9,6.9-1.1,10.7c-0.3,7.6,0.1,14.6,0.6,19.6c0.2,2.5,0.5,4.5,0.6,5.9c0.1,0.7,0.1,1.2,0.2,1.6c0,0.4,0,0.6,0,0.6
							c0,0-0.1-0.2-0.1-0.6c-0.1-0.4-0.2-0.9-0.3-1.6c-0.2-1.4-0.5-3.4-0.8-5.9c-0.6-5-1-12-0.7-19.6c0.2-3.8,0.6-7.5,1.1-10.8
							c0.6-3.3,1.3-6.2,2.1-8.6c0.2-0.6,0.4-1.2,0.6-1.7c0.2-0.5,0.4-1,0.6-1.5c0.2-0.5,0.3-0.9,0.5-1.3c0.2-0.4,0.3-0.7,0.5-1.1
							c0.3-0.6,0.5-1.1,0.7-1.5C117.6,362.7,117.7,362.5,117.7,362.5z"/>
					</g>
				</g>
			</g>
		</g>
		<g>
			<g>
				<g>
					<g>
						<path class="st7" d="M115.9,343.9c0,0-0.1,0.3-0.2,0.8c-0.2,0.5-0.4,1.2-0.7,2.1c-0.2,0.5-0.3,1-0.5,1.5
							c-0.2,0.6-0.4,1.2-0.6,1.9c-0.4,1.3-0.9,2.8-1.3,4.5c-0.2,0.8-0.5,1.7-0.7,2.7c-0.2,0.9-0.4,1.9-0.7,2.9
							c-0.5,2-0.8,4.2-1.3,6.5c-0.8,4.6-1.5,9.6-1.9,15c-0.4,5.3-0.6,10.4-0.7,15.1c0,4.6,0,8.8,0.2,12.3c0.1,1.8,0.2,3.3,0.3,4.7
							c0.1,1.4,0.2,2.6,0.3,3.6c0.1,0.9,0.1,1.7,0.2,2.3c0,0.5,0,0.8,0,0.8c0,0-0.1-0.3-0.1-0.8c-0.1-0.6-0.2-1.3-0.3-2.2
							c-0.1-1-0.2-2.2-0.3-3.6c-0.1-1.4-0.3-3-0.3-4.7c-0.2-3.5-0.3-7.7-0.3-12.3c0-4.6,0.2-9.8,0.7-15.1c0.5-5.3,1.2-10.4,2-15
							c0.5-2.3,0.8-4.5,1.3-6.5c0.2-1,0.5-2,0.7-2.9c0.3-0.9,0.5-1.8,0.7-2.7c0.4-1.7,0.9-3.2,1.4-4.5c0.2-0.7,0.4-1.3,0.6-1.9
							c0.2-0.6,0.4-1.1,0.6-1.5c0.3-0.9,0.6-1.6,0.8-2.1C115.8,344.1,115.9,343.9,115.9,343.9z"/>
					</g>
				</g>
			</g>
		</g>
		<g>
			<g>
				<g>
					<g>
						<path class="st7" d="M97.7,424.2c0,0,0-0.1,0-0.3c0-0.2,0-0.5-0.1-0.8c0-0.7-0.1-1.8-0.2-3c-0.2-2.7-0.4-6.5-0.7-11.2
							c-0.6-9.5-1.5-22.5-3.1-36.9c-0.8-7.2-1.8-14-2.7-20.2c-0.5-3.1-1-6-1.5-8.8c-0.5-2.7-1-5.3-1.5-7.6c-0.5-2.3-1-4.4-1.4-6.2
							c-0.4-1.8-0.8-3.4-1.1-4.7c-0.3-1.3-0.6-2.3-0.7-3c-0.1-0.3-0.1-0.6-0.2-0.8c0-0.2-0.1-0.3,0-0.3c0,0,0,0.1,0.1,0.3
							c0.1,0.2,0.1,0.5,0.2,0.8c0.2,0.7,0.5,1.7,0.8,2.9c0.4,1.3,0.8,2.8,1.2,4.7c0.4,1.8,1,3.9,1.5,6.2c0.5,2.3,1.1,4.9,1.6,7.6
							c0.6,2.7,1,5.7,1.6,8.8c1,6.2,2,13,2.8,20.2c1.6,14.4,2.4,27.5,2.9,37c0.3,4.7,0.4,8.6,0.5,11.2c0,1.3,0.1,2.3,0.1,3.1
							c0,0.3,0,0.6,0,0.8C97.7,424.1,97.7,424.2,97.7,424.2z"/>
					</g>
				</g>
			</g>
		</g>
		<g>
			<g>
				<g>
					<path class="st8" d="M101.5,328.3c-0.3-3.3-3.6-5.7-6.9-5.8c-3.3,0-6.3,1.9-8.3,4.5c-2,2.6-3.1,5.8-4,8.9
						c-2.2,7.7-3.4,15.8-2.5,23.7c0.9,7.9,4.2,15.8,9.9,21.4c0.9,0.9,2.1,1.8,3.4,1.6c0.7-0.1,1.3-0.6,1.8-1.1
						c11.2-10.1,17.7-25.3,17.2-40.3c-0.1-3-0.5-6.2-2.2-8.7C108.3,330,104.4,327.3,101.5,328.3"/>
				</g>
			</g>
		</g>
		<g>
			<g>
				<g>
					<g>
						<path class="st8" d="M77.1,302.2c-1.5,2.8-3.1,5.6-4.6,8.4c-0.1,0.2-0.2,0.4-0.5,0.4c-0.2,0-0.4-0.2-0.6-0.4
							c-4.1-6.2-8.1-12.5-12.2-18.7l2.8-1.6L77.1,302.2z"/>
					</g>
				</g>
			</g>
			<g class="st9">
				<g>
					<g>
						<g>
							<path d="M77.1,302.2c-1.5,2.8-3.1,5.6-4.6,8.4c-0.1,0.2-0.2,0.4-0.5,0.4c-0.2,0-0.4-0.2-0.6-0.4c-4.1-6.2-8.1-12.5-12.2-18.7
								l2.8-1.6L77.1,302.2z"/>
						</g>
					</g>
				</g>
			</g>
			<g>
				<g>
					<g>
						<path class="st8" d="M101.8,317.3c-13.9-8.2-27.7-16.4-41.6-24.6c-0.4-0.3-0.9-0.5-1-1c-0.2-0.6,0.3-1.2,0.7-1.7
							c5.7-5.9,14-9.3,22.2-8.7c8.2,0.6,16.1,5.3,20.1,12.5C106.3,301,106.4,310.5,101.8,317.3"/>
					</g>
				</g>
			</g>
			<g>
				<g>
					<g>
						<g>
							<path class="st7" d="M66.2,284.9c0,0,0.2,0,0.5-0.1c0.4,0,0.9-0.1,1.6-0.1c1.4,0,3.4,0.1,5.8,0.5c2.4,0.4,5.3,1.2,8.2,2.5
								c3,1.3,6,3.2,8.8,5.7c2.8,2.5,5,5.4,6.6,8.2c1.6,2.8,2.7,5.6,3.3,7.9c0.6,2.4,0.9,4.3,1,5.7c0.1,0.7,0,0.9,0.1,1.2
								c0,0.4-0.3,0.9-0.3,0.9c0,0,0.2-0.8,0.1-2.1c-0.2-1.3-0.5-3.3-1.2-5.6c-1.3-4.6-4.4-10.9-9.9-15.9c-5.5-5-12-7.4-16.8-8.2
								c-2.4-0.4-4.4-0.6-5.7-0.6C67,284.9,66.2,284.9,66.2,284.9z"/>
						</g>
					</g>
				</g>
			</g>
			<g>
				<g>
					<g>
						<g>
							<path class="st7" d="M96.2,300.3c0,0.1-0.8,0.4-2.1,1c-1.3,0.5-3.2,1.2-5.3,1.8c-2.1,0.7-4,1.2-5.4,1.5
								c-1.4,0.3-2.3,0.5-2.3,0.4c0-0.1,0.8-0.3,2.2-0.8c1.5-0.5,3.3-1,5.3-1.7c2-0.6,3.8-1.2,5.3-1.7
								C95.3,300.5,96.2,300.3,96.2,300.3z"/>
						</g>
					</g>
				</g>
			</g>
			<g>
				<g>
					<g>
						<g>
							<path class="st7" d="M89.6,282.7c0.1,0,0.4,2.1,0.5,4.6c0.1,2.6-0.1,4.7-0.3,4.7c-0.1,0-0.2-2.1-0.2-4.6
								C89.6,284.8,89.5,282.7,89.6,282.7z"/>
						</g>
					</g>
				</g>
			</g>
			<g>
				<g>
					<g>
						<g>
							<path class="st7" d="M59.8,292.3c0-0.1,1.1-0.5,3-1.1c1.9-0.6,4.5-1.3,7.5-2c2.9-0.7,5.6-1.2,7.6-1.6
								c1.9-0.3,3.2-0.5,3.2-0.4c0,0.1-1.2,0.3-3.1,0.8c-1.9,0.4-4.6,1-7.5,1.7c-2.9,0.7-5.6,1.4-7.5,1.9
								C61.1,292,59.9,292.3,59.8,292.3z"/>
						</g>
					</g>
				</g>
			</g>
		</g>
		<g>
			<g>
				<g>
					<g>
						<path class="st8" d="M84.3,321.3c-3.6-2.7-7.4-3.2-11.9-3.1c-4.5,0.2-8.9,1.5-13,3.3c-7,3.1-13.6,7.6-17.8,14
							c-4.2,6.4-5.7,14.9-2.5,21.9c0.3,0.7,0.7,1.4,1.4,1.7c0.7,0.3,1.6,0.1,2.3-0.2c8-2.6,16-5.2,23.4-9.3c7.3-4.1,14-9.7,18-17.2
							c0.9-1.8,1.7-3.7,1.9-5.7C86.2,324.8,85.7,322.7,84.3,321.3"/>
					</g>
				</g>
			</g>
			<g>
				<g>
					<g>
						<g>
							<path class="st7" d="M84.3,320.4c0,0-0.2,0.1-0.6,0.2c-0.4,0.1-1,0.3-1.7,0.6c-0.4,0.1-0.8,0.3-1.2,0.4
								c-0.4,0.2-0.9,0.4-1.4,0.6c-1,0.4-2.2,0.8-3.4,1.4c-0.6,0.3-1.3,0.6-2,0.9c-0.7,0.3-1.4,0.7-2.1,1.1
								c-1.4,0.7-2.9,1.6-4.5,2.5c-3.1,1.9-6.3,4.3-9.4,7c-3.1,2.8-5.8,5.7-8.2,8.5c-1.1,1.4-2.2,2.8-3.1,4.1
								c-0.5,0.7-0.9,1.3-1.3,1.9c-0.4,0.6-0.8,1.2-1.1,1.8c-0.8,1.1-1.3,2.3-1.8,3.2c-0.3,0.5-0.5,0.9-0.7,1.3
								c-0.2,0.4-0.4,0.8-0.6,1.1c-0.3,0.7-0.6,1.2-0.8,1.6c-0.2,0.4-0.3,0.5-0.3,0.5c0,0,0.1-0.2,0.2-0.6c0.2-0.4,0.4-1,0.7-1.6
								c0.2-0.4,0.3-0.7,0.5-1.2c0.2-0.4,0.4-0.9,0.7-1.4c0.5-1,1-2.1,1.8-3.3c0.4-0.6,0.7-1.2,1.1-1.9c0.4-0.6,0.9-1.3,1.3-1.9
								c0.9-1.4,2-2.7,3.1-4.2c2.3-2.8,5-5.8,8.2-8.6c3.2-2.8,6.4-5.1,9.5-7c1.6-0.9,3.1-1.8,4.5-2.5c0.7-0.4,1.4-0.7,2.1-1
								c0.7-0.3,1.3-0.6,2-0.9c1.2-0.6,2.4-1,3.5-1.4c0.5-0.2,1-0.4,1.4-0.5c0.4-0.1,0.9-0.3,1.2-0.4c0.7-0.2,1.3-0.4,1.7-0.5
								C84.1,320.5,84.3,320.4,84.3,320.4z"/>
						</g>
					</g>
				</g>
			</g>
			<g>
				<g>
					<g>
						<g>
							<path class="st7" d="M56.4,335.6c0,0.1-3.9,1.4-8.7,2.8c-4.8,1.4-8.8,2.5-8.8,2.3c0-0.1,3.9-1.4,8.7-2.8
								C52.4,336.5,56.3,335.4,56.4,335.6z"/>
						</g>
					</g>
				</g>
			</g>
			<g>
				<g>
					<g>
						<g>
							<path class="st7" d="M56,354.8c-0.1,0-0.1-1-0.2-2.7c0-1.7-0.1-4,0-6.6c0.1-2.6,0.2-4.9,0.3-6.5c0.1-1.7,0.3-2.7,0.3-2.7
								c0.1,0,0.1,1,0,2.7c-0.1,1.8-0.1,4.1-0.2,6.5c-0.1,2.5-0.1,4.7-0.2,6.5C56.1,353.7,56.1,354.8,56,354.8z"/>
						</g>
					</g>
				</g>
			</g>
			<g>
				<g>
					<g>
						<g>
							<path class="st7" d="M72.5,346.4c-0.1,0-0.6-4.7-1-10.5c-0.4-5.8-0.6-10.5-0.5-10.6c0.1,0,0.6,4.7,1,10.5
								C72.4,341.7,72.6,346.4,72.5,346.4z"/>
						</g>
					</g>
				</g>
			</g>
			<g>
				<g>
					<g>
						<g>
							<path class="st7" d="M52,324.9c0-0.1,1.1-0.1,2.8-0.1c1.7,0,4.1,0.1,6.7,0.1c2.6,0.1,5,0.2,6.7,0.3c1.7,0.1,2.8,0.2,2.8,0.3
								c0,0.1-1.1,0.1-2.8,0.1c-1.7,0-4.1-0.1-6.7-0.1c-2.6-0.1-5-0.2-6.7-0.3C53,325,52,324.9,52,324.9z"/>
						</g>
					</g>
				</g>
			</g>
		</g>
		<g>
			<g>
				<g>
					<g>
						<path class="st7" d="M91.5,382.2c0,0,0-0.2-0.1-0.6c0-0.4,0-0.9-0.1-1.6c-0.1-1.4-0.1-3.4,0-5.9c0-2.5,0.2-5.4,0.5-8.7
							c0.3-3.3,0.8-6.9,1.5-10.6c0.7-3.7,1.5-7.3,2.4-10.5c0.9-3.2,1.8-6,2.6-8.4c0.8-2.4,1.6-4.2,2.1-5.5c0.3-0.6,0.5-1.1,0.6-1.5
							c0.1-0.3,0.2-0.5,0.3-0.5c0,0,0,0.2-0.2,0.5c-0.1,0.4-0.3,0.9-0.5,1.5c-0.5,1.3-1.2,3.2-1.9,5.6c-0.8,2.4-1.6,5.2-2.5,8.4
							c-0.8,3.2-1.6,6.7-2.3,10.4c-0.7,3.7-1.2,7.3-1.5,10.6c-0.3,3.3-0.5,6.2-0.6,8.7c-0.1,2.5-0.1,4.5-0.1,5.9c0,0.7,0,1.2,0,1.6
							C91.5,382,91.5,382.2,91.5,382.2z"/>
					</g>
				</g>
			</g>
		</g>
		<g>
			<g>
				<g>
					<g>
						<path class="st7" d="M93.7,354.9c0,0-0.6,0.7-1.7,1.8c-1.1,1.1-2.6,2.5-4.3,4c-1.7,1.5-3.4,2.9-4.6,3.8c-1.2,0.9-2,1.5-2,1.4
							c0-0.1,0.7-0.7,1.8-1.7c1.3-1.1,2.8-2.4,4.5-3.9c1.7-1.5,3.2-2.8,4.4-3.9C92.9,355.5,93.6,354.9,93.7,354.9z"/>
					</g>
				</g>
			</g>
		</g>
		<g>
			<g>
				<g>
					<g>
						<path class="st7" d="M106.9,365.5c-0.1,0-0.7-0.9-1.8-2.4c-1.1-1.7-2.5-3.7-4.1-6c-1.6-2.3-3-4.3-4.2-5.9
							c-1.1-1.5-1.7-2.5-1.7-2.5c0.1,0,0.8,0.8,2,2.3c1.2,1.5,2.7,3.5,4.3,5.9c1.6,2.3,3,4.5,4,6.1
							C106.4,364.5,106.9,365.5,106.9,365.5z"/>
					</g>
				</g>
			</g>
		</g>
		<g>
			<g>
				<g>
					<g>
						<path class="st7" d="M100,332.2c0.1,0.1-4.3,3.1-9.8,6.6c-5.5,3.5-10,6.3-10,6.2c-0.1-0.1,4.3-3.1,9.8-6.6
							C95.4,334.8,99.9,332.1,100,332.2z"/>
					</g>
				</g>
			</g>
		</g>
		<g>
			<g>
				<g>
					<g>
						<path class="st7" d="M112.3,345.5c-0.1,0.1-3.1-2.6-6.6-6.1c-3.6-3.5-6.4-6.4-6.3-6.5c0.1-0.1,3.1,2.6,6.6,6.1
							C109.6,342.5,112.4,345.4,112.3,345.5z"/>
					</g>
				</g>
			</g>
		</g>
		<g>
			<g>
				<g>
					<g>
						<path class="st8" d="M115.4,345.2l3.8-0.3c2.7-0.2,5.3-1,7.6-2.3c1.2-0.6,2.3-1.3,3.5-1.8c4.6-1.9,9.8-1.5,14.8-1.8
							c8.2-0.4,16.2-2.5,23.6-6c0.4-0.2,0.8-0.5,1-0.9c0.8-1.4-0.7-2.7-1.9-3.4c-6.3-3.9-12.8-7.8-19.9-9.8
							c-7.2-1.9-15.3-1.6-21.4,2.6C119.2,326.4,116.6,336.6,115.4,345.2"/>
					</g>
				</g>
			</g>
			<g>
				<g>
					<g>
						<g>
							<path class="st7" d="M169.8,331.6c0,0-0.2-0.1-0.6-0.3c-0.5-0.2-1-0.5-1.8-0.9c-1.5-0.8-3.8-2-6.6-3.4
								c-2.8-1.3-6.2-2.8-10.2-3.9c-3.9-1.1-8.5-1.7-13.2-1.1c-4.7,0.6-9,2.4-12,5.2c-3.1,2.7-4.9,6-6.3,8.8
								c-1.3,2.8-2.1,5.2-2.7,6.8c-0.3,0.8-0.5,1.4-0.7,1.9c-0.2,0.4-0.2,0.7-0.3,0.7c0,0,0-0.2,0.2-0.7c0.1-0.5,0.3-1.1,0.6-1.9
								c0.5-1.7,1.3-4.1,2.6-6.9c1.3-2.8,3.2-6.2,6.3-9c3.1-2.8,7.5-4.7,12.3-5.3c4.8-0.6,9.4,0,13.4,1.1c4,1.1,7.4,2.7,10.2,4
								c2.8,1.4,5,2.6,6.5,3.5c0.7,0.4,1.3,0.8,1.7,1C169.6,331.5,169.8,331.6,169.8,331.6z"/>
						</g>
					</g>
				</g>
			</g>
			<g>
				<g>
					<g>
						<g>
							<path class="st7" d="M160.8,336.5c-0.1,0.1-5-3.1-11-7.1c-6-4-10.8-7.4-10.7-7.5c0.1-0.1,5,3.1,11,7.1
								C156.1,333,160.8,336.3,160.8,336.5z"/>
						</g>
					</g>
				</g>
			</g>
			<g>
				<g>
					<g>
						<g>
							<path class="st7" d="M155.5,321.6c0,0.1-1.6,0.5-3.6,0.6c-2,0.2-3.6,0.1-3.6,0c0-0.1,1.6-0.2,3.6-0.4
								C153.9,321.7,155.5,321.5,155.5,321.6z"/>
						</g>
					</g>
				</g>
			</g>
			<g>
				<g>
					<g>
						<g>
							<path class="st7" d="M134,318.8c0.1,0.1-0.6,1.2-1.6,2.5c-1,1.3-1.9,2.4-2,2.3c-0.1-0.1,0.6-1.2,1.6-2.5
								C133,319.8,133.9,318.7,134,318.8z"/>
						</g>
					</g>
				</g>
			</g>
			<g>
				<g>
					<g>
						<g>
							<path class="st7" d="M138.4,339.3c0,0.1-0.9-0.4-2.4-1.3c-1.4-0.9-3.3-2.1-5.4-3.6c-2-1.5-3.9-2.9-5.2-3.9
								c-1.3-1-2.1-1.7-2-1.7c0-0.1,0.9,0.5,2.3,1.5c1.5,1.1,3.3,2.4,5.2,3.8c2,1.5,3.9,2.8,5.3,3.7
								C137.6,338.7,138.5,339.3,138.4,339.3z"/>
						</g>
					</g>
				</g>
			</g>
		</g>
		<g>
			<g>
				<g>
					<g>
						<path class="st8" d="M120.9,361.2c-3.6-0.9-7.9,2.5-8.6,6.2c-0.7,3.6,0.6,7.3,2.2,10.7c3.5,7.4,8.4,14.3,14.8,19.4
							c6.4,5.1,14.4,8.4,22.7,8.3c-1.5-7,0.4-14.4-0.4-21.5c-0.7-6.2-3.6-12.2-8.1-16.6c-4.5-4.4-10.5-7.3-16.7-7.9
							C124.5,359.4,121.8,359.1,120.9,361.2"/>
					</g>
				</g>
			</g>
			<g>
				<g>
					<g>
						<g>
							<path class="st7" d="M152,405.8c0,0-0.2-0.1-0.5-0.2c-0.3-0.2-0.8-0.5-1.3-0.9c-1.1-0.9-2.4-2.5-3.5-4.7
								c-0.6-1.1-1.2-2.3-1.8-3.6c-0.6-1.3-1.2-2.8-1.9-4.3c-0.7-1.5-1.4-3-2.4-4.6c-0.9-1.5-2-3-3.3-4.4c-2.5-2.9-5.1-5.4-7.4-7.8
								c-2.3-2.4-4.2-4.7-5.6-6.7c-1.4-2.1-2.3-3.9-2.7-5.2c-0.2-0.7-0.4-1.2-0.5-1.5c-0.1-0.4-0.1-0.5-0.1-0.5c0,0,0.2,0.7,0.8,2
								c0.5,1.3,1.4,3.1,2.9,5.1c1.4,2,3.4,4.3,5.7,6.6c2.3,2.4,4.9,4.8,7.4,7.8c1.2,1.5,2.4,3,3.3,4.5c0.9,1.5,1.7,3.1,2.4,4.6
								c0.7,1.5,1.3,2.9,1.9,4.3c0.6,1.3,1.2,2.5,1.8,3.7c1.1,2.2,2.3,3.9,3.3,4.7C151.3,405.4,152,405.7,152,405.8z"/>
						</g>
					</g>
				</g>
			</g>
			<g>
				<g>
					<g>
						<g>
							<path class="st7" d="M133.5,399.9c-0.1,0,0-0.9,0.3-2.4c0.3-1.5,0.7-3.5,1.4-5.7c0.6-2.2,1.3-4.2,1.8-5.6
								c0.5-1.4,0.9-2.3,1-2.2c0.1,0-0.2,0.9-0.6,2.3c-0.4,1.4-1.1,3.4-1.7,5.6c-0.6,2.2-1.1,4.2-1.5,5.6
								C133.8,399,133.6,399.9,133.5,399.9z"/>
						</g>
					</g>
				</g>
			</g>
			<g>
				<g>
					<g>
						<g>
							<path class="st7" d="M151.3,382.6c0,0.1-1-0.2-2.5-0.6c-1.5-0.4-3.7-1-6-1.5c-2.4-0.5-4.5-0.9-6.1-1.2
								c-1.6-0.3-2.5-0.5-2.5-0.6c0-0.1,1,0,2.6,0.2c1.6,0.2,3.8,0.6,6.2,1.1c2.4,0.5,4.5,1.1,6,1.6
								C150.4,382.2,151.4,382.6,151.3,382.6z"/>
						</g>
					</g>
				</g>
			</g>
			<g>
				<g>
					<g>
						<g>
							<path class="st7" d="M120.2,387.7c-0.1,0,0.1-1.1,0.4-2.8c0.3-1.7,0.8-4.1,1.5-6.6c0.7-2.6,1.4-4.9,1.9-6.5
								c0.6-1.6,1-2.6,1-2.6c0.1,0-0.2,1.1-0.7,2.7c-0.5,1.7-1.1,4-1.8,6.5c-0.7,2.6-1.2,4.9-1.6,6.6
								C120.5,386.6,120.3,387.7,120.2,387.7z"/>
						</g>
					</g>
				</g>
			</g>
			<g>
				<g>
					<g>
						<g>
							<path class="st7" d="M143.1,367.6c0,0.1-4.5-0.2-10-0.8c-5.5-0.6-10-1.2-9.9-1.3c0-0.1,4.5,0.2,10,0.8
								C138.7,366.9,143.1,367.5,143.1,367.6z"/>
						</g>
					</g>
				</g>
			</g>
		</g>
		<g>
			<g>
				<g>
					<g>
						<path class="st6" d="M139.8,421.8c0,0.1-15.7,0.2-35.1,0.2c-19.4,0-35.1-0.1-35.1-0.2c0-0.1,15.7-0.2,35.1-0.2
							C124.1,421.6,139.8,421.7,139.8,421.8z"/>
					</g>
				</g>
			</g>
		</g>
		<g>
			<g>
				<g>
					<g>
						<path class="st6" d="M128.9,442.1c0,0.1-10.6,0.2-23.7,0.2c-13.1,0-23.7-0.1-23.7-0.2c0-0.1,10.6-0.2,23.7-0.2
							C118.3,441.8,128.9,441.9,128.9,442.1z"/>
					</g>
				</g>
			</g>
		</g>
		<g>
			<g>
				<g>
					<g>
						<path class="st6" d="M128.5,445c0,0.1-10.4,0.2-23.2,0.2c-12.8,0-23.2-0.1-23.2-0.2c0-0.1,10.4-0.2,23.2-0.2
							C118.1,444.7,128.5,444.8,128.5,445z"/>
					</g>
				</g>
			</g>
		</g>
		<g>
			<g>
				<g>
					<g>
						<path class="st6" d="M129.3,439.7c0,0.1-11,0.2-24.5,0.2c-13.5,0-24.5-0.1-24.5-0.2c0-0.1,11-0.2,24.5-0.2
							C118.4,439.4,129.3,439.5,129.3,439.7z"/>
					</g>
				</g>
			</g>
		</g>
	</g>
</g>
<g id="Speech_Bubble">
	<g>
		<g>
			<g>
				<g>
					<g>
						<path class="st3" d="M657.2,190.5l11.7-4.6c4,3.3,9,5.6,14.5,6.4c16,2.3,30.7-8.9,33-24.8c2.3-16-8.9-30.7-24.8-33
							c-16-2.3-30.7,8.9-33,24.8c-0.9,6.7,0.5,13.1,3.6,18.6l0,0L657.2,190.5z"/>
					</g>
					<g>
						<g>
							<path class="st7" d="M657.2,190.5c0.3-0.8,1.8-4.7,4.8-12.7l0.1-0.2l0.1,0.1l0,0L662,178c-2.1-3.6-3.9-8.7-3.9-14.7
								c0-1.5,0.1-3.1,0.4-4.6c0.2-0.8,0.3-1.6,0.5-2.4c0.2-0.8,0.5-1.6,0.7-2.4c1.1-3.2,2.8-6.4,5.2-9.2c2.4-2.9,5.4-5.4,9-7.3
								c3.5-1.9,7.6-3.1,11.9-3.3c4.3-0.2,8.7,0.5,12.9,2.2c4.1,1.7,8,4.3,11,7.9c3.1,3.6,5.4,7.8,6.4,12.3c1.1,4.4,1.1,9,0.2,13.3
								c-0.9,4.3-2.7,8.2-5.2,11.4c-2.5,3.3-5.5,5.9-8.8,7.8c-3.3,1.9-6.7,3.1-10.1,3.6c-3.4,0.5-6.6,0.4-9.6-0.1
								c-6-1-10.6-3.7-13.8-6.4l0.1,0C661.5,188.9,658,190.2,657.2,190.5c0.8-0.3,4.3-1.7,11.6-4.7l0.1,0l0.1,0
								c3.2,2.6,7.8,5.2,13.7,6.2c2.9,0.4,6.2,0.6,9.5,0c3.3-0.6,6.7-1.7,9.9-3.6c3.2-1.9,6.2-4.4,8.6-7.7c2.4-3.2,4.2-7.1,5.1-11.3
								c0.9-4.2,0.9-8.7-0.2-13.1c-1-4.4-3.3-8.5-6.3-12.1c-3-3.5-6.8-6.1-10.9-7.8c-4.1-1.7-8.4-2.4-12.6-2.1
								c-4.2,0.2-8.2,1.4-11.7,3.3c-3.5,1.8-6.5,4.3-8.9,7.1c-2.4,2.8-4.1,5.9-5.2,9.1c-0.2,0.8-0.5,1.6-0.7,2.4
								c-0.2,0.8-0.3,1.6-0.5,2.4c-0.3,1.5-0.4,3.1-0.4,4.6c-0.1,6,1.7,11,3.8,14.6l0.5,0.8L662,178l0,0l0.2,0
								C659.1,185.9,657.5,189.7,657.2,190.5z"/>
						</g>
					</g>
				</g>
			</g>
		</g>
		<g>
			<g>
				<g>
					<g>
						<g>
							<g>
								<g>
									<path class="st8" d="M691.7,159.9l-1.7,0l-3.6-5.1l0-3.3c0,0-2.6-0.2-2.3,4.1c0.3,4.3,0,3.2,0,3.2s-5.4,0-5.9,0.4
										c-0.3,0.3-0.5,5.7-0.6,8.7c0,1.5,0.9,2.8,2.2,3.2c0.2,0.1,0.4,0.1,0.6,0.1c1.4,0,8.3-1,8.3-1l2.9,0L691.7,159.9z"/>
								</g>
							</g>
						</g>
					</g>
					<g>
						<g>
							<g>
								<g>
									<polygon class="st8" points="696.4,159 695.3,170.4 692.5,170.3 692.6,159.2 									"/>
								</g>
							</g>
						</g>
					</g>
				</g>
			</g>
		</g>
	</g>
</g>
<g id="Character_2">
	<g>
		<g>
			<g>
				<g>
					<g>
						<g>
							<g>
								<g>
									<path class="st8" d="M592.1,446.4l3.5,15.4c0,0-14.7,7.6-14.4,10.5l30.4-4.5l-4.4-24.3L592.1,446.4z"/>
								</g>
							</g>
						</g>
					</g>
					<g class="st10">
						<g>
							<g>
								<g>
									<g>
										<path class="st11" d="M604.7,458.8c0.6,0.1,1.1,0.6,1.1,1.2c0,0.6-0.6,1.2-1.2,1.1c-0.6,0-1.3-0.7-1.2-1.3
											c0.1-0.6,0.8-1.2,1.4-1"/>
									</g>
								</g>
							</g>
						</g>
					</g>
					<g class="st10">
						<g>
							<g>
								<g>
									<path class="st11" d="M611.6,467.8l-0.4-2.4l-29.2,5.4c0,0-0.9,0.6-0.9,1.8L611.6,467.8z"/>
								</g>
							</g>
						</g>
					</g>
					<g>
						<g>
							<g>
								<g>
									<g>
										<path class="st7" d="M595.1,461.7c0,0.1,0.8,0.1,1.6,0.4c0.8,0.3,1.3,0.9,1.4,0.8c0.1-0.1-0.3-0.9-1.2-1.3
											C595.9,461.3,595,461.6,595.1,461.7z"/>
									</g>
								</g>
							</g>
						</g>
					</g>
					<g>
						<g>
							<g>
								<g>
									<g>
										<path class="st7" d="M592.2,463.6c0,0.1,0.7,0.3,1.3,0.8c0.6,0.5,0.9,1.2,1,1.1c0.1,0,0.1-0.9-0.7-1.5
											C593,463.4,592.1,463.5,592.2,463.6z"/>
									</g>
								</g>
							</g>
						</g>
					</g>
					<g>
						<g>
							<g>
								<g>
									<g>
										<path class="st7" d="M591.1,467.8c0.1,0,0.2-0.8-0.3-1.5c-0.5-0.7-1.3-0.9-1.3-0.8c-0.1,0.1,0.5,0.5,0.9,1.1
											C590.8,467.2,590.9,467.8,591.1,467.8z"/>
									</g>
								</g>
							</g>
						</g>
					</g>
					<g>
						<g>
							<g>
								<g>
									<g>
										<path class="st7" d="M594.7,458.1c0.1,0.1,0.7-0.2,1.6-0.3c0.8-0.1,1.5,0,1.6-0.1c0.1-0.1-0.7-0.6-1.7-0.4
											C595.2,457.4,594.6,458,594.7,458.1z"/>
									</g>
								</g>
							</g>
						</g>
					</g>
				</g>
				<g>
					<g>
						<g>
							<g>
								<g>
									<path class="st7" d="M594,455c0,0.1,0.6,0,1.5-0.3c0.4-0.2,1-0.4,1.5-0.8c0.3-0.2,0.5-0.4,0.8-0.6c0.1-0.1,0.3-0.2,0.4-0.4
										c0.1-0.2,0.2-0.6-0.1-0.8c-0.2-0.2-0.5-0.3-0.7-0.2c-0.2,0-0.4,0.1-0.6,0.2c-0.3,0.1-0.6,0.3-0.9,0.5
										c-0.5,0.4-0.9,0.8-1.2,1.2c-0.6,0.8-0.7,1.4-0.7,1.4c0.1,0,0.3-0.5,0.9-1.2c0.3-0.3,0.7-0.7,1.2-1c0.3-0.2,0.5-0.3,0.8-0.4
										c0.3-0.1,0.6-0.2,0.7-0.1c0,0,0,0.1,0,0.2c-0.1,0.1-0.2,0.2-0.3,0.3c-0.2,0.2-0.5,0.4-0.7,0.6c-0.5,0.4-0.9,0.6-1.4,0.8
										C594.6,454.8,594,454.9,594,455z"/>
								</g>
							</g>
						</g>
					</g>
				</g>
				<g>
					<g>
						<g>
							<g>
								<g>
									<path class="st7" d="M594.3,455.2c0.1,0,0.3-0.6,0.1-1.5c-0.1-0.5-0.2-1-0.5-1.6c-0.1-0.3-0.3-0.6-0.6-0.8
										c-0.2-0.3-0.5-0.6-1.1-0.6c-0.3,0-0.5,0.3-0.6,0.5c-0.1,0.2,0,0.4-0.1,0.6c0,0.4,0.1,0.7,0.2,1c0.2,0.6,0.6,1.1,0.9,1.4
										c0.7,0.7,1.4,0.7,1.4,0.7c0-0.1-0.5-0.3-1.1-0.9c-0.3-0.3-0.6-0.8-0.7-1.3c-0.1-0.3-0.1-0.6-0.1-0.9c0-0.3,0.1-0.6,0.2-0.6
										c0.1,0,0.4,0.2,0.6,0.4c0.2,0.2,0.4,0.5,0.5,0.7c0.3,0.5,0.5,1,0.6,1.5C594.2,454.6,594.2,455.2,594.3,455.2z"/>
								</g>
							</g>
						</g>
					</g>
				</g>
			</g>
			<g>
				<polygon class="st12" points="591.6,441.4 592.7,446.2 606.9,443.6 606.4,439.7 				"/>
			</g>
		</g>
		<g>
			<g>
				<g>
					<g>
						<g>
							<g>
								<g>
									<path class="st8" d="M624.4,446.5l1.4,15.8c0,0-15.6,5.6-15.6,8.5l30.7-0.5l-1.2-24.7L624.4,446.5z"/>
								</g>
							</g>
						</g>
					</g>
					<g class="st10">
						<g>
							<g>
								<g>
									<g>
										<path class="st11" d="M635.2,460.4c0.6,0.1,1,0.8,0.9,1.4c-0.1,0.6-0.8,1.1-1.4,0.9c-0.6-0.1-1.2-0.9-1-1.5
											c0.2-0.6,1-1.1,1.5-0.8"/>
									</g>
								</g>
							</g>
						</g>
					</g>
					<g class="st10">
						<g>
							<g>
								<g>
									<path class="st11" d="M640.9,470.3l-0.1-2.5l-29.6,1.5c0,0-1,0.4-1.1,1.7L640.9,470.3z"/>
								</g>
							</g>
						</g>
					</g>
					<g>
						<g>
							<g>
								<g>
									<g>
										<path class="st7" d="M625.3,462.1c0,0.1,0.8,0.2,1.5,0.6c0.8,0.4,1.2,1,1.3,1c0.1,0-0.1-0.9-1.1-1.4
											C626.2,461.8,625.3,462,625.3,462.1z"/>
									</g>
								</g>
							</g>
						</g>
					</g>
					<g>
						<g>
							<g>
								<g>
									<g>
										<path class="st7" d="M622.2,463.6c0,0.1,0.6,0.4,1.2,1c0.6,0.6,0.7,1.3,0.9,1.3c0.1,0,0.2-0.9-0.5-1.6
											C623.1,463.5,622.2,463.5,622.2,463.6z"/>
									</g>
								</g>
							</g>
						</g>
					</g>
					<g>
						<g>
							<g>
								<g>
									<g>
										<path class="st7" d="M620.6,467.6c0.1,0,0.3-0.7-0.1-1.5c-0.4-0.8-1.1-1.1-1.2-1c-0.1,0.1,0.4,0.5,0.7,1.2
											C620.3,467,620.4,467.6,620.6,467.6z"/>
									</g>
								</g>
							</g>
						</g>
					</g>
					<g>
						<g>
							<g>
								<g>
									<g>
										<path class="st7" d="M625.4,458.5c0.1,0.1,0.7-0.1,1.6-0.1c0.8,0,1.5,0.2,1.6,0.1c0.1-0.1-0.6-0.6-1.6-0.6
											C626,457.9,625.3,458.4,625.4,458.5z"/>
									</g>
								</g>
							</g>
						</g>
					</g>
				</g>
				<g>
					<g>
						<g>
							<g>
								<g>
									<path class="st7" d="M625.2,455.3c0,0.1,0.6,0.1,1.5-0.1c0.5-0.1,1-0.3,1.6-0.6c0.3-0.1,0.6-0.3,0.9-0.5
										c0.1-0.1,0.3-0.2,0.4-0.4c0.2-0.2,0.2-0.6,0-0.8c-0.2-0.2-0.5-0.3-0.7-0.3c-0.2,0-0.4,0.1-0.6,0.1
										c-0.3,0.1-0.7,0.2-0.9,0.4c-0.6,0.3-1,0.7-1.4,1c-0.7,0.7-0.9,1.3-0.8,1.3c0.1,0,0.4-0.4,1.1-1c0.3-0.3,0.8-0.6,1.3-0.8
										c0.3-0.1,0.6-0.2,0.9-0.3c0.3-0.1,0.6-0.1,0.7,0c0,0.1,0,0.1,0,0.2c-0.1,0.1-0.2,0.2-0.3,0.3c-0.3,0.2-0.5,0.4-0.8,0.5
										c-0.5,0.3-1,0.5-1.5,0.7C625.7,455.2,625.2,455.2,625.2,455.3z"/>
								</g>
							</g>
						</g>
					</g>
				</g>
				<g>
					<g>
						<g>
							<g>
								<g>
									<path class="st7" d="M625.4,455.5c0.1,0,0.3-0.5,0.3-1.5c0-0.5-0.1-1.1-0.3-1.7c-0.1-0.3-0.3-0.6-0.4-0.9
										c-0.2-0.3-0.4-0.7-1-0.7c-0.3,0-0.5,0.3-0.6,0.5c-0.1,0.2-0.1,0.4-0.1,0.6c0,0.4,0,0.7,0.1,1c0.1,0.6,0.4,1.2,0.7,1.6
										c0.6,0.8,1.3,0.9,1.3,0.9c0-0.1-0.5-0.3-1-1.1c-0.2-0.4-0.5-0.8-0.6-1.4c0-0.3-0.1-0.6,0-0.9c0-0.3,0.1-0.6,0.3-0.6
										c0.2,0,0.4,0.2,0.6,0.5c0.2,0.3,0.3,0.5,0.4,0.8c0.2,0.5,0.3,1.1,0.4,1.5C625.4,454.9,625.3,455.5,625.4,455.5z"/>
								</g>
							</g>
						</g>
					</g>
				</g>
			</g>
			<g>
				<polygon class="st12" points="624.5,441.5 625,446.5 639.4,445.6 639.4,441.8 				"/>
			</g>
		</g>
		<path class="st8" d="M580.4,260.2c3.7,20.8-7.5,41.5-7.3,62.6c0,1,0.1,2,0.5,2.9c0.5,0.9,1.5,1.5,2.5,1.2c0.7-0.2,1.1-0.8,1.5-1.4
			c3.2-4.8,6.4-9.6,8.1-15.1c1.9-6.1,1.7-12.5,1.6-18.8c-0.3-11.5-0.5-22.9-0.8-34.4"/>
		<g>
			<path class="st7" d="M582.6,304.6c0,0-15.6,72.3-14.5,78.7l25.2,76.2h18.7c0,0-9.9-69.9-13-77.5l16-65.9l-3-10.4L582.6,304.6z"/>
			<path class="st7" d="M636.6,364.2l6.8-50.8l-47.7-2.3l26.8,148.4H642c0,0,5-61.9-0.9-77.5C635.3,366.5,636.6,364.2,636.6,364.2z"
				/>
			<g>
				<path class="st6" d="M622.5,459.5c0,0,0-0.1-0.1-0.3c-0.1-0.2-0.1-0.6-0.2-0.9c-0.2-0.9-0.4-2.1-0.7-3.7
					c-0.6-3.2-1.5-7.8-2.6-13.5c-2.2-11.4-5.2-27.1-8.2-44.5c-3-17.4-5.4-33.2-6.7-44.7c-0.3-2.9-0.6-5.5-0.8-7.8
					c-0.2-2.3-0.4-4.3-0.5-5.9c-0.1-1.6-0.2-2.8-0.3-3.7c0-0.4,0-0.7-0.1-1c0-0.2,0-0.3,0-0.3c0,0,0,0.1,0.1,0.3
					c0,0.2,0.1,0.6,0.1,1c0.1,0.9,0.2,2.1,0.4,3.7c0.1,1.6,0.4,3.6,0.6,5.9c0.2,2.3,0.5,4.9,0.9,7.8c1.4,11.5,3.8,27.3,6.8,44.7
					c3,17.4,6,33.1,8.1,44.5c1,5.7,1.8,10.3,2.4,13.5c0.3,1.6,0.5,2.8,0.6,3.7c0.1,0.4,0.1,0.7,0.1,1
					C622.5,459.4,622.5,459.5,622.5,459.5z"/>
			</g>
		</g>
		<g>
			<g>
				<g>
					<g>
						<g>
							<g>
								<path class="st7" d="M628.9,188.4c3.3,0.9,7,0.2,9.7-1.9c2.7-2.1,4.3-5.5,4.2-8.9c-0.1-3.2-1.5-6.4-0.5-9.4
									c0.7-2.1,2.4-3.7,3-5.8c0.9-3.1-1-6.3-2.8-9c-1.2-1.7-2.4-3.5-4-4.8c-1.6-1.3-3.8-2.2-5.8-1.7"/>
							</g>
						</g>
						<g>
							<g>
								<g>
									<path class="st7" d="M599.6,147c0.2,2.4-1.4,4.5-3,6.3c-1.6,1.8-3.4,3.7-3.7,6.1c-0.6,4.2,3.5,8.1,2.7,12.3
										c-0.5,2.2-2.3,4-2.6,6.3c-0.3,2.2,0.9,4.3,2.3,6c1.5,1.7,3.2,3.1,4.5,4.9c0,0,2.7,4.4,10.9,1.6"/>
								</g>
							</g>
							<g>
								<g>
									<path class="st7" d="M636.5,150.7c0.1-2.2-2-3.9-4-4.7c-2-0.8-4.3-1.1-6.1-2.3c-1.6-1.1-2.7-2.8-4-4.1
										c-3.3-3.4-8.5-4.8-13.1-3.5c-4.6,1.2-8.3,5.1-9.5,9.7c-0.8,3.1-0.2,6.8,2.2,8.8c2.8,2.4,7,1.9,10.7,1.1
										c3.6-0.7,7.7-1.5,10.8,0.7c1.8,1.3,2.9,3.4,4,5.3c1.1,1.9,2.5,3.9,4.6,4.6c2.1,0.7,5-0.5,5.1-2.8"/>
								</g>
							</g>
							<g>
								<g>
									<g>
										<g>
											<g>
												<g>
													<g>
														<g>
															<g>
																<g>
																	<g>
																		<g>
																			<g>
																				<g>
																					<g>
																						<path class="st13" d="M627.9,151.1c1.9,0.2,3.3,1.8,3.3,3.7l0,0l-2.2,49.2c-0.1,5.8-8.6,9.1-14.8,8.9l0,0
																							c-6.3-0.1-6.5-3.2-6.6-8.8c-0.1-9.2-0.1-12.7-0.1-12.7c0,0-7.9-1.3-9.6-11.7c-0.8-5.2-0.5-13.6-0.1-20.5
																							c0.4-6.2,4.5-13.8,10.7-13.2L627.9,151.1z"/>
																					</g>
																				</g>
																			</g>
																		</g>
																	</g>
																</g>
															</g>
														</g>
														<g>
															<g>
																<g>
																	<g>
																		<g>
																			<g>
																				<g>
																					<g>
																						<g>
																							<path class="st7" d="M599.9,166.5c0,0.7,0.5,1.3,1.3,1.3c0.7,0,1.3-0.5,1.4-1.2c0-0.7-0.5-1.3-1.3-1.3
																								C600.6,165.2,600,165.8,599.9,166.5z"/>
																						</g>
																					</g>
																				</g>
																			</g>
																		</g>
																	</g>
																</g>
															</g>
															<g>
																<g>
																	<g>
																		<g>
																			<g>
																				<g>
																					<g>
																						<g>
																							<g>
																								<path class="st7" d="M599.6,163.1c0.2,0.2,1.2-0.6,2.6-0.6c1.4,0,2.5,0.7,2.6,0.5c0.1-0.1-0.1-0.4-0.5-0.7
																									c-0.4-0.3-1.2-0.7-2.1-0.7c-0.9,0-1.6,0.3-2.1,0.7C599.7,162.7,599.6,163,599.6,163.1z"/>
																							</g>
																						</g>
																					</g>
																				</g>
																			</g>
																		</g>
																	</g>
																</g>
															</g>
														</g>
														<g>
															<g>
																<g>
																	<g>
																		<g>
																			<g>
																				<g>
																					<g>
																						<g>
																							<g>
																								<path class="st7" d="M613.1,166.6c0.2,0.2,1.2-0.6,2.6-0.6c1.4,0,2.5,0.7,2.6,0.5c0.1-0.1-0.1-0.4-0.5-0.7
																									c-0.4-0.3-1.2-0.7-2.1-0.7c-0.9,0-1.6,0.3-2.1,0.7C613.1,166.3,613,166.6,613.1,166.6z"/>
																							</g>
																						</g>
																					</g>
																				</g>
																			</g>
																		</g>
																	</g>
																</g>
															</g>
														</g>
														<g>
															<g>
																<g>
																	<g>
																		<g>
																			<g>
																				<g>
																					<g>
																						<g>
																							<path class="st7" d="M608.5,174.7c0-0.1-0.9-0.2-2.3-0.4c-0.4,0-0.7-0.1-0.8-0.4c-0.1-0.3,0.1-0.7,0.2-1.1
																								c0.3-0.9,0.7-1.8,1.1-2.8c1.5-4,2.6-7.2,2.4-7.3c-0.2-0.1-1.5,3.1-3,7.1c-0.4,1-0.7,1.9-1,2.8
																								c-0.1,0.4-0.4,0.9-0.2,1.4c0.1,0.3,0.4,0.5,0.6,0.5c0.2,0.1,0.4,0.1,0.6,0.1
																								C607.6,174.7,608.5,174.7,608.5,174.7z"/>
																						</g>
																					</g>
																				</g>
																			</g>
																		</g>
																	</g>
																</g>
															</g>
														</g>
														<g>
															<g>
																<g>
																	<g>
																		<g>
																			<g>
																				<g>
																					<g>
																						<path class="st14" d="M607.5,191.6c0,0,7,0.5,13.9-3.7c0,0-3.5,7.1-13.9,6.1V191.6z"/>
																					</g>
																				</g>
																			</g>
																		</g>
																	</g>
																</g>
															</g>
														</g>
													</g>
												</g>
											</g>
											<g>
												<g>
													<g>
														<g>
															<g>
																<g>
																	<g>
																		<g>
																			<path class="st7" d="M613.1,161.6c0.1,0.4,1.6,0.2,3.2,0.4c1.7,0.2,3,0.7,3.3,0.3c0.1-0.2-0.1-0.5-0.7-0.9
																				c-0.5-0.4-1.4-0.7-2.4-0.9c-1-0.1-1.9,0-2.5,0.3C613.3,161.1,613,161.4,613.1,161.6z"/>
																		</g>
																	</g>
																</g>
															</g>
														</g>
													</g>
												</g>
											</g>
											<g>
												<g>
													<g>
														<g>
															<g>
																<g>
																	<g>
																		<g>
																			<path class="st7" d="M600.2,159.6c0.3,0.3,1.2,0,2.4,0c1.2-0.1,2.2,0.2,2.4-0.1c0.1-0.2-0.1-0.5-0.5-0.8
																				c-0.4-0.3-1.2-0.6-2-0.5c-0.8,0-1.5,0.3-1.9,0.6C600.2,159.1,600.1,159.5,600.2,159.6z"/>
																		</g>
																	</g>
																</g>
															</g>
														</g>
													</g>
												</g>
											</g>
										</g>
									</g>
								</g>
							</g>
							<g>
								<g>
									<path class="st7" d="M635.1,185.2c-2.8,0.6-6-0.3-8.1-2.3c-2.1-2-3.2-5-2.9-7.9c0.3-2.5,1.7-5.1,0.8-7.5
										c-1.2-3.2-5.6-4.2-6.8-7.3c-0.7-1.8-0.1-4-0.9-5.8c-0.7-1.7-2.5-2.7-4.3-3.3c-1.7-0.6-3.6-1.1-5.1-2.2
										c-1.5-1.1-2.4-3.3-1.4-4.9c7.7,0.9,15.3,2.8,22.6,5.5c1.7,0.6,3.5,1.4,4.5,2.9c1.1,1.6,1,3.6,0.9,5.6
										c-0.4,9.3-0.9,18.6-1.3,27.9"/>
								</g>
							</g>
						</g>
						<g>
							<g>
								<g>
									<path class="st6" d="M640.6,151.6c0,0,0.1,0.1,0.2,0.4c0.1,0.3,0,0.8-0.4,1.2c-0.4,0.4-1,0.9-1.9,0.9
										c-0.9,0-1.7-0.4-2.6-0.8c-0.9-0.4-1.9-0.8-3-0.9c-1.1-0.1-2.4,0.1-3.7,0.3c-1.3,0.2-2.7,0.5-4.1,0.5
										c-1.5,0-3.1-0.4-4.2-1.5c-1.2-1.1-1.8-2.5-2.4-3.8c-0.6-1.3-1.2-2.5-2-3.6c-1.5-2.1-4.1-2.7-6-2.2c-1.9,0.5-3,1.8-3.6,2.7
										c-0.6,0.9-0.7,1.6-0.8,1.5c0,0,0-0.2,0.1-0.4c0.1-0.3,0.2-0.7,0.5-1.2c0.5-1,1.7-2.4,3.7-2.9c1-0.3,2.2-0.3,3.3,0.1
										c1.2,0.3,2.3,1.1,3.1,2.2c0.8,1.1,1.4,2.3,2.1,3.6c0.6,1.3,1.3,2.6,2.3,3.6c1,1,2.5,1.4,3.9,1.4c1.4,0,2.7-0.3,4.1-0.5
										c1.3-0.2,2.6-0.4,3.8-0.3c1.2,0.1,2.3,0.5,3.2,1c0.9,0.5,1.7,0.8,2.5,0.8c0.7,0,1.4-0.4,1.7-0.8c0.4-0.4,0.5-0.8,0.4-1.1
										C640.6,151.7,640.6,151.6,640.6,151.6z"/>
								</g>
							</g>
						</g>
					</g>
					<g>
						<g>
							<g>
								<path class="st6" d="M630.1,145.6c0,0,0,0.1-0.1,0.3c-0.1,0.2-0.3,0.4-0.7,0.7c-0.7,0.5-1.9,1-3.4,0.8
									c-1.5-0.2-3.1-1.3-4.5-2.7c-1.4-1.4-2.7-3.1-4.6-4.2c-1.9-1.1-4.1-1.2-5.9-0.8c-1.8,0.5-3.3,1.6-4.2,2.7
									c-0.9,1.1-1.4,2.2-1.6,3c-0.2,0.8-0.3,1.2-0.3,1.2c0,0,0-0.1,0-0.3c0-0.2,0-0.5,0.1-0.9c0.2-0.8,0.6-2,1.5-3.2
									c0.9-1.2,2.4-2.4,4.3-2.9c1.9-0.5,4.3-0.4,6.3,0.8c2,1.2,3.3,3,4.7,4.3c1.3,1.4,2.8,2.4,4.2,2.6c1.4,0.3,2.6-0.1,3.2-0.6
									C629.9,146,630.1,145.6,630.1,145.6z"/>
							</g>
						</g>
					</g>
				</g>
				<g>
					<g>
						<g>
							<path class="st6" d="M629.7,189.7c0,0,0.2,0.1,0.5,0.1c0.3,0.1,0.8,0.1,1.4,0.1c1.2,0,3-0.2,4.9-1.1c1.9-0.9,4-2.7,5.2-5.3
								c1.3-2.5,1.7-5.8,0.9-9c-0.4-1.6-0.8-3.1-0.9-4.5c-0.1-1.5,0.4-2.8,1-4c0.7-1.2,1.3-2.4,1.6-3.7c0.3-1.2,0.3-2.5,0.1-3.5
								c-0.4-2.1-1.4-3.7-2.1-4.5c-0.4-0.5-0.7-0.8-1-0.9c-0.3-0.2-0.4-0.3-0.4-0.3c0,0,0.5,0.4,1.2,1.4c0.7,0.9,1.6,2.4,1.9,4.5
								c0.1,1,0.1,2.2-0.2,3.3c-0.3,1.2-0.9,2.3-1.6,3.5c-0.3,0.6-0.7,1.3-0.9,2c-0.2,0.7-0.3,1.5-0.3,2.3c0.1,1.6,0.6,3.1,0.9,4.7
								c0.8,3.1,0.4,6.2-0.8,8.6c-1.2,2.5-3.1,4.2-4.9,5.1c-1.8,1-3.6,1.2-4.7,1.3C630.3,189.7,629.7,189.6,629.7,189.7z"/>
						</g>
					</g>
				</g>
				<g>
					<g>
						<g>
							<g>
								<path class="st14" d="M607.8,179.1c0.2,0.6,0.5,1.2,0.9,1.7c0.4,0.5,1,0.9,1.6,1c0.7,0,1.4-0.4,1.8-1c0.4-0.6,0.5-1.3,0.5-2
									c0-0.6-0.3-1.4-0.9-1.5c-0.3,0-0.5,0.1-0.8,0.2c-1.1,0.4-2.2,0.9-3.3,1.3"/>
							</g>
						</g>
					</g>
					<g>
						<g>
							<g>
								<g>
									<path class="st7" d="M609.1,181.8c0-0.1,0.7,0.2,1.8-0.2c0.5-0.2,1-0.6,1.3-1.2c0.3-0.6,0.4-1.4,0-2.2
										c-0.1-0.2-0.2-0.3-0.3-0.5c-0.1-0.1-0.1-0.1-0.2-0.1c-0.1,0-0.4,0.1-0.5,0.2c-0.2,0.1-0.4,0.1-0.5,0.2
										c-0.7,0.3-1.3,0.5-1.9,0.7c-1.1,0.4-1.8,0.6-1.8,0.5c0-0.1,0.6-0.4,1.6-0.9c0.5-0.3,1.1-0.5,1.8-0.9
										c0.2-0.1,0.4-0.2,0.5-0.2c0.2-0.1,0.3-0.2,0.6-0.2c0.1,0,0.3-0.1,0.5,0c0.2,0.1,0.3,0.2,0.4,0.3c0.1,0.2,0.3,0.4,0.4,0.6
										c0.4,0.9,0.3,1.9-0.1,2.6c-0.4,0.8-1.1,1.2-1.7,1.4c-0.6,0.2-1.1,0.1-1.4,0.1C609.3,182,609.1,181.9,609.1,181.8z"/>
								</g>
							</g>
						</g>
					</g>
				</g>
			</g>
			<path class="st7" d="M631.7,147.3c-1.4-3.4,0-7.6,3-9.8c2.9-2.2,7.1-2.4,10.5-0.9c3.4,1.5,5.9,4.5,7.3,7.9
				c0.8,1.9,1.2,4.1,0.8,6.1c-0.4,2-1.8,3.9-3.8,4.6c1,1.5-0.1,3.8-1.9,4.5c-1.7,0.7-3.7,0.2-5.3-0.6c-4.6-2.1-8.1-6.3-9.4-11.1"/>
		</g>
		<path class="st0" d="M607.6,199.1c0,0-15.2,19.5-23.9,33.1c-2.1,3.3-3.6,19.9-1.2,25c2.4,5.1,1.5,16.9,1.7,20.8
			c0.2,3.9-7.6,19.4-1.7,26.6l29.3,1.2l30.2-15.6l-8.9-28.6l4.5-40.2l-5.8-25.4L607.6,199.1z"/>
		<path class="st8" d="M628.7,197.1c-0.7-0.2-6.2,0.5-8.8,2.5c-2.6,2-34.2,36.3-34.2,36.3s-3.1,1.7-3.1,5c0,3.2-1,21.9,6,20.4
			c6.9-1.5,6.9-3.2,6.9-3.2s5,1.7,7.2-0.2c2.2-2,3-3.2,3-3.2l16.2-0.7c0,0,19.6-11.4,19.4-24.6C640.9,216,638.1,200.1,628.7,197.1z"
			/>
		<path class="st8" d="M637,197.6c0,0,12.5,27.3,10.1,35c-2.4,7.7-8.4,43.5-8.4,43.5s4.8,11.7,7.4,20.4c2.6,8.7-5,49.7-5,49.7
			s-20.3-13.7-27-14.9c-6.7-1.2-27,7.5-27,7.5V308l1.4-46.7c0,0,2.1-30,5.6-35c3.7-5.4,21.9-29.2,21.9-29.2l14-6l1.4,3.5L637,197.6z
			"/>
		<g>
			<path class="st7" d="M570.1,177.9l0.1-4.8h13.4l0.6,1.2c0,0,3.4,1,3.7,3.3c0.2,2.3,0,14.4,0,14.4l-14.3,1.5L570.1,177.9z"/>
			<path class="st7" d="M554.6,178.9l17.1-1.3c0,0,4.9,3.9,4.8,10c-0.1,6.1-4.8,6.6-4.8,6.6l-16.8,1.1
				C554.9,195.2,558.7,185.9,554.6,178.9z"/>
			<path class="st7" d="M542.7,177.6c0,0,0.8-0.8,2.9-0.8c1.6,0,8.9,0,8.9,0s3.8,3.4,3,11.7c-0.8,8.3-3.2,8.5-3.2,8.5h-8.4
				c-0.8,0-1.2-1-0.7-1.6c0.7-0.8,1.6-1.7,2.6-1.9c0,0-3.1-2-3.2-5.8c-0.1-3.8,2.8-6,2.8-6S542.1,179.1,542.7,177.6z"/>
			<path class="st6" d="M551.7,180c-1.4,2.1-2.2,4.7-2.1,7.3c0.1,2.6,1.1,5.1,2.7,7.1c1.7-4.7,1.6-9.8-0.6-14.2"/>
			<path class="st13" d="M556.3,195.3c0,0,0.3,2.9,1.7,2.7c1.4-0.2,4.7,0,4.7,0s4.9,2.2,7.3,2.5c2.4,0.4,7.8,1.6,7.8,1.6
				s-0.3,8.7-0.9,11.4c-0.5,2.7-8,32.1-5.8,39.5c2.3,7.4,5.8,7.1,5.8,7.1c2.6,1.8,5.6,1.8,8.8,0.4c-3.7-1.8-5.1-21.8,0.8-25.7
				c0,0,3.1-35.6-0.6-39.8c-3.7-4.2-17.2-17.2-18.1-17.4c-0.9-0.2-4.2,0-1.4,4c2.8,4,5.2,7.6,3.3,9.6S556.3,195.3,556.3,195.3z"/>
			<path class="st13" d="M561.4,197.9c0,0,4.6,6.3,4.9,7.5c0.3,1.2-1.8,30-2.5,35.1c-0.7,5.1,1.8,13.9,6.3,16.7
				c2.4,1.5,14.1,2.2,14.1,2.2l-5.6-60.5L561.4,197.9z"/>
			<g>
				<path class="st14" d="M556.3,195.3c0,0,0,0.3,0.1,0.8c0.1,0.5,0.5,1.2,1.3,1.8l0,0c1.2,0,2.8,0,4.6,0h0l0,0
					c3.9,0.9,9.1,2.1,15.3,3.5l0.1,0l0,0.1c0.1,0.3,0.3,0.7,0.4,1l0,0l0,0c0.2,3.4-0.2,7.1-1.1,10.9c-0.8,3.8-1.9,7.7-3,11.8
					c-1.6,6.4-2.5,12.6-3,18.3c-0.2,2.8-0.5,5.5-0.1,8c0.3,2.5,1.4,4.7,2.9,6.2c1.5,1.5,3.2,2.5,4.8,3c1.6,0.5,3.1,0.5,4.3,0.4
					c2.4-0.3,3.6-1,3.6-1c0,0-0.3,0.2-0.9,0.4c-0.6,0.2-1.5,0.6-2.7,0.7c-1.2,0.2-2.7,0.2-4.4-0.3c-1.7-0.5-3.5-1.4-5-3
					c-1.5-1.6-2.7-3.8-3-6.4c-0.4-2.6-0.2-5.3,0-8.1c0.5-5.7,1.4-11.9,3-18.3c1-4.1,2.2-8,3-11.8c0.8-3.8,1.2-7.4,1.1-10.8l0,0.1
					c-0.2-0.4-0.3-0.7-0.4-1l0.2,0.1c-6.2-1.5-11.4-2.7-15.3-3.7l0,0c-1.8,0-3.4-0.1-4.6-0.1l0,0l0,0c-0.8-0.6-1.2-1.4-1.3-1.9
					C556.2,195.5,556.3,195.3,556.3,195.3z"/>
			</g>
			<path class="st7" d="M551.3,196.8c-1-1-1-2.8-0.4-4.1c0.7-1.3,1.8-2.3,3-3.2c-1.6-0.1-3-1.4-3.2-2.9c-0.2-1.6,0.9-3.2,2.4-3.6
				c-1.4-0.7-2.7-1.7-3.6-2.9c-0.3-0.3-0.5-0.7-0.6-1.1c-0.1-0.4,0.1-0.9,0.4-1.1l5.7,1.7l0.7,8.3l-1.3,4.8l-1.2,3.3L551.3,196.8z"
				/>
			<g>
				<path class="st6" d="M554.6,177c0,0,0.2,0.2,0.5,0.6c0.3,0.4,0.7,1.1,1.1,1.9c0.4,0.8,0.8,1.9,1.1,3.1c0.3,1.2,0.5,2.5,0.6,4
					c0,1.4-0.1,2.8-0.3,4c-0.2,1.2-0.5,2.3-0.9,3.1c-0.3,0.9-0.7,1.5-1,2c-0.3,0.4-0.4,0.7-0.5,0.7c-0.1,0,0.5-1,1.1-2.8
					c0.6-1.7,1.1-4.2,1-7c-0.1-2.8-0.8-5.2-1.5-6.9C555.1,178,554.5,177.1,554.6,177z"/>
			</g>
			<g>
				<path class="st6" d="M551.8,195.3c0,0-0.2,0-0.5-0.3c-0.3-0.2-0.6-0.7-0.6-1.4c-0.1-0.7,0.2-1.5,0.7-2.2
					c0.6-0.7,1.4-1.3,2.3-1.9l0.1,0.4c-1.4-0.1-2.9-1.1-3.4-2.7c-0.3-1-0.1-2,0.4-2.8c0.5-0.8,1.2-1.4,2-1.7l0,0.4
					c-1.9-0.6-2.9-2.2-3.3-3.2c-0.4-1-0.5-1.7-0.4-1.7c0.1,0,0.2,0.6,0.7,1.6c0.5,0.9,1.4,2.3,3.2,2.9l0.6,0.2l-0.6,0.2
					c-0.7,0.3-1.3,0.8-1.7,1.5c-0.4,0.7-0.6,1.6-0.3,2.4c0.5,1.3,1.8,2.2,3,2.4l0.7,0.1l-0.6,0.4c-0.9,0.6-1.7,1.1-2.2,1.8
					c-0.6,0.6-0.8,1.4-0.8,2c0,0.6,0.2,1.1,0.4,1.3C551.7,195.1,551.8,195.2,551.8,195.3z"/>
			</g>
			<g>
				<path class="st6" d="M576.8,185.3c-0.2,0-0.5-2.1-2-4.3c-1.4-2.2-3.2-3.3-3.2-3.5c0-0.1,2.1,0.9,3.6,3.2
					C576.8,183.1,576.9,185.3,576.8,185.3z"/>
			</g>
			<g>
				<path class="st6" d="M585.3,174.7c0,0.1-3.3,0.1-7.5,0.2c-2,0.1-3.9,0.2-5.2,0.2c-0.6,0.1-1.1,0.3-1.3,0.6
					c-0.2,0.3-0.2,0.5-0.3,0.5c0,0-0.1-0.2,0.1-0.6c0.2-0.4,0.7-0.8,1.4-0.9c1.4-0.2,3.2-0.3,5.3-0.4c2.1-0.1,3.9,0,5.3,0
					C584.4,174.5,585.3,174.6,585.3,174.7z"/>
			</g>
			<g>
				<path class="st6" d="M581,189.8c-0.1,0-0.5-3.1-0.9-6.9c-0.3-3.8-0.5-7-0.3-7c0.1,0,0.5,3.1,0.9,6.9
					C581,186.7,581.2,189.8,581,189.8z"/>
			</g>
		</g>
		<g>
			<path class="st7" d="M586.3,235.2c0,0-0.3,0.1-0.7,0.4c-0.5,0.3-1,0.9-1.5,1.7c-0.4,0.9-0.7,2-0.9,3.3c-0.2,1.3-0.3,2.8-0.4,4.3
				c-0.1,3,0.1,5.8,0.3,7.8c0.2,2,0.5,3.2,0.4,3.2c0,0-0.1-0.3-0.3-0.8c-0.1-0.5-0.3-1.3-0.5-2.3c-0.3-2-0.6-4.8-0.5-7.9
				c0.1-1.5,0.2-3,0.4-4.3c0.2-1.3,0.5-2.5,1-3.4c0.5-0.9,1.2-1.5,1.7-1.7C586,235.2,586.3,235.2,586.3,235.2z"/>
		</g>
		<g>
			<path class="st8" d="M607.5,196.4l-1.3,1.6l-1.1,2.9c0,0-11.9,10.5-15.1,22.3l17.7-22.9L607.5,196.4z"/>
			<g>
				<path class="st7" d="M631.9,201.4c0,0.1-0.8-0.3-2.2-0.4c-1.4-0.1-3.6,0.1-5.9,1.2c-2.4,1.1-4.9,3-7.6,5
					c-2.8,2.1-5.7,4.5-8.7,7.2c-5.9,5.3-10.9,10.6-14.5,14.4c-1.8,1.9-3.2,3.4-4.3,4.5c-0.5,0.5-0.9,0.9-1.2,1.2
					c-0.3,0.3-0.4,0.4-0.4,0.4c0,0,0.1-0.2,0.4-0.5c0.3-0.3,0.7-0.8,1.1-1.3c1-1.1,2.4-2.7,4.2-4.6c3.6-3.9,8.5-9.2,14.5-14.5
					c3-2.7,5.9-5.1,8.7-7.2c2.8-2,5.3-3.9,7.8-5c2.4-1.1,4.6-1.3,6.1-1.1c0.7,0.1,1.3,0.2,1.7,0.4
					C631.7,201.3,631.9,201.4,631.9,201.4z"/>
			</g>
			<g>
				<path class="st7" d="M632,195.3c0,0.1-0.9,0.6-2.5,1.3c-1.6,0.8-3.8,1.8-6.3,2.9c-1.7,0.7-3.2,1.4-4.6,2l-0.2,0.1l-0.1-0.2
					c-0.7-1.2-1.3-2.3-1.7-3c-0.4-0.7-0.6-1.2-0.6-1.2c0,0,0.3,0.4,0.8,1.1c0.5,0.7,1.1,1.7,1.9,2.9l-0.3-0.1
					c1.4-0.6,2.9-1.3,4.6-2.1c2.5-1.1,4.7-2.1,6.3-2.8C631,195.6,632,195.3,632,195.3z"/>
			</g>
			<g>
				<path class="st7" d="M593.5,257.3c0,0-0.3-0.2-0.7-0.6c-0.5-0.4-1.1-1.1-1.8-2c-0.7-0.9-1.4-2-2.1-3.3c-0.7-1.3-1.3-2.8-1.8-4.5
					c-0.5-1.6-0.7-3.3-0.9-4.7c-0.1-1.5-0.1-2.8,0-3.9c0.1-1.1,0.3-2,0.4-2.6c0.2-0.6,0.3-0.9,0.3-0.9c0.1,0-0.2,1.4-0.4,3.6
					c-0.1,1.1-0.1,2.4,0.1,3.9c0.2,1.4,0.4,3,0.9,4.6c0.5,1.6,1.1,3.1,1.7,4.4c0.7,1.3,1.3,2.4,2,3.3
					C592.6,256.3,593.5,257.3,593.5,257.3z"/>
			</g>
			<g>
				<path class="st7" d="M603.9,253.3c0,0.1-0.8-0.1-1.9-0.6c-1.1-0.5-2.6-1.4-4-2.7c-1.4-1.3-2.4-2.7-3-3.8
					c-0.6-1.1-0.8-1.8-0.8-1.8c0.1-0.1,1.4,2.8,4.1,5.2C601.1,252.2,604,253.2,603.9,253.3z"/>
			</g>
			<g>
				<path class="st7" d="M641.6,228.2c0,0,0,0.3,0,0.8c0,0.5-0.1,1.3-0.2,2.2c-0.3,1.9-0.9,4.7-2.5,7.8c-1.6,3.1-4.1,6.5-7.9,9.3
					c-3.7,2.8-8.5,4.8-13.8,5.6c-2.2,0.3-4.5,0.4-6.6,0.3c-1.1,0-2.1,0-3.1,0.2c-1,0.2-1.9,0.6-2.6,1.2c-0.8,0.6-1.5,1.3-2.2,1.9
					c-0.7,0.6-1.6,1.2-2.5,1.4c-1.8,0.5-3.8,0-5.1-1.1l0.3-0.1c-0.9,2.1-2.8,3.4-4.6,3.8c-1.8,0.4-3.4-0.2-4.5-0.8
					c-1.1-0.7-1.7-1.5-2.1-2.1c-0.2-0.3-0.3-0.5-0.3-0.7c-0.1-0.2-0.1-0.2-0.1-0.2c0,0,0.2,0.3,0.5,0.9c0.4,0.5,1,1.3,2.1,1.9
					c1.1,0.6,2.6,1.1,4.3,0.7c1.7-0.4,3.5-1.6,4.3-3.6l0.1-0.3l0.2,0.2c1.2,1,3,1.4,4.7,0.9c1.7-0.4,3-2,4.5-3.3
					c0.8-0.6,1.8-1.1,2.8-1.3c1.1-0.2,2.1-0.2,3.2-0.2c2.2,0.1,4.3,0,6.6-0.3c5.2-0.8,9.9-2.8,13.6-5.5c3.7-2.7,6.2-6,7.8-9.1
					c1.6-3.1,2.3-5.8,2.6-7.7c0.1-1,0.2-1.7,0.3-2.2C641.5,228.4,641.6,228.2,641.6,228.2z"/>
			</g>
			<g>
				<path class="st7" d="M590.6,265.8c0.1,0-0.1,0.4,0.2,0.9c0.1,0.2,0.4,0.5,0.8,0.5c0.3,0.1,0.7-0.1,0.9-0.5c0.2-0.4,0.2-0.8,0-1
					c-0.2-0.3-0.5-0.4-0.8-0.4c-0.6,0-0.9,0.3-0.9,0.2c-0.1,0,0.2-0.5,0.9-0.6c0.4,0,0.9,0.1,1.2,0.5c0.4,0.4,0.4,1.1,0.1,1.6
					c-0.3,0.5-0.9,0.8-1.5,0.7c-0.5-0.1-0.8-0.5-1-0.8C590.2,266.2,590.6,265.7,590.6,265.8z"/>
			</g>
			<g>
				<path class="st7" d="M591.6,282.6c0.1,0-0.1,0.4,0.2,0.9c0.1,0.2,0.4,0.5,0.8,0.5c0.3,0.1,0.7-0.1,0.9-0.5c0.2-0.4,0.2-0.8,0-1
					c-0.2-0.3-0.5-0.4-0.8-0.4c-0.6,0-0.9,0.3-0.9,0.2c-0.1,0,0.2-0.5,0.9-0.6c0.4,0,0.9,0.1,1.2,0.5c0.4,0.4,0.4,1.1,0.1,1.6
					c-0.3,0.5-0.9,0.8-1.5,0.7c-0.5-0.1-0.8-0.5-1-0.8C591.2,283,591.6,282.5,591.6,282.6z"/>
			</g>
			<g>
				<path class="st7" d="M590.6,300.5c0.1,0-0.1,0.4,0.2,0.9c0.1,0.2,0.4,0.5,0.8,0.5c0.3,0.1,0.7-0.1,0.9-0.5c0.2-0.4,0.2-0.8,0-1
					c-0.2-0.3-0.5-0.4-0.8-0.4c-0.6,0-0.9,0.3-0.9,0.2c-0.1,0,0.2-0.5,0.9-0.6c0.4,0,0.9,0.1,1.2,0.5c0.4,0.4,0.4,1.1,0.1,1.6
					c-0.3,0.5-0.9,0.8-1.5,0.7c-0.5-0.1-0.8-0.5-1-0.8C590.2,300.9,590.6,300.4,590.6,300.5z"/>
			</g>
		</g>
	</g>
</g>
<g id="Character_1">
	<g>
		<g>
			<g>
				<g>
					<path class="st12" d="M298.1,323.9l-59.4,134.4l13.3,6.7c0,0,22.1-31.6,30.7-48.5c8.5-16.5,10.5-22.1,10.5-22.1l36.9-60.5
						L298.1,323.9z"/>
					<path class="st12" d="M265.9,361.6c0,0-9.1-6.7-10.1-11.1c-1-4.3,0-17.1,5.6-21.1c5.6-4.1,21.3-16.6,21.3-16.6l20.7,24.8
						l-14.6,11.2c0,0,9.8,6,17.5,16.2c7.6,10.2,26.8,34.9,26.8,34.9l-9.2,10.3L265.9,361.6z"/>
					<g>
						<path class="st13" d="M281.9,418.1c0,0,0.1-0.2,0.2-0.5c0.2-0.4,0.4-0.8,0.6-1.4c0.6-1.3,1.4-3,2.4-5.2
							c2.1-4.4,5-10.5,8.3-17.4l0,0l0,0c0.7-1.2,1.5-2.5,2.3-3.8c4.5-7.4,8.6-14.1,11.5-19c1.5-2.4,2.7-4.3,3.5-5.7
							c0.4-0.6,0.7-1.1,1-1.5c0.2-0.4,0.4-0.5,0.4-0.5c0,0-0.1,0.2-0.3,0.6c-0.2,0.4-0.5,0.9-0.9,1.6c-0.8,1.4-2,3.4-3.4,5.8
							c-3,4.9-7,11.7-11.4,19.1c-0.8,1.3-1.6,2.6-2.3,3.8l0,0c-3.3,6.8-6.3,12.9-8.4,17.3c-1.1,2.1-1.9,3.8-2.5,5.1
							c-0.3,0.6-0.5,1-0.7,1.4C282.1,417.9,282,418.1,281.9,418.1z"/>
					</g>
					<g>
						<path class="st13" d="M287.3,345.8c-0.1,0.1-1.3-0.7-3.1-1.2c-1.8-0.4-3.3-0.2-3.3-0.4c0-0.1,1.5-0.6,3.4-0.1
							C286.3,344.5,287.4,345.7,287.3,345.8z"/>
					</g>
				</g>
				<g>
					<path class="st13" d="M290.1,339.9c0,0-0.1,0.2-0.2,0.6c-0.2,0.5-0.4,1.1-0.7,1.8c-0.7,1.6-1.6,3.9-2.8,6.6
						c-2.4,5.6-5.6,13.4-9.2,21.9c-3.6,8.5-6.9,16.3-9.3,21.8c-1.2,2.8-2.2,5-2.9,6.6c-0.3,0.7-0.6,1.3-0.8,1.8
						c-0.2,0.4-0.3,0.6-0.3,0.6c0,0,0.1-0.2,0.2-0.6c0.2-0.5,0.4-1.1,0.7-1.8c0.7-1.6,1.6-3.9,2.8-6.6c2.4-5.6,5.6-13.4,9.2-21.9
						c3.6-8.5,6.9-16.3,9.3-21.8c1.2-2.8,2.2-5,2.9-6.6c0.3-0.7,0.6-1.3,0.8-1.8C290,340.1,290.1,339.9,290.1,339.9z"/>
				</g>
			</g>
			<g>
				<g>
					<g>
						<g>
							<g>
								<g>
									<g>
										<g>
											<g>
												<path class="st7" d="M239.3,456.9L239.3,456.9c0,0-19.2,0.3-20.5,3.4l32.8,11.5l3.1-8.6l-1.3-0.1
													C248.2,462.6,243.3,460.4,239.3,456.9z"/>
											</g>
										</g>
									</g>
								</g>
							</g>
						</g>
					</g>
					<g>
						<g>
							<path class="st6" d="M219.7,459.6c0,0.1,7.1,2.7,16,5.9c8.9,3.2,16.1,5.6,16.1,5.5c0-0.1-7.1-2.7-16-5.9
								C227,462,219.8,459.5,219.7,459.6z"/>
						</g>
					</g>
				</g>
			</g>
			<g>
				<g>
					<g>
						<g>
							<g>
								<g>
									<g>
										<g>
											<g>
												<path class="st7" d="M322,409.2L322,409.2c0,0-6,16.6-3.8,18.7l20.7-24.4l-6.4-5.4l-0.6,1.1
													C329.8,403.4,326.3,407,322,409.2z"/>
											</g>
										</g>
									</g>
								</g>
							</g>
						</g>
					</g>
					<g>
						<g>
							<path class="st6" d="M317.9,426.9c0.1,0.1,4.7-5.2,10.3-11.8c5.6-6.6,10.1-12,10.1-12.1c-0.1-0.1-4.7,5.2-10.3,11.8
								C322.3,421.5,317.8,426.9,317.9,426.9z"/>
						</g>
					</g>
				</g>
			</g>
		</g>
		<g>
			<path class="st7" d="M366.1,269.5h29c1.6,0,2.8-1.3,2.8-2.8v0c0-1.6-1.3-2.8-2.8-2.8h-29c-1.6,0-2.8,1.3-2.8,2.8v0
				C363.2,268.2,364.5,269.5,366.1,269.5z"/>
			<rect x="392.3" y="266.4" class="st7" width="2.1" height="204.7"/>
			<rect x="365.6" y="266.4" class="st7" width="2.1" height="204.7"/>
			<rect x="338.7" y="326" class="st7" width="1.9" height="145.1"/>
			<path class="st6" d="M390.2,334.4h-50.4c-3.2,0-5.8-2.6-5.8-5.8v-2.7c0-3.2,2.6-5.8,5.8-5.8h50.4c3.2,0,5.8,2.6,5.8,5.8v2.7
				C396,331.8,393.4,334.4,390.2,334.4z"/>
			<rect x="338.7" y="391.7" class="st7" width="55.7" height="2.3"/>
			<rect x="366.2" y="283" class="st7" width="27.2" height="2.7"/>
		</g>
		<path class="st7" d="M331.5,153.7c5-2.7,11.2-3.1,16.5-1c5.3,2.1,9.6,6.6,11.4,11.9c1.8,5.3,1.3,11,2.1,16.5
			c2.5,16.4,16.8,29.2,18.7,45.6c1.5,12.6-5.2,25.7-16.3,31.8c-1.8,1-4.2,1.7-5.7,0.4c-1.3-1.2-1.2-3.2-1.6-5
			c-0.9-4.8-5.7-7.9-10.5-8.7c-4.8-0.8-9.6,0.1-14.5,0.4c-4.8,0.3-10-0.1-13.9-3c-4.2-3.3-5.8-9.1-5.5-14.4
			c0.3-5.3,2.1-10.4,3.5-15.6c2.3-8.2,3.5-16.8,3.2-25.3c-0.2-4.7-0.8-9.3-0.6-14c0.1-4.7,1.1-9.5,3.8-13.3c2.7-3.8,7.3-6.5,12-5.9"
			/>
		<path class="st12" d="M294.5,311.7l9.1-44.3c0,0,1.8-47.9,8.2-52.3l7.2,17.4l-2.2,47.9L300,314.1L294.5,311.7z"/>
		<g>
			<path class="st8" d="M323.8,209.9c0,0-11.6,4.5-12,5.3l2.6,23.1c0,0-3.4,9,2.4,18.3l2.3,22.4l43.2,2.8l5.4-38.3l5.5-29.8
				c0,0-3-2.9-9.8-4.5L323.8,209.9z"/>
			<path class="st8" d="M362.2,278.9c0,0,12.3,23,5.7,40.7l-55.6,43.6l-40.1-42.1l46.8-42.2H362.2z"/>
			<g>
				<path class="st7" d="M335.5,289.9c0,0-0.2,0.1-0.5,0.3c-0.4,0.2-0.9,0.5-1.5,0.8c-0.7,0.3-1.5,0.8-2.4,1.3
					c-0.9,0.5-2,1.1-3.1,1.9c-1.1,0.7-2.4,1.5-3.7,2.5c-1.3,0.9-2.6,1.9-4.1,3c-2.8,2.2-5.7,4.9-8.6,7.8c-2.8,3-5.3,6-7.4,8.9
					c-1,1.5-2,2.8-2.8,4.2c-0.9,1.3-1.6,2.6-2.3,3.8c-0.7,1.2-1.2,2.3-1.7,3.2c-0.5,0.9-0.9,1.8-1.2,2.5c-0.3,0.6-0.6,1.2-0.8,1.6
					c-0.2,0.4-0.3,0.5-0.3,0.5c0,0,0.1-0.2,0.2-0.6c0.2-0.4,0.4-1,0.7-1.6c0.3-0.7,0.7-1.5,1.2-2.5c0.5-1,1-2.1,1.7-3.3
					c0.7-1.2,1.4-2.5,2.2-3.8c0.8-1.4,1.8-2.8,2.8-4.2c2.1-2.9,4.6-6,7.4-9c2.9-3,5.8-5.6,8.6-7.8c1.4-1.1,2.8-2.1,4.1-3
					c1.3-0.9,2.6-1.7,3.7-2.4c1.1-0.7,2.2-1.3,3.2-1.8c0.9-0.5,1.8-0.9,2.5-1.3c0.6-0.3,1.2-0.6,1.6-0.7
					C335.3,290,335.5,289.9,335.5,289.9z"/>
			</g>
			<g>
				<path class="st7" d="M351.8,266.7c0,0-0.2,0.3-0.7,0.8c-0.5,0.5-1.2,1.1-2.2,1.9c-1.9,1.5-4.8,3.3-8.3,4.7
					c-3.5,1.4-6.8,2.2-9.2,2.5c-1.2,0.2-2.2,0.2-2.9,0.2c-0.7,0-1.1,0-1.1,0c0-0.1,1.5-0.2,3.9-0.6c2.4-0.4,5.6-1.2,9-2.6
					c3.4-1.4,6.3-3.2,8.2-4.6C350.6,267.7,351.8,266.7,351.8,266.7z"/>
			</g>
			<g>
				<path class="st11" d="M367.3,210c0,0-0.1,0.2-0.4,0.5c-0.3,0.3-0.7,0.7-1.2,1.2c-1,1.1-2.6,2.6-4.6,4.4c-2,1.8-4.5,3.9-7.5,5.7
					c-3,1.8-6.7,3.4-10.8,4c-4.1,0.6-8.1-0.2-11.4-1.7c-3.3-1.5-5.9-3.4-7.9-5.1c-2.1-1.7-3.6-3.2-4.7-4.3c-0.5-0.5-0.9-0.9-1.2-1.2
					s-0.4-0.4-0.4-0.5c0,0,0.2,0.1,0.5,0.4c0.3,0.3,0.8,0.7,1.3,1.2c1.1,1,2.7,2.5,4.8,4.2c2.1,1.7,4.7,3.5,7.9,5
					c3.2,1.4,7.1,2.2,11.1,1.6c4-0.5,7.6-2.1,10.6-3.9c3-1.8,5.5-3.8,7.5-5.6c2-1.8,3.6-3.3,4.7-4.3c0.5-0.5,0.9-0.9,1.3-1.2
					C367.1,210.1,367.2,210,367.3,210z"/>
			</g>
			<g>
				<path class="st11" d="M370.5,222.5c0,0-0.1,0.2-0.4,0.6c-0.3,0.4-0.7,0.9-1.2,1.5c-1.1,1.3-2.8,3.1-5.2,5.1
					c-2.4,2-5.4,4.1-9.1,5.8c-3.7,1.7-8,3-12.8,3.4c-4.7,0.3-9.2-0.5-13-2c-3.8-1.5-7-3.5-9.2-5.5c-2.3-2.1-3.8-4.1-4.7-5.5
					c-0.5-0.7-0.7-1.3-1-1.7c-0.2-0.4-0.3-0.6-0.3-0.6c0.1,0,0.5,0.8,1.4,2.2c0.9,1.4,2.5,3.4,4.8,5.4c2.3,2,5.4,3.9,9.2,5.4
					c3.8,1.4,8.2,2.2,12.8,1.9c4.6-0.3,8.9-1.6,12.6-3.3c3.7-1.7,6.7-3.7,9.1-5.7c2.4-1.9,4.1-3.7,5.3-5c0.6-0.6,1-1.1,1.3-1.5
					C370.3,222.7,370.5,222.5,370.5,222.5z"/>
			</g>
			<g>
				<path class="st11" d="M366.1,247.2c0,0-0.2,0.1-0.5,0.2c-0.4,0.2-0.9,0.4-1.5,0.6c-1.3,0.5-3.2,1.2-5.6,2
					c-4.8,1.6-11.6,3.6-19.3,4c-7.8,0.4-14.8-1.4-19.3-3.7c-2.3-1.1-4-2.3-5.1-3.2c-0.6-0.4-1-0.8-1.2-1.1c-0.3-0.3-0.4-0.4-0.4-0.4
					c0,0,0.6,0.5,1.8,1.3c1.1,0.8,2.8,1.9,5.1,3c4.5,2.2,11.4,3.9,19.1,3.5c7.7-0.4,14.4-2.3,19.2-3.8c2.4-0.8,4.3-1.4,5.7-1.9
					c0.6-0.2,1.1-0.4,1.5-0.5C365.9,247.3,366.1,247.2,366.1,247.2z"/>
			</g>
			<g>
				<path class="st11" d="M365,261.2c0,0-0.1,0.1-0.4,0.2c-0.3,0.2-0.8,0.4-1.3,0.6c-0.6,0.3-1.2,0.6-2.1,0.9
					c-0.8,0.3-1.7,0.7-2.8,1c-1,0.3-2.2,0.7-3.5,1c-1.2,0.3-2.6,0.6-4,0.9c-2.9,0.5-6.1,0.8-9.4,0.9c-3.4,0-6.6-0.3-9.4-0.7
					c-1.4-0.3-2.8-0.5-4.1-0.8c-1.3-0.3-2.4-0.6-3.5-0.9c-1.1-0.3-2-0.6-2.8-0.9c-0.8-0.3-1.5-0.6-2.1-0.8c-0.5-0.2-0.9-0.4-1.3-0.6
					c-0.3-0.1-0.4-0.2-0.4-0.2c0,0,0.2,0,0.5,0.1c0.4,0.1,0.8,0.3,1.3,0.5c0.6,0.2,1.3,0.5,2.1,0.7c0.8,0.3,1.8,0.6,2.8,0.8
					c1.1,0.3,2.2,0.6,3.5,0.8c1.3,0.3,2.6,0.5,4,0.7c2.9,0.4,6,0.6,9.4,0.6c3.3,0,6.5-0.4,9.3-0.8c1.4-0.3,2.8-0.5,4-0.8
					c1.3-0.3,2.4-0.6,3.5-0.9c1.1-0.3,2-0.6,2.8-0.9c0.8-0.3,1.5-0.5,2.1-0.8c0.5-0.2,1-0.4,1.3-0.5
					C364.8,261.3,365,261.2,365,261.2z"/>
			</g>
			<g>
				<path class="st11" d="M328,276.5c0,0.1-2.2,0.5-4.9-0.1c-2.7-0.5-4.6-1.7-4.6-1.8c0.1-0.1,2.1,0.8,4.7,1.3
					C325.8,276.5,328,276.4,328,276.5z"/>
			</g>
			<g>
				<path class="st11" d="M361.1,276c0,0-0.3,0.2-0.8,0.3c-0.5,0.2-1.4,0.4-2.4,0.6c-2,0.5-4.9,0.9-8.1,0.8c-3.2-0.1-6-0.6-8-1.1
					c-1-0.3-1.8-0.5-2.3-0.7c-0.5-0.2-0.8-0.3-0.8-0.4c0-0.1,1.2,0.3,3.3,0.7c2,0.4,4.8,0.9,8,1c3.1,0.1,6-0.3,8-0.6
					C359.8,276.3,361.1,275.9,361.1,276z"/>
			</g>
			<g>
				<path class="st11" d="M363.2,283.9c0,0-0.7,0.1-1.9,0.2c-1.2,0.1-3,0.3-5.2,0.8c-2.2,0.4-4.7,1.1-7.6,1.8c-2.8,0.7-6,1.5-9.4,2
					c-3.4,0.4-6.7,0.4-9.6-0.1c-2.9-0.5-5.5-1.3-7.5-2.2c-2.1-0.9-3.6-1.8-4.6-2.5c-0.5-0.3-0.9-0.6-1.2-0.8
					c-0.3-0.2-0.4-0.3-0.4-0.3c0,0,0.6,0.4,1.7,1c1.1,0.6,2.6,1.5,4.7,2.4c4,1.7,10.2,3.2,16.9,2.2c3.3-0.4,6.5-1.2,9.3-1.9
					c2.9-0.7,5.4-1.3,7.6-1.7c2.2-0.4,4-0.6,5.2-0.6c0.6,0,1.1,0,1.4,0C363.1,283.9,363.2,283.9,363.2,283.9z"/>
			</g>
			<g>
				<path class="st11" d="M315.2,302.6c0,0.1-0.9,0-2.3-0.5c-1.4-0.4-3.3-1.4-5-2.8c-1.7-1.5-2.9-3.2-3.5-4.5
					c-0.7-1.3-0.9-2.2-0.8-2.2c0.1,0,0.4,0.8,1.1,2c0.7,1.2,1.9,2.8,3.6,4.3c1.7,1.4,3.4,2.4,4.8,2.9
					C314.3,302.3,315.2,302.5,315.2,302.6z"/>
			</g>
			<g>
				<path class="st11" d="M366.2,319.5c0,0-0.2,0-0.5,0c-0.3,0-0.8,0-1.5-0.1c-1.3-0.1-3.1-0.5-5.2-1.4c-2.1-0.9-4.5-2.3-6.9-4.1
					c-2.4-1.8-4.9-4-7.6-6.2c-5.4-4.3-11.3-6.7-15.7-7.8c-2.2-0.6-4-0.8-5.3-1c-1.3-0.2-2-0.2-2-0.3c0,0,0.2,0,0.5,0
					c0.3,0,0.8,0,1.5,0.1c1.3,0.1,3.1,0.3,5.3,0.9c2.2,0.5,4.8,1.3,7.6,2.6c2.7,1.3,5.6,3,8.3,5.1c2.7,2.1,5.2,4.4,7.5,6.2
					c2.4,1.8,4.7,3.2,6.7,4.2c2.1,0.9,3.9,1.3,5.1,1.5C365.5,319.4,366.2,319.4,366.2,319.5z"/>
			</g>
			<g>
				<path class="st11" d="M299.7,317.2c0,0.1-0.8-0.3-2.1-1c-1.2-0.7-2.8-1.9-4.3-3.5c-1.5-1.6-2.6-3.2-3.2-4.5
					c-0.7-1.3-0.9-2.1-0.9-2.1c0.2-0.1,1.6,3.1,4.5,6.2C296.6,315.5,299.8,317.1,299.7,317.2z"/>
			</g>
			<g>
				<path class="st11" d="M336.6,345.8c0,0-0.2,0-0.4-0.2c-0.3-0.1-0.7-0.3-1.2-0.6c-1-0.6-2.4-1.4-4.1-2.7
					c-1.6-1.2-3.5-2.9-5.3-4.9c-1.8-2-3.5-4.5-5.1-7.2c-1.7-2.7-3.2-5.2-4.9-7.3c-1.7-2.1-3.5-3.7-5.2-4.8c-1.7-1.1-3.3-1.7-4.4-2
					c-1.1-0.3-1.7-0.3-1.7-0.4c0,0,0.2,0,0.5,0c0.3,0,0.7,0.1,1.3,0.2c1.1,0.2,2.8,0.8,4.5,1.8c1.8,1.1,3.7,2.7,5.4,4.8
					c1.8,2.1,3.4,4.6,5,7.3c1.6,2.7,3.3,5.1,5.1,7.2c1.8,2,3.6,3.7,5.1,5c1.6,1.3,3,2.2,3.9,2.8
					C336.1,345.4,336.7,345.8,336.6,345.8z"/>
			</g>
			<g>
				<path class="st11" d="M318.7,357c0,0-0.2-0.1-0.5-0.3c-0.4-0.2-0.8-0.5-1.4-0.9c-1.2-0.8-2.9-2-5-3.5
					c-4.1-3.1-9.6-7.6-15.2-13.1c-5.6-5.5-10.2-11-13.3-15.1c-1.6-2-2.8-3.7-3.6-4.9c-0.4-0.6-0.7-1-0.9-1.4
					c-0.2-0.3-0.3-0.5-0.3-0.5c0,0,0.1,0.1,0.4,0.4c0.3,0.3,0.6,0.8,1,1.3c0.8,1.2,2.1,2.8,3.7,4.8c3.2,4,7.8,9.4,13.3,14.9
					c5.6,5.5,11,10.1,15.1,13.2c2,1.6,3.7,2.8,4.9,3.6c0.5,0.4,1,0.7,1.3,1C318.6,356.8,318.7,356.9,318.7,357z"/>
			</g>
			<g class="st15">
				<path d="M327.8,292.1c-0.4-0.2-0.9-0.1-1.3,0.1c-8.6,2.7-16.4,8-22,15.1c-5.7,7-8.3,15.1-9.1,24.1l0.3-0.3
					c5.8-14.1,17.9-28,31-35.8c0.6-0.4,1.2-0.7,1.5-1.3C328.6,293.3,328.5,292.4,327.8,292.1z"/>
			</g>
			<g class="st15">
				<path d="M345.8,269.3c-4.2,1.4-8.3,2.8-12.5,4.2c-1.9,0.6-4,1.5-4.7,3.4c6.6,0,12.9-2.4,18-6.6c0.2-0.2,0.4-0.4,0.4-0.6
					C346.9,269.2,346.3,269.2,345.8,269.3z"/>
			</g>
			<g class="st15">
				<path d="M354.3,255.7c0.2,0.7-0.7,1.8-2.9,2.6c-2.1,0.8-5.4,1.2-8.8,0.2c-3.4-1-6-3.1-7.3-4.9c-1.4-1.8-1.6-3.3-1-3.7
					c0.6-0.4,1.8,0.1,3.5,1c1.7,0.9,3.8,1.9,6.3,2.7c2.5,0.7,4.9,1,6.8,1.2C352.8,254.9,354.1,255.1,354.3,255.7z"/>
			</g>
			<g>
				<path class="st7" d="M347.4,254.4c0,0.1-0.8,0.2-2.2,0.1c-1.4-0.1-3.2-0.6-5.1-1.6c-1.8-1.1-3.2-2.4-3.9-3.6
					c-0.8-1.1-1.1-1.9-1-2c0.1,0,0.5,0.7,1.3,1.7c0.8,1,2.2,2.3,3.9,3.3c1.8,1,3.5,1.5,4.9,1.7C346.6,254.3,347.4,254.3,347.4,254.4
					z"/>
			</g>
		</g>
		<g>
			<path class="st12" d="M392.9,240.5c-5.9-7.9-16.7-22.4-19.8-26.8l-4.6,24.6l12.8,11.6c-2-0.7-19,14.8-19,14.8l2.2,11.5
				c8.6-3.1,29.8-12.1,33.3-14.9C402.6,257.3,400.1,250.1,392.9,240.5z"/>
			<g>
				<g>
					<path class="st12" d="M366.2,261.2L366.2,261.2c-0.4,0.2-10.2,7-10.2,7c-2.1,3.7-4,8.3-5.8,13.4c0.1,1.3,0.9,10.6,1.1,11.8
						c0.4,2,2.6,1.6,2.6,0.8c-0.1-1.6-0.1-7.5-0.1-7.5l1.3,8.1l0.3,1.8c0,0,0.2,1,1.1,0.9c1.2-0.1,1.6-0.8,1.6-2
						c0-1.3-0.7-11.2-0.7-11.2l2.4,10.9c0,0,0.2,1.2,1.4,0.9c1.1-0.3,1.3-1.5,1.1-3.1c0,0,0.3,0.2,0.6,0.2c0.6,0,1.5-0.5,1.5-1.9
						c0-1.2,0-15.2,0-15.2l9.4-4L366.2,261.2z"/>
					<g>
						<path class="st16" d="M352.6,281.2c0,0,0.1,0.2,0.2,0.6c0.1,0.4,0.2,1,0.4,1.7c0.3,1.5,0.7,3.5,1.1,5.7c0.4,2.2,0.8,4.3,1,5.8
							c0.1,0.7,0.2,1.3,0.2,1.8c0,0.4,0,0.6,0,0.7c0,0-0.1-0.2-0.1-0.6c-0.1-0.5-0.2-1.1-0.3-1.7c-0.3-1.5-0.6-3.5-1-5.7
							c-0.4-2.2-0.8-4.2-1.1-5.7c-0.1-0.7-0.2-1.3-0.3-1.7C352.6,281.4,352.6,281.2,352.6,281.2z"/>
					</g>
					<g>
						<path class="st16" d="M356.9,281.9c0.1,0,0.8,3,1.7,6.6c0.8,3.7,1.4,6.7,1.3,6.7c-0.1,0-0.8-3-1.7-6.6
							C357.4,285,356.8,281.9,356.9,281.9z"/>
					</g>
					<g>
						<path class="st16" d="M361.1,282.9c0.1,0,0.5,2.4,0.8,5.3c0.4,2.9,0.6,5.3,0.5,5.3c-0.1,0-0.5-2.4-0.8-5.3
							C361.3,285.3,361.1,282.9,361.1,282.9z"/>
					</g>
					<g>
						<path class="st16" d="M350.9,289.9c0,0-0.1-0.2-0.1-0.6c-0.1-0.5-0.1-1-0.2-1.7c-0.2-1.4-0.4-3.5-0.6-5.7l0,0l0,0
							c0.1-0.1,0.1-0.3,0.2-0.5c0.8-2.2,1.6-4.2,2.1-5.7c0.3-0.7,0.5-1.2,0.7-1.7c0.2-0.4,0.3-0.6,0.3-0.6c0,0,0,0.2-0.2,0.7
							c-0.2,0.5-0.4,1.1-0.6,1.7c-0.5,1.5-1.2,3.5-2.1,5.7c-0.1,0.2-0.1,0.3-0.2,0.5l0-0.1c0.2,2.2,0.4,4.3,0.5,5.7
							c0,0.7,0.1,1.2,0.1,1.7C350.9,289.6,350.9,289.9,350.9,289.9z"/>
					</g>
				</g>
			</g>
			<g>
				<path class="st16" d="M393.3,253.1c-0.1,0.1-0.6-0.5-1.7-1.1c-1-0.7-2.6-1.4-4.4-1.9c-1.8-0.5-3.6-0.5-4.8-0.4
					c-1.2,0.1-2,0.3-2,0.2c0-0.1,0.7-0.4,2-0.6c1.3-0.2,3.1-0.2,5,0.2c1.9,0.5,3.5,1.3,4.5,2.1C392.9,252.5,393.4,253.1,393.3,253.1
					z"/>
			</g>
		</g>
		<g>
			<path class="st12" d="M352.9,206.1l-22.5,0.4c-2.8,1.4-5.9,3-9.1,4.7c0,0,5.8,5.5,14.2,9.6c8.5,4.1,29.1-11.3,29.1-11.3
				L352.9,206.1z"/>
			<g>
				<g>
					<g>
						<g>
							<g>
								<g>
									<g>
										<g>
											<g>
												<g>
													<g>
														<g>
															<g>
																<g>
																	<g>
																		<g>
																			<path class="st12" d="M353.9,165.2l0.2-3.2l-19.2-4.3c-5.9-0.8-12.6,5-13.1,10.9c-0.6,6.6-1.1,14.8-0.5,19.7
																				c1.3,10,8.9,11.5,8.9,11.5l0.4,18l14,0.6c4.4,0.2,8.2-3.3,8.3-7.7L353.9,165.2z"/>
																		</g>
																	</g>
																</g>
															</g>
															<g>
																<g>
																	<g>
																		<g>
																			<g>
																				<g>
																					<g>
																						<g>
																							<g>
																								<g>
																									<g>
																										<g>
																											<path class="st7" d="M326.2,176.2c0,0.7,0.5,1.3,1.2,1.3c0.7,0.1,1.3-0.4,1.4-1.1c0-0.7-0.5-1.3-1.2-1.3
																												C326.9,175,326.3,175.5,326.2,176.2z"/>
																										</g>
																									</g>
																								</g>
																							</g>
																						</g>
																					</g>
																				</g>
																			</g>
																		</g>
																	</g>
																</g>
																<g>
																	<g>
																		<g>
																			<g>
																				<g>
																					<g>
																						<g>
																							<g>
																								<g>
																									<g>
																										<g>
																											<g>
																												<path class="st7" d="M323.8,173.1c0.1,0.1,1.1,0,2.5,0.5c1.3,0.4,2.2,1.1,2.3,1c0.1,0,0-0.2-0.4-0.5
																													c-0.4-0.3-1-0.7-1.9-0.9c-0.8-0.3-1.5-0.3-2-0.3C323.9,173,323.7,173.1,323.8,173.1z"/>
																											</g>
																										</g>
																									</g>
																								</g>
																							</g>
																						</g>
																					</g>
																				</g>
																			</g>
																		</g>
																	</g>
																</g>
															</g>
															<g>
																<g>
																	<g>
																		<g>
																			<g>
																				<g>
																					<g>
																						<g>
																							<g>
																								<g>
																									<g>
																										<g>
																											<path class="st7" d="M340.8,176.2c0,0.7,0.5,1.3,1.2,1.3c0.7,0.1,1.3-0.4,1.4-1.1c0-0.7-0.5-1.3-1.2-1.3
																												C341.5,175,340.9,175.5,340.8,176.2z"/>
																										</g>
																									</g>
																								</g>
																							</g>
																						</g>
																					</g>
																				</g>
																			</g>
																		</g>
																	</g>
																</g>
																<g>
																	<g>
																		<g>
																			<g>
																				<g>
																					<g>
																						<g>
																							<g>
																								<g>
																									<g>
																										<g>
																											<g>
																												<path class="st7" d="M337.5,175.1c0.2,0,1-0.6,2.3-1c1.3-0.4,2.4-0.3,2.5-0.5c0.1-0.1-0.2-0.2-0.6-0.2
																													c-0.5,0-1.2,0-2.1,0.3c-0.8,0.3-1.5,0.6-1.8,0.9C337.5,174.9,337.4,175,337.5,175.1z"/>
																											</g>
																										</g>
																									</g>
																								</g>
																							</g>
																						</g>
																					</g>
																				</g>
																			</g>
																		</g>
																	</g>
																</g>
															</g>
															<g>
																<g>
																	<g>
																		<g>
																			<g>
																				<g>
																					<g>
																						<g>
																							<g>
																								<g>
																									<g>
																										<g>
																											<path class="st7" d="M331.9,183.3c0-0.1-0.8-0.3-2.2-0.5c-0.4,0-0.7-0.1-0.7-0.4c-0.1-0.3,0.1-0.6,0.3-1
																												c0.4-0.8,0.7-1.7,1.1-2.6c1.6-3.8,2.7-6.9,2.6-6.9c-0.2-0.1-1.5,2.9-3.1,6.7c-0.4,0.9-0.7,1.8-1.1,2.7
																												c-0.1,0.4-0.4,0.8-0.2,1.4c0.1,0.3,0.3,0.5,0.6,0.5c0.2,0.1,0.4,0.1,0.6,0.1
																												C331,183.4,331.9,183.4,331.9,183.3z"/>
																										</g>
																									</g>
																								</g>
																							</g>
																						</g>
																					</g>
																				</g>
																			</g>
																		</g>
																	</g>
																</g>
															</g>
															<g>
																<g>
																	<g>
																		<g>
																			<g>
																				<g>
																					<g>
																						<g>
																							<g>
																								<g>
																									<g>
																										<path class="st16" d="M330.1,199.6c0,0,7,0.6,13.8-3.2c0,0-3.4,6.9-13.7,5.7L330.1,199.6z"/>
																									</g>
																								</g>
																							</g>
																						</g>
																					</g>
																				</g>
																			</g>
																		</g>
																	</g>
																</g>
															</g>
															<g>
																<g>
																	<g>
																		<g>
																			<g>
																				<g>
																					<g>
																						<g>
																							<g>
																								<g>
																									<g>
																										<path class="st16" d="M332.4,186.7c0.5-0.6,1.4-1,2.3-0.9c0.6,0.1,1.2,0.4,1.5,0.9
																											c0.3,0.5,0.4,1.2,0.1,1.6c-0.4,0.5-1.2,0.6-1.8,0.4c-0.7-0.2-1.2-0.7-1.7-1.1c-0.1-0.1-0.3-0.3-0.4-0.4
																											C332.2,187.1,332.2,186.9,332.4,186.7"/>
																									</g>
																								</g>
																							</g>
																						</g>
																					</g>
																				</g>
																			</g>
																		</g>
																	</g>
																</g>
															</g>
															<g>
																<g>
																	<g>
																		<g>
																			<g>
																				<g>
																					<g>
																						<g>
																							<g>
																								<g>
																									<g>
																										<g>
																											<path class="st7" d="M335.9,184.4c-0.2,0-0.3,1.5-1.6,2.5c-1.3,1-2.9,0.8-2.9,1c0,0.1,0.3,0.3,1,0.3
																												c0.7,0,1.6-0.1,2.4-0.8c0.8-0.6,1.2-1.5,1.2-2.1C336.2,184.8,336,184.4,335.9,184.4z"/>
																										</g>
																									</g>
																								</g>
																							</g>
																						</g>
																					</g>
																				</g>
																			</g>
																		</g>
																	</g>
																</g>
															</g>
														</g>
													</g>
												</g>
												<g>
													<g>
														<g>
															<g>
																<g>
																	<g>
																		<g>
																			<g>
																				<g>
																					<g>
																						<g>
																							<path class="st7" d="M337,168.4c0.1,0.4,1.5,0.2,3.1,0.5c1.6,0.2,2.9,0.7,3.1,0.4c0.1-0.2-0.1-0.5-0.6-0.9
																								c-0.5-0.4-1.3-0.7-2.3-0.9c-1-0.1-1.9,0-2.5,0.2C337.3,168,337,168.2,337,168.4z"/>
																						</g>
																					</g>
																				</g>
																			</g>
																		</g>
																	</g>
																</g>
															</g>
														</g>
													</g>
												</g>
												<g>
													<g>
														<g>
															<g>
																<g>
																	<g>
																		<g>
																			<g>
																				<g>
																					<g>
																						<g>
																							<path class="st7" d="M323.9,167.1c0.2,0.3,1.2,0,2.3,0c1.1,0,2.1,0.3,2.3,0c0.1-0.2,0-0.5-0.5-0.8
																								c-0.4-0.3-1.1-0.6-1.9-0.6c-0.8,0-1.5,0.3-1.9,0.6C323.9,166.7,323.8,167,323.9,167.1z"/>
																						</g>
																					</g>
																				</g>
																			</g>
																		</g>
																	</g>
																</g>
															</g>
														</g>
													</g>
												</g>
											</g>
										</g>
									</g>
								</g>
							</g>
						</g>
					</g>
				</g>
			</g>
			<path class="st7" d="M352.1,156.3c-4.1-3.7-10.8-4.2-14.6-4.4c-8.4-3.8-16.3,1.3-17.6,5.3c-2.3,7.2-0.6,16.6,1.2,18.6
				c1.1-4.4,4.8-16.7,12.5-18.6l0,0c0.9,2.7,3.5,7.2,8.3,12.9c5.5,6.6,11.8,9.5,11.8,9.5S359.5,163.1,352.1,156.3z"/>
			<g>
				<g>
					<g>
						<g>
							<g>
								<g>
									<g>
										<g>
											<g>
												<g>
													<g>
														<g>
															<g>
																<g>
																	<path class="st12" d="M352.1,178.7c0.2-0.1,6.6-2.2,6.6,4.4s-6.6,5.3-6.6,5.1C352.1,188,352.1,178.7,352.1,178.7z"
																		/>
																</g>
															</g>
														</g>
													</g>
												</g>
											</g>
										</g>
									</g>
								</g>
							</g>
						</g>
					</g>
				</g>
				<g>
					<g>
						<g>
							<g>
								<g>
									<g>
										<g>
											<g>
												<g>
													<g>
														<g>
															<g>
																<g>
																	<g>
																		<path class="st16" d="M354.1,185.7c0,0,0.1,0.1,0.3,0.2c0.2,0.1,0.5,0.1,0.9,0c0.7-0.3,1.3-1.4,1.3-2.6
																			c0-0.6-0.1-1.2-0.3-1.7c-0.2-0.5-0.5-0.8-0.9-0.9c-0.4-0.1-0.6,0.1-0.7,0.3c-0.1,0.2,0,0.3-0.1,0.3
																			c0,0-0.1-0.1-0.1-0.4c0-0.1,0.1-0.3,0.3-0.4c0.2-0.1,0.4-0.2,0.6-0.2c0.5,0,1,0.5,1.2,1c0.3,0.5,0.4,1.2,0.4,1.8
																			c0,1.3-0.7,2.6-1.7,2.9c-0.5,0.1-0.9,0-1.1-0.2C354.1,185.9,354.1,185.7,354.1,185.7z"/>
																	</g>
																</g>
															</g>
														</g>
													</g>
												</g>
											</g>
										</g>
									</g>
								</g>
							</g>
						</g>
					</g>
				</g>
			</g>
		</g>
		<g>
			<path class="st6" d="M356.1,201.7c0,0,0-0.2-0.1-0.5c0-0.3,0-0.8,0.1-1.5c0.1-1.3,0.5-3.1,1.1-5.3c0.6-2.2,1.6-4.7,2.1-7.6
				c0.2-1.5,0.3-3,0-4.6c-0.3-1.6-0.9-3.1-2-4.4c-1.1-1.3-2.6-2.1-3.9-3c-1.4-0.9-2.6-1.9-3.7-3c-2.1-2.1-3.7-4.4-4.9-6.3
				c-1.2-1.9-2-3.6-2.5-4.7c-0.3-0.6-0.5-1-0.6-1.3c-0.1-0.3-0.2-0.5-0.2-0.5c0,0,0.3,0.6,0.9,1.7c0.6,1.1,1.4,2.7,2.6,4.6
				c1.2,1.9,2.8,4.1,4.9,6.1c1.1,1,2.3,2,3.6,2.9c1.3,0.9,2.9,1.7,4.1,3.1c1.2,1.4,1.8,3,2.1,4.7c0.3,1.6,0.2,3.3,0,4.7
				c-0.5,3-1.5,5.5-2.2,7.7c-0.7,2.1-1.1,3.9-1.3,5.2C356.1,201,356.1,201.7,356.1,201.7z"/>
		</g>
		<g>
			<path class="st6" d="M357.1,177.7c-0.1,0-0.7-0.7-1.5-1.9c-0.8-1.2-1.8-3.1-2.7-5.2c-0.8-2.1-1.3-4.2-1.5-5.6
				c-0.2-1.5-0.2-2.4-0.2-2.4c0.2,0,0.5,3.7,2.2,7.8C355,174.7,357.2,177.6,357.1,177.7z"/>
		</g>
		<path class="st7" d="M353.5,188.9c-2.8,3.1-4.1,7.4-3.5,11.5c0.3,2.3,1.3,4.6,0.8,6.9c-0.5,2.8-2.8,4.8-4.5,7.1
			c-4.1,5.5-4.5,13.5-0.9,19.4c1.1,1.8,3.1,3.6,5.2,2.9c1.6-0.6,2.3-2.6,2.1-4.3c-0.2-1.7-1-3.3-1.4-4.9c-1.5-5.8,1.5-11.8,4.5-17
			c1-1.7,2-3.5,1.7-5.4c-0.2-1.2-0.8-2.2-1.4-3.3c-1.9-4-1.6-8.6-1.2-13"/>
	</g>
</g>
</svg>
