<?xml version="1.0" encoding="utf-8"?>
<!-- Generator: Adobe Illustrator 24.0.0, SVG Export Plug-In . SVG Version: 6.00 Build 0)  -->
<svg version="1.1" xmlns="http://www.w3.org/2000/svg" xmlns:xlink="http://www.w3.org/1999/xlink" x="0px" y="0px"
	 viewBox="0 0 500 500" style="enable-background:new 0 0 500 500;" xml:space="preserve">
<style type="text/css">
	.st0{fill:#E0E0E0;}
	.st1{fill:#EBEBEB;}
	.st2{fill:#F5F5F5;}
	.st3{display:none;}
	.st4{display:inline;fill:#EBEBEB;}
	.st5{fill:#263238;}
	.st6{fill:#FFBE9D;}
	.st7{fill:#EB996E;}
	.st8{fill:#455A64;}
	.st9{fill:#E8505B;}
	.st10{opacity:0.3;}
	.st11{fill:#FAFAFA;}
	.st12{opacity:0.6;}
	.st13{opacity:0.2;}
</style>
<g id="Background_Complete">
	<g>
		<g>
			<path class="st0" d="M201.6,301.7c0,0,0-0.1-0.1-0.2c-0.1-0.2-0.1-0.4-0.3-0.7c-0.1-0.3-0.2-0.7-0.4-1.2c-0.1-0.5-0.3-1-0.6-1.6
				c-0.9-2.4-2.6-5.9-5.4-9.6c-0.7-1-1.5-1.8-2.4-2.8c-0.9-0.9-1.8-1.8-2.8-2.8c-1.1-0.9-2.1-1.8-3.3-2.6c-0.6-0.4-1.2-0.9-1.8-1.3
				c-0.6-0.4-1.3-0.8-2-1.2c-2.7-1.5-5.6-2.9-8.9-3.8c-3.2-0.9-6.7-1.5-10.2-1.5c-3.6,0-7,0.6-10.2,1.5c-3.2,0.9-6.2,2.3-8.8,3.8
				c-0.7,0.4-1.3,0.8-1.9,1.2c-0.6,0.4-1.2,0.9-1.8,1.3c-1.2,0.8-2.2,1.8-3.3,2.7c-1,1-2,1.9-2.8,2.8c-0.8,1-1.7,1.8-2.3,2.8
				c-2.8,3.7-4.5,7.2-5.4,9.6c-0.3,0.6-0.4,1.2-0.6,1.6c-0.1,0.5-0.3,0.9-0.4,1.2c-0.1,0.3-0.2,0.5-0.2,0.7
				c-0.1,0.2-0.1,0.3-0.1,0.2c0,0,0-0.1,0-0.3c0.1-0.2,0.1-0.5,0.2-0.8c0.1-0.3,0.2-0.8,0.3-1.2c0.1-0.5,0.3-1.1,0.5-1.7
				c0.8-2.5,2.5-6,5.3-9.8c0.7-1,1.5-1.9,2.3-2.9c0.8-1,1.8-1.9,2.8-2.9c1.1-0.9,2.1-1.9,3.3-2.7c0.6-0.4,1.2-0.9,1.8-1.3
				c0.6-0.4,1.3-0.8,2-1.2c2.7-1.5,5.7-3,8.9-3.9c3.3-0.9,6.7-1.5,10.4-1.6c3.6,0,7.1,0.6,10.4,1.5c3.3,0.9,6.2,2.3,9,3.8
				c0.7,0.4,1.3,0.8,2,1.2c0.6,0.4,1.2,0.9,1.8,1.3c1.2,0.8,2.3,1.8,3.3,2.7c1,1,2,1.9,2.8,2.8c0.8,1,1.7,1.9,2.3,2.8
				c2.8,3.8,4.5,7.2,5.3,9.7c0.3,0.6,0.4,1.2,0.6,1.7c0.1,0.5,0.2,0.9,0.3,1.2c0.1,0.3,0.1,0.6,0.2,0.8
				C201.6,301.6,201.7,301.7,201.6,301.7z"/>
		</g>
		<g>
			<g>
				<g>
					<path class="st0" d="M214.1,461.3c-0.4,0-7.6-58.7-16.1-131.3c-8.6-72.6-15.2-131.4-14.9-131.4c0.4,0,7.6,58.7,16.1,131.3
						C207.8,402.4,214.5,461.3,214.1,461.3z"/>
				</g>
			</g>
		</g>
		<g>
			<g>
				<g>
					<path class="st0" d="M154.7,300.6c0,0,0.3,0.4,0.9,1.1c0.7,0.8,1.6,1.8,2.8,3.1c0.6,0.7,1.3,1.4,2,2.2c0.7,0.9,1.4,1.8,2.2,2.8
						c0.8,1,1.7,2.1,2.6,3.2c0.9,1.1,1.7,2.4,2.7,3.7c3.8,5.2,7.7,11.8,11.9,19.2c4,7.5,7.9,16.1,11.5,25.2
						c7.2,18.3,11.9,35.6,14.9,48.1c1.5,6.3,2.6,11.4,3.4,14.9c0.4,1.7,0.7,3,0.9,4.1c0.2,0.9,0.4,1.4,0.4,1.4c0,0,0-0.5-0.1-1.4
						c-0.2-1.1-0.4-2.4-0.7-4.1c-0.6-3.6-1.6-8.7-3-15c-2.8-12.6-7.4-30-14.6-48.4c-3.6-9.2-7.6-17.7-11.7-25.3
						c-4.2-7.5-8.2-14.1-12.2-19.2c-1-1.3-1.8-2.6-2.8-3.7c-0.9-1.1-1.8-2.2-2.6-3.2c-0.8-1-1.6-1.9-2.3-2.7
						c-0.7-0.8-1.5-1.5-2.1-2.2c-1.2-1.2-2.2-2.2-2.9-3C155.1,300.9,154.7,300.6,154.7,300.6z"/>
				</g>
			</g>
		</g>
		<g>
			<g>
				<g>
					<path class="st0" d="M225.5,245.5c0,0-0.1,0.7-0.5,2c-0.4,1.4-1,3.2-1.7,5.6c-0.4,1.2-0.8,2.6-1.3,4c-0.4,1.5-0.8,3.1-1.3,4.8
						c-0.9,3.5-2,7.4-3,11.8c-0.5,2.2-1,4.5-1.6,6.9c-0.5,2.4-1,4.9-1.5,7.5c-1.1,5.2-1.8,10.8-2.8,16.7c-1.6,11.8-3,24.9-3.8,38.6
						c-0.7,13.8-0.8,26.9-0.6,38.8c0.3,11.9,0.8,22.7,1.6,31.7c0.3,4.5,0.7,8.6,1.1,12.1c0.3,3.6,0.6,6.6,0.9,9.2
						c0.3,2.4,0.5,4.3,0.6,5.8c0.1,1.3,0.2,2,0.1,2c0,0-0.2-0.7-0.4-2c-0.2-1.4-0.5-3.3-0.9-5.8c-0.4-2.5-0.8-5.6-1.2-9.1
						c-0.4-3.6-0.9-7.6-1.2-12.1c-0.9-9-1.5-19.8-1.8-31.7c-0.3-12-0.2-25.1,0.5-38.9c0.8-13.8,2.2-26.9,3.9-38.7
						c1-5.9,1.8-11.5,2.9-16.7c0.5-2.6,1-5.1,1.5-7.5c0.6-2.4,1.1-4.7,1.7-6.9c1-4.4,2.2-8.3,3.2-11.8c0.5-1.7,1-3.3,1.4-4.8
						c0.5-1.4,1-2.8,1.4-4c0.8-2.3,1.5-4.1,1.9-5.5C225.2,246.1,225.5,245.5,225.5,245.5z"/>
				</g>
			</g>
		</g>
		<g>
			<g>
				<path class="st1" d="M185.6,227c-1.7-8.2-10.9-13.6-19.3-12.7c-8.4,0.9-15.6,6.8-20,14c-4.4,7.2-6.2,15.6-7.6,23.9
					c-3.4,20.3-4.1,41.3,0.7,61.3c4.7,20,15.3,39,31.5,51.7c2.6,2.1,6,4,9.1,3c1.7-0.6,3-2,4.3-3.4c25.6-29.1,37.7-69.7,32.1-108.1
					c-1.1-7.7-3.1-15.6-8.1-21.5C203.4,229.2,192.6,223.6,185.6,227"/>
			</g>
		</g>
		<g>
			<g>
				<g>
					<path class="st0" d="M115.5,167.4c-3.1,7.6-6.2,15.1-9.3,22.7c-0.2,0.5-0.5,1.1-1.1,1.2c-0.6,0.1-1.1-0.4-1.5-0.9
						c-12.2-14.7-24.4-29.5-36.7-44.2l6.7-4.9L115.5,167.4z"/>
				</g>
			</g>
			<g>
				<g>
					<path class="st1" d="M183.1,198.6c-37.8-16.8-75.7-33.7-113.5-50.5c-1.2-0.5-2.4-1.1-2.9-2.3c-0.6-1.5,0.4-3.2,1.4-4.5
						c12.9-16.8,33.1-28,54.2-28.9c21.1-0.9,42.7,8.9,55,26C189.7,155.6,192.9,179.9,183.1,198.6"/>
				</g>
			</g>
			<g>
				<g>
					<g>
						<path class="st0" d="M82.6,126.3c0,0,0.5-0.2,1.4-0.3c0.9-0.2,2.2-0.5,4-0.7c3.5-0.5,8.6-0.8,14.9-0.5
							c6.3,0.3,13.8,1.5,21.7,4c8,2.5,16.4,6.5,24.2,12c7.8,5.7,14.3,12.3,19.2,19.1c4.9,6.7,8.5,13.4,10.8,19.3
							c2.3,5.9,3.6,10.8,4.3,14.3c0.4,1.7,0.4,2.2,0.5,3.1c0.1,0.9-0.5,2.4-0.6,2.4c-0.1,0,0.4-2-0.5-5.4c-0.8-3.4-2.2-8.3-4.7-14
							c-4.7-11.5-14.4-26.5-29.9-37.7c-15.6-11.1-32.9-15.4-45.3-16.1c-6.2-0.4-11.3-0.2-14.8,0.1C84.5,126.2,82.6,126.4,82.6,126.3
							z"/>
					</g>
				</g>
			</g>
			<g>
				<g>
					<g>
						<path class="st0" d="M163.7,157c0.1,0.2-1.9,1.3-5.1,3.1c-3.2,1.7-7.8,4-12.9,6.3c-5.1,2.3-9.8,4.2-13.2,5.5
							c-3.4,1.3-5.6,1.9-5.7,1.8c-0.1-0.2,2-1.1,5.3-2.6c3.8-1.7,8.2-3.6,13.1-5.8c4.8-2.2,9.2-4.2,13-5.9
							C161.6,157.7,163.7,156.8,163.7,157z"/>
					</g>
				</g>
			</g>
			<g>
				<g>
					<g>
						<path class="st0" d="M141.8,113.9c0.3-0.1,1.7,5.1,2.6,11.7c0.9,6.6,1.1,12,0.7,12c-0.4,0-1.1-5.3-2-11.8
							C142.3,119.3,141.5,114,141.8,113.9z"/>
					</g>
				</g>
			</g>
			<g>
				<g>
					<g>
						<path class="st0" d="M68.5,147c-0.1-0.2,2.8-1.6,7.4-3.6c4.7-2,11.2-4.7,18.5-7.4c7.3-2.7,14-4.8,18.9-6.3
							c4.9-1.4,7.9-2.2,8-2c0.1,0.2-2.9,1.2-7.7,2.9c-4.8,1.7-11.4,4-18.7,6.6c-7.3,2.7-13.8,5.2-18.6,7
							C71.5,146.1,68.6,147.2,68.5,147z"/>
					</g>
				</g>
			</g>
		</g>
		<g>
			<g>
				<g>
					<path class="st1" d="M140.9,205.9c-9.2-7-18.9-8.4-30.5-8c-11.5,0.4-22.8,3.9-33.4,8.5C59,214.2,42,225.8,31.2,242.3
						c-10.8,16.4-14.7,38.3-6.7,56.3c0.8,1.8,1.8,3.7,3.6,4.4c1.9,0.8,4.1,0.2,6-0.4c20.5-6.6,41.2-13.3,60.2-23.7
						c18.9-10.4,36.1-24.9,46.3-44c2.4-4.6,4.5-9.5,4.9-14.6C146,215.1,144.6,209.6,140.9,205.9"/>
				</g>
			</g>
			<g>
				<g>
					<g>
						<path class="st0" d="M141.1,203.8c0,0-0.5,0.2-1.5,0.6c-1.1,0.4-2.5,0.9-4.3,1.5c-1,0.3-2,0.7-3.1,1c-1.1,0.4-2.3,0.9-3.6,1.4
							c-2.6,1-5.6,2.1-8.8,3.6c-1.6,0.7-3.3,1.5-5,2.3c-1.7,0.8-3.5,1.8-5.3,2.7c-3.7,1.8-7.5,4.1-11.5,6.5
							c-7.9,4.9-16.2,10.9-24.4,17.9c-8.1,7.1-15.1,14.6-21.1,21.7c-2.9,3.7-5.7,7.1-8,10.5c-1.2,1.7-2.4,3.3-3.4,4.9
							c-1,1.6-2,3.2-2.9,4.7c-1.9,2.9-3.4,5.8-4.8,8.2c-0.7,1.2-1.3,2.4-1.9,3.4c-0.5,1.1-1,2.1-1.4,3c-0.8,1.7-1.5,3-2,4.1
							c-0.5,0.9-0.7,1.4-0.8,1.4c0,0,0.2-0.5,0.6-1.5c0.5-1.1,1.1-2.5,1.8-4.2c0.4-0.9,0.9-1.9,1.3-3c0.5-1.1,1.1-2.2,1.8-3.5
							c1.3-2.5,2.7-5.4,4.6-8.4c0.9-1.5,1.9-3.1,2.9-4.8c1-1.6,2.2-3.3,3.4-5c2.3-3.5,5.1-7,7.9-10.7c6-7.2,13-14.8,21.1-22
							c8.2-7.1,16.6-13.1,24.6-18c4.1-2.3,7.9-4.6,11.6-6.4c1.9-0.9,3.6-1.9,5.4-2.7c1.8-0.8,3.5-1.5,5.1-2.2
							c3.2-1.5,6.3-2.5,8.9-3.5c1.3-0.5,2.5-0.9,3.7-1.3c1.1-0.3,2.2-0.6,3.2-0.9c1.8-0.5,3.3-0.9,4.4-1.2
							C140.6,203.8,141.1,203.7,141.1,203.8z"/>
					</g>
				</g>
			</g>
			<g>
				<g>
					<g>
						<path class="st0" d="M69.1,242.4c0.1,0.3-9.9,3.5-22.4,7.1c-12.5,3.6-22.7,6.2-22.8,5.9c-0.1-0.3,9.9-3.5,22.4-7.1
							C58.8,244.7,69,242.1,69.1,242.4z"/>
					</g>
				</g>
			</g>
			<g>
				<g>
					<g>
						<path class="st0" d="M68,291.8c-0.2,0-0.4-2.7-0.5-7c-0.1-4.3-0.1-10.3,0.1-16.9c0.2-6.6,0.6-12.5,1-16.8
							c0.4-4.3,0.7-6.9,0.9-6.9c0.2,0,0.1,2.7,0,7c-0.2,4.7-0.4,10.5-0.6,16.8c-0.2,6.3-0.3,12.1-0.5,16.8
							C68.3,289.2,68.2,291.8,68,291.8z"/>
					</g>
				</g>
			</g>
			<g>
				<g>
					<g>
						<path class="st0" d="M110.4,270.4c-0.4,0-1.4-12.1-2.4-27.1c-1-15-1.5-27.1-1.1-27.2c0.4,0,1.4,12.1,2.4,27.1
							C110.2,258.2,110.7,270.4,110.4,270.4z"/>
					</g>
				</g>
			</g>
			<g>
				<g>
					<g>
						<path class="st0" d="M57.9,214.9c0-0.2,2.8-0.2,7.2-0.2c4.4,0,10.5,0.2,17.3,0.4c6.7,0.2,12.8,0.5,17.3,0.8
							c4.4,0.3,7.1,0.5,7.1,0.7c0,0.2-2.7,0.2-7.2,0.2c-4.4,0-10.5-0.2-17.3-0.4c-6.7-0.2-12.9-0.5-17.3-0.8
							C60.6,215.3,57.9,215,57.9,214.9z"/>
					</g>
				</g>
			</g>
		</g>
		<g>
			<g>
				<g>
					<path class="st0" d="M175.8,367.5c0,0-0.2-0.5-0.3-1.4c-0.2-1.1-0.4-2.4-0.7-4.1c-0.6-3.5-1.2-8.7-1.8-15
						c-0.6-6.4-1.1-14-1.3-22.5c-0.1-8.5,0-17.8,0.6-27.5c0.7-9.8,1.7-19,3-27.4c1.3-8.4,2.7-15.9,4.2-22.1
						c1.4-6.3,2.7-11.3,3.7-14.7c0.5-1.6,0.9-2.9,1.2-4c0.3-0.9,0.5-1.4,0.5-1.4c0,0,0,0.5-0.2,1.4c-0.2,1.1-0.6,2.4-0.9,4
						c-0.9,3.5-2,8.5-3.3,14.8c-1.3,6.3-2.7,13.8-3.9,22.1c-1.2,8.4-2.2,17.6-2.9,27.3c-0.6,9.7-0.8,19-0.7,27.4
						c0.1,8.4,0.5,16,1,22.4c0.5,6.4,1,11.5,1.4,15.1c0.2,1.7,0.3,3,0.4,4.1C175.8,367,175.9,367.5,175.8,367.5z"/>
				</g>
			</g>
		</g>
		<g>
			<g>
				<g>
					<path class="st0" d="M173.4,297.2c0.1,0.1-1.3,2.1-3.7,5.1c-2.4,3.1-5.9,7.2-9.9,11.6c-4,4.4-7.8,8.3-10.6,11
						c-2.8,2.7-4.6,4.3-4.8,4.2c-0.1-0.1,1.5-1.9,4.1-4.8c2.9-3.2,6.4-7,10.3-11.2c3.8-4.3,7.3-8.1,10.2-11.3
						C171.6,298.9,173.3,297.1,173.4,297.2z"/>
				</g>
			</g>
		</g>
		<g>
			<g>
				<g>
					<path class="st0" d="M210.2,320.4c-0.1,0.1-2.1-2.1-5.2-5.7c-3.4-3.9-7.6-8.8-12.3-14.1c-4.7-5.3-9-10.1-12.5-13.9
						c-3.2-3.6-5.2-5.8-5-5.9c0.1-0.1,2.3,1.9,5.7,5.3c3.4,3.4,7.9,8.2,12.8,13.7c4.8,5.5,9.1,10.6,12,14.4
						C208.6,317.9,210.3,320.3,210.2,320.4z"/>
				</g>
			</g>
		</g>
		<g>
			<g>
				<g>
					<path class="st0" d="M182.7,237.2c0.2,0.3-10.1,9.1-23,19.7c-12.9,10.6-23.6,19-23.8,18.7c-0.2-0.3,10.1-9.1,23-19.7
						C171.8,245.3,182.5,237,182.7,237.2z"/>
				</g>
			</g>
		</g>
		<g>
			<g>
				<g>
					<path class="st0" d="M218.2,267.6c-0.2,0.3-8.6-5.8-18.7-13.7c-10.1-7.8-18.1-14.4-17.9-14.7c0.2-0.3,8.6,5.8,18.7,13.7
						C210.4,260.8,218.4,267.3,218.2,267.6z"/>
				</g>
			</g>
		</g>
		<g>
			<g>
				<g>
					<path class="st1" d="M223.3,253.4l9.5-1.9c6.7-1.3,13.1-4.1,18.7-8.2c2.8-2,5.5-4,8.5-5.6c11.3-6.1,24.7-6.8,37.3-8.9
						c20.7-3.4,40.7-11.1,58.5-22.3c1-0.7,1.9-1.6,2.4-2.7c1.6-3.8-2.5-6.6-5.8-8.2c-17.3-8.1-34.9-16.3-53.8-19.1
						c-18.9-2.8-39.6,0.4-54,13C227.6,204.2,223.9,230.9,223.3,253.4"/>
				</g>
			</g>
			<g>
				<g>
					<g>
						<path class="st0" d="M358.3,202.6c0,0-0.6-0.2-1.7-0.6c-1.2-0.5-2.8-1.1-4.8-1.9c-4.2-1.6-10.2-4-17.8-6.6
							c-7.6-2.6-16.7-5.4-27.2-7c-10.4-1.6-22.2-1.8-34,1.1c-11.8,2.9-22.2,8.9-29.2,16.7c-7,7.9-10.9,16.8-13.4,24.3
							c-2.5,7.6-3.9,13.9-4.9,18.3c-0.5,2.1-0.9,3.8-1.2,5c-0.3,1.1-0.4,1.7-0.5,1.7c0,0,0-0.6,0.2-1.8c0.2-1.3,0.5-3,0.9-5.1
							c0.9-4.4,2.1-10.8,4.6-18.5c2.5-7.6,6.2-16.7,13.4-24.8c7.1-8.1,17.8-14.2,29.8-17.2c12-3,24-2.8,34.5-1.1
							c10.5,1.7,19.7,4.6,27.3,7.3c7.6,2.7,13.5,5.3,17.7,7c2,0.9,3.5,1.6,4.7,2.1C357.8,202.3,358.3,202.6,358.3,202.6z"/>
					</g>
				</g>
			</g>
			<g>
				<g>
					<g>
						<path class="st0" d="M336.7,217.6c-0.2,0.3-13.6-6.4-30.1-14.9c-16.5-8.5-29.7-15.7-29.5-16c0.2-0.3,13.6,6.4,30.1,14.9
							C323.6,210.1,336.9,217.3,336.7,217.6z"/>
					</g>
				</g>
			</g>
			<g>
				<g>
					<g>
						<path class="st0" d="M318.9,181.2c0.1,0.3-3.9,1.7-8.9,2.7c-5.1,1-9.3,1.2-9.3,1c0-0.3,4.1-1,9.1-2
							C314.8,181.8,318.8,180.9,318.9,181.2z"/>
					</g>
				</g>
			</g>
			<g>
				<g>
					<g>
						<path class="st0" d="M263.2,180.4c0.3,0.1-1.2,3.2-3.4,6.9c-2.2,3.7-4.2,6.6-4.5,6.5c-0.3-0.1,1.2-3.2,3.4-6.9
							C260.8,183.2,262.8,180.2,263.2,180.4z"/>
					</g>
				</g>
			</g>
			<g>
				<g>
					<g>
						<path class="st0" d="M280.5,231.6c-0.1,0.2-2.5-0.8-6.4-2.6c-3.9-1.8-9.1-4.4-14.8-7.6c-5.7-3.2-10.7-6.3-14.3-8.5
							c-3.6-2.3-5.8-3.7-5.7-3.9c0.1-0.2,2.4,1,6.2,3.1c4.1,2.3,9,5.1,14.5,8.2c5.7,3.2,10.8,6,14.6,7.9
							C278.2,230.2,280.5,231.4,280.5,231.6z"/>
					</g>
				</g>
			</g>
		</g>
		<g>
			<g>
				<g>
					<path class="st1" d="M126.2,298.6c0.2-7.3-8.4-14-15.7-13.9c-7.3,0.2-13.9,4.4-19.7,9c-12.7,10.1-23.9,22.5-30.9,37.2
						c-7,14.6-9.8,31.6-6.1,47.4c12.9-6,28-5.6,41.4-10.3c11.7-4.2,21.9-12.4,28.5-23c6.6-10.6,9.4-23.4,8-35.7
						C131.1,304.7,130.7,299.4,126.2,298.6"/>
				</g>
			</g>
			<g>
				<g>
					<g>
						<path class="st0" d="M53.8,378.3c0,0,0-0.4,0.2-1.1c0.2-0.7,0.5-1.7,1.1-3c1.2-2.5,3.8-5.8,7.6-8.9c1.9-1.6,3.9-3.4,6.2-5.1
							c2.3-1.8,4.8-3.6,7.4-5.6c2.6-2,5.2-4.1,7.8-6.6c2.5-2.5,4.9-5.2,7.1-8.2c4.5-6,8.1-12.2,11.7-17.6
							c3.6-5.5,7.1-10.2,10.5-13.8c3.4-3.6,6.6-6.1,8.9-7.6c1.2-0.7,2.1-1.3,2.8-1.6c0.6-0.3,1-0.5,1-0.5c0,0.1-1.3,0.8-3.6,2.4
							c-2.2,1.6-5.3,4.1-8.6,7.8c-3.3,3.6-6.8,8.4-10.3,13.8c-3.5,5.5-7.2,11.7-11.7,17.7c-2.3,3-4.7,5.9-7.2,8.3
							c-2.6,2.5-5.3,4.6-7.9,6.6c-2.6,1.9-5.1,3.8-7.4,5.5c-2.3,1.7-4.4,3.5-6.3,5c-3.8,3.1-6.4,6.1-7.7,8.6
							C54.2,376.8,53.9,378.3,53.8,378.3z"/>
					</g>
				</g>
			</g>
			<g>
				<g>
					<g>
						<path class="st0" d="M56.9,340c0-0.1,1.8-0.3,4.8-0.4c3-0.1,7.1-0.1,11.6,0.1c4.5,0.2,8.6,0.6,11.6,1.1
							c2.9,0.4,4.8,0.8,4.7,0.9c0,0.1-1.9,0-4.8-0.2c-3-0.2-7-0.5-11.6-0.8c-4.5-0.2-8.6-0.3-11.6-0.4
							C58.8,340.2,56.9,340.1,56.9,340z"/>
					</g>
				</g>
			</g>
			<g>
				<g>
					<g>
						<path class="st0" d="M98.1,366.8c-0.1,0-0.1-2,0-5.1c0.1-3.2,0.2-7.5,0.2-12.3c0-4.8-0.2-9.2-0.3-12.3c-0.1-3.2-0.2-5.1,0-5.1
							c0.1,0,0.4,1.9,0.7,5.1c0.3,3.2,0.6,7.5,0.6,12.4c0,4.8-0.2,9.2-0.5,12.4C98.6,364.9,98.3,366.8,98.1,366.8z"/>
					</g>
				</g>
			</g>
			<g>
				<g>
					<g>
						<path class="st0" d="M74.7,308.9c0-0.1,2.1-0.3,5.6-0.5c3.4-0.1,8.2-0.2,13.5-0.1c5.3,0.2,10,0.5,13.4,0.9
							c3.4,0.4,5.5,0.7,5.5,0.8c0,0.1-2.1,0.1-5.6-0.1c-3.4-0.2-8.2-0.4-13.4-0.6c-5.2-0.2-10-0.2-13.4-0.2
							C76.8,309.1,74.7,309,74.7,308.9z"/>
					</g>
				</g>
			</g>
			<g>
				<g>
					<g>
						<path class="st0" d="M123.6,344.3c-0.3,0-1.5-8.8-2.8-19.6c-1.3-10.9-2.1-19.7-1.9-19.8c0.3,0,1.5,8.8,2.8,19.6
							C123,335.4,123.8,344.3,123.6,344.3z"/>
					</g>
				</g>
			</g>
		</g>
		<g>
			<path class="st0" d="M186.3,222.8c-0.2,0.1-0.6-3.2-3.5-7.4c-1.4-2.1-3.5-4.4-6.3-6.3c-1.4-1-2.9-1.9-4.5-2.7
				c-1.6-0.8-3.4-1.5-5.3-2.1c-1.9-0.6-3.7-0.8-5.6-1c-1.8-0.1-3.6-0.2-5.3-0.2c-3.4,0-6.4,0.1-9,0.3c-2.6,0.2-4.6,0.4-6,0.6
				c-0.7,0.1-1.3,0.2-1.6,0.3c-0.4,0.1-0.6,0.1-0.6,0.1c0,0,0.2-0.1,0.5-0.2c0.4-0.1,0.9-0.3,1.6-0.4c1.4-0.3,3.5-0.6,6-0.8
				c2.6-0.2,5.6-0.4,9-0.4c1.7,0,3.5,0.1,5.3,0.2c1.8,0.2,3.8,0.4,5.7,1c1.9,0.6,3.7,1.3,5.3,2.1c1.7,0.8,3.2,1.8,4.6,2.8
				c2.8,2,4.9,4.3,6.3,6.5c1.4,2.2,2.2,4.1,2.7,5.5c0.2,0.7,0.3,1.2,0.4,1.6C186.3,222.6,186.4,222.8,186.3,222.8z"/>
		</g>
	</g>
	<g>
		<g>
			<g>
				<g>
					<g>
						<g>
							<path class="st2" d="M343,429.2c-41-19.1-57.6-65.1-63.6-107.9c-1-7.2-3.1-14.5-0.8-21.3c2.3-6.8,9.4-12.5,16.3-10.6
								c5.7,1.6,9.1,7.3,12.9,11.9c5.1,6.1,11.9,10.6,19.5,13c4.9,1.6,10.8,2,14.8-1.2c5.5-4.5,4.8-13.1,3.5-20.1
								c-2.4-13.2-4.8-26.3-7.2-39.5c-1.3-7.1-2.6-14.3-1.5-21.4c1-7.1,4.8-14.2,11.2-17.2c6.4-3.1,15.4-0.6,18,6
								c1.1,2.8,1,5.9,1.7,8.8c0.7,2.9,2.6,5.9,5.6,6.2c3,0.3,5.4-2.2,7.2-4.6c6-8.4,9.4-18.5,12.4-28.4c3-10,5.9-20.1,11.1-29.1
								c5.3-8.9,13.3-16.7,23.4-19.1c10-2.3,21.9,2,26.2,11.5c4.3,9.5,0.3,20.7-4.6,29.8c-7.3,13.6-16.5,26.1-27.4,37.1
								c-2,2-4.1,4.1-4.5,6.9c-0.7,5,4.6,8.9,9.5,9.6c5.6,0.8,11.2-0.7,16.8-1c5.6-0.3,12,1.1,15,5.9c4.2,6.7-0.6,15.4-5.6,21.4
								c-10.2,12-22.4,22.3-36,30.1c-4.9,2.8-10,5.4-13.6,9.8c-3.6,4.4-5,11.2-1.6,15.7c3.4,4.5,10.2,5,15.5,3
								c5.3-2,9.6-5.8,14.5-8.6c9.1-5.4,21.7-6.9,29.4,0.4c5.1,4.8,6.8,12.4,5.8,19.4c-0.9,6.9-4.1,13.3-7.7,19.4
								c-12.4,21-29.7,39.2-50.9,51C387.3,427.7,366.8,433.5,343,429.2"/>
						</g>
					</g>
				</g>
			</g>
		</g>
		<g>
			<g>
				<g>
					<g>
						<g>
							<g>
								<path class="st0" d="M348,460.9c-1.4-17.1-1.2-37.7,1.3-60.3c2.5-22.6,7.3-47.1,13.2-72.6c1.5-6.4,3-12.7,4.4-18.9
									c1.5-6.2,2.9-12.3,4.7-18.2c3.5-11.8,7.9-23,12.3-33.4c4.4-10.4,9-20.2,13.3-29.2c4.4-9.1,8.6-17.4,12.8-24.9
									c8.3-15,16.4-26.2,22.3-33.7c2.9-3.8,5.3-6.6,6.9-8.5c0.8-0.9,1.4-1.6,1.9-2.2c0.4-0.5,0.7-0.7,0.7-0.7c0,0-0.2,0.3-0.6,0.8
									c-0.4,0.6-1,1.3-1.8,2.2c-1.6,2-3.9,4.9-6.7,8.7c-5.8,7.6-13.7,18.9-21.9,33.9c-4.1,7.5-8.3,15.9-12.6,24.9
									c-4.3,9.1-8.8,18.8-13.2,29.2c-4.4,10.4-8.6,21.5-12.2,33.3c-1.8,5.9-3.2,12-4.7,18.2c-1.5,6.2-2.9,12.5-4.4,18.8
									c-5.9,25.5-10.7,49.9-13.3,72.5c-2.6,22.5-2.9,43-1.6,60.1"/>
							</g>
						</g>
					</g>
				</g>
			</g>
		</g>
		<g>
			<g>
				<g>
					<g>
						<g>
							<g>
								<path class="st0" d="M372,290.7c-0.1,0-0.5-1-1.2-2.9c-0.7-1.9-1.7-4.7-2.8-8.1c-2.2-6.9-5-16.5-8-27
									c-3-10.6-5.9-20.1-8.2-26.9c-1.2-3.4-2.1-6.2-2.8-8.1c-0.7-1.9-1-3-0.9-3c0.1,0,0.6,1,1.4,2.8c0.8,1.8,1.9,4.5,3.2,7.9
									c2.6,6.8,5.6,16.3,8.6,26.9c2.9,10.4,5.6,19.9,7.6,27.1c0.9,3.3,1.7,6,2.4,8.2C371.9,289.6,372.1,290.7,372,290.7z"/>
							</g>
						</g>
					</g>
				</g>
			</g>
		</g>
		<g>
			<g>
				<g>
					<g>
						<g>
							<g>
								<path class="st0" d="M460,257.8c0,0.1-1.2,0.5-3.6,1.1c-2.3,0.6-5.6,1.5-9.7,2.7c-8.2,2.4-19.3,6-31.5,10.6
									c-12.1,4.6-23,9.2-30.7,12.8c-3.9,1.8-7,3.3-9.1,4.3c-2.1,1-3.4,1.6-3.4,1.5c0-0.1,1.1-0.8,3.2-2c2.1-1.2,5.1-2.8,9-4.7
									c7.6-3.8,18.4-8.6,30.6-13.2c12.2-4.6,23.4-8.1,31.7-10.2c4.1-1.1,7.5-1.8,9.8-2.3C458.7,257.9,460,257.7,460,257.8z"/>
							</g>
						</g>
					</g>
				</g>
			</g>
		</g>
		<g>
			<g>
				<g>
					<g>
						<g>
							<g>
								<path class="st0" d="M350.1,398.7c0,0-0.3-0.3-0.8-1c-0.6-0.8-1.3-1.8-2.1-3c-1.8-2.6-4.4-6.5-7.5-11.3
									c-6.2-9.6-14.4-23.2-23.2-38.4c-8.8-15.1-16.8-28.8-22.8-38.5c-2.9-4.7-5.3-8.6-7.1-11.5c-0.8-1.3-1.4-2.3-1.9-3.2
									c-0.4-0.7-0.6-1.1-0.6-1.2c0,0,0.3,0.3,0.8,1c0.6,0.8,1.3,1.8,2.1,3c1.8,2.6,4.4,6.5,7.5,11.3c6.2,9.6,14.4,23.2,23.2,38.4
									c8.8,15.1,16.8,28.8,22.8,38.5c2.9,4.7,5.3,8.6,7.1,11.5c0.8,1.3,1.4,2.3,1.9,3.2C350,398.3,350.2,398.7,350.1,398.7z"/>
							</g>
						</g>
					</g>
				</g>
			</g>
		</g>
		<g>
			<g>
				<g>
					<g>
						<g>
							<g>
								<path class="st0" d="M464.1,338.6c0,0-0.4,0.3-1.1,0.7c-0.9,0.5-2,1.1-3.3,1.8c-3.1,1.6-7.2,3.8-12.2,6.5
									c-10.3,5.5-24.4,13.2-40.1,21.7c-15.6,8.5-29.8,16.1-40.3,21.3c-5.2,2.6-9.4,4.7-12.4,6.1c-1.4,0.6-2.5,1.1-3.4,1.6
									c-0.8,0.3-1.2,0.5-1.2,0.5c0,0,0.4-0.3,1.1-0.7c0.9-0.5,2-1.1,3.3-1.8c3.1-1.6,7.2-3.8,12.2-6.5
									c10.3-5.5,24.4-13.2,40.1-21.7c15.6-8.5,29.8-16.1,40.3-21.3c5.2-2.6,9.4-4.7,12.4-6.1c1.4-0.6,2.5-1.1,3.4-1.6
									C463.7,338.7,464.1,338.6,464.1,338.6z"/>
							</g>
						</g>
					</g>
				</g>
			</g>
		</g>
	</g>
	<g>
		<g>
			<path class="st0" d="M364.9,124.6c0,0-0.1-0.5-0.1-1.3c0-1,0-2.2-0.1-3.6c0-3-0.1-7.2-0.1-11.9c0-0.2,0-0.4,0-0.6l0-0.3l0.3,0
				c4.5,0,8.6,0,11.5,0.1c1.4,0,2.5,0.1,3.5,0.1c0.8,0,1.3,0.1,1.3,0.1c0,0-0.4,0.1-1.3,0.1c-0.9,0-2.1,0-3.5,0.1
				c-2.9,0-7,0.1-11.5,0.1l0.3-0.3c0,0.2,0,0.4,0,0.6c0,4.6,0,8.8-0.1,11.9c0,1.4-0.1,2.6-0.1,3.6C365,124.2,365,124.6,364.9,124.6z
				"/>
		</g>
		<g>
			<path class="st0" d="M397.7,144.3c-0.1,0-0.1-0.9-0.2-2.2c0-1.4-0.1-3.3-0.1-5.4c0-0.1,0-0.2,0-0.3l0-0.3l0.3,0
				c2,0,3.9,0,5.2,0.1c1.3,0,2.1,0.1,2.1,0.2c0,0.1-0.8,0.1-2.1,0.2c-1.3,0-3.2,0.1-5.2,0.1l0.3-0.3c0,0.1,0,0.2,0,0.3
				c0,2.1,0,4-0.1,5.4C397.9,143.4,397.8,144.3,397.7,144.3z"/>
		</g>
		<g>
			<path class="st0" d="M405.4,158.8c0,0.1-0.9,0.1-2.2,0.2c-1.4,0-3.3,0.1-5.4,0.1c-0.1,0-0.2,0-0.3,0l-0.3,0l0-0.3
				c0-2,0-3.9,0.1-5.2c0-1.3,0.1-2.1,0.2-2.1s0.1,0.8,0.2,2.1c0,1.3,0.1,3.2,0.1,5.2l-0.3-0.3c0.1,0,0.2,0,0.3,0c2.1,0,4,0,5.4,0.1
				S405.4,158.7,405.4,158.8z"/>
		</g>
		<g>
			<path class="st0" d="M427.6,151.2c0.1,0,0.1,0.9,0.2,2.2c0,1.4,0.1,3.3,0.1,5.4c0,0.1,0,0.2,0,0.3l0,0.3l-0.3,0
				c-2,0-3.9,0-5.2-0.1c-1.3,0-2.1-0.1-2.1-0.2s0.8-0.1,2.1-0.2c1.3,0,3.2-0.1,5.2-0.1l-0.3,0.3c0-0.1,0-0.2,0-0.3
				c0-2.1,0-4,0.1-5.4C427.4,152,427.5,151.2,427.6,151.2z"/>
		</g>
		<g>
			<path class="st0" d="M420,136.4c0-0.1,0.9-0.1,2.2-0.2c1.4,0,3.3-0.1,5.4-0.1c0.1,0,0.2,0,0.3,0l0.3,0l0,0.3c0,2,0,3.9-0.1,5.2
				c0,1.3-0.1,2.1-0.2,2.1c-0.1,0-0.1-0.8-0.2-2.1c0-1.3-0.1-3.2-0.1-5.2l0.3,0.3c-0.1,0-0.2,0-0.3,0c-2.1,0-4,0-5.4-0.1
				C420.8,136.5,420,136.5,420,136.4z"/>
		</g>
		<g>
			<path class="st0" d="M381.7,187.8c0,0-0.5,0.1-1.3,0.1c-1,0-2.2,0-3.6,0.1c-3,0-7.2,0.1-11.9,0.1c-0.2,0-0.4,0-0.6,0l-0.3,0
				l0-0.3c0-4.5,0-8.6,0.1-11.5c0-1.4,0.1-2.5,0.1-3.5c0-0.8,0.1-1.3,0.1-1.3c0,0,0.1,0.4,0.1,1.3c0,0.9,0,2.1,0.1,3.5
				c0,2.9,0.1,7,0.1,11.5l-0.3-0.3c0.2,0,0.4,0,0.6,0c4.6,0,8.8,0,11.9,0.1c1.4,0,2.6,0.1,3.6,0.1
				C381.3,187.7,381.7,187.7,381.7,187.8z"/>
		</g>
		<g>
			<path class="st0" d="M459.6,170.4c0,0,0.1,0.5,0.1,1.3c0,1,0,2.2,0.1,3.6c0,3,0.1,7.2,0.1,11.9c0,0.2,0,0.4,0,0.6l0,0.3l-0.3,0
				c-4.5,0-8.6,0-11.5-0.1c-1.4,0-2.5-0.1-3.5-0.1c-0.8,0-1.3-0.1-1.3-0.1c0,0,0.4-0.1,1.3-0.1c0.9,0,2.1,0,3.5-0.1
				c2.9,0,7-0.1,11.5-0.1l-0.3,0.3c0-0.2,0-0.4,0-0.6c0-4.6,0-8.8,0.1-11.9c0-1.4,0.1-2.6,0.1-3.6
				C459.5,170.8,459.6,170.4,459.6,170.4z"/>
		</g>
		<g>
			<path class="st0" d="M442.8,107.2c0,0,0.5-0.1,1.3-0.1c1,0,2.2,0,3.6-0.1c3,0,7.2-0.1,11.9-0.1c0.2,0,0.4,0,0.6,0l0.3,0l0,0.3
				c0,4.5,0,8.6-0.1,11.5c0,1.4-0.1,2.5-0.1,3.5c0,0.8-0.1,1.3-0.1,1.3c0,0-0.1-0.4-0.1-1.3c0-0.9,0-2.1-0.1-3.5
				c0-2.9-0.1-7-0.1-11.5l0.3,0.3c-0.2,0-0.4,0-0.6,0c-4.6,0-8.8,0-11.9-0.1c-1.4,0-2.6-0.1-3.6-0.1
				C443.3,107.3,442.8,107.3,442.8,107.2z"/>
		</g>
		<path class="st0" d="M454,113.7c0,0.9-0.7,1.6-1.6,1.6s-1.6-0.7-1.6-1.6c0-0.9,0.7-1.6,1.6-1.6S454,112.8,454,113.7z"/>
		<path class="st0" d="M375.8,115.3h-6.6c-0.3,0-0.5-0.2-0.5-0.5v-2.3c0-0.3,0.2-0.5,0.5-0.5h6.6c0.3,0,0.5,0.2,0.5,0.5v2.3
			C376.3,115.1,376.1,115.3,375.8,115.3z"/>
		<rect x="376.8" y="113" class="st0" width="1.3" height="1.5"/>
	</g>
	<g>
		<g>
			<path class="st0" d="M76.3,58c0,0-0.1-0.5-0.1-1.4c0-1,0-2.3-0.1-3.9c0-3.3-0.1-7.9-0.1-12.9c0-0.2,0-0.4,0-0.7l0-0.3l0.3,0
				c4.9,0,9.3,0,12.5,0.1c1.5,0,2.8,0.1,3.8,0.1c0.9,0,1.4,0.1,1.4,0.1c0,0-0.5,0.1-1.4,0.1c-1,0-2.2,0-3.8,0.1
				c-3.2,0-7.6,0.1-12.5,0.1l0.3-0.3c0,0.2,0,0.4,0,0.7c0,5.1,0,9.6-0.1,12.9c0,1.6-0.1,2.9-0.1,3.9C76.4,57.5,76.4,58,76.3,58z"/>
		</g>
		<g>
			<path class="st0" d="M112.1,79.3c-0.1,0-0.1-0.9-0.2-2.4c0-1.5-0.1-3.6-0.1-5.9c0-0.1,0-0.2,0-0.3l0-0.3l0.3,0
				c2.2,0,4.2,0,5.7,0.1c1.4,0,2.3,0.1,2.3,0.2c0,0.1-0.9,0.1-2.3,0.2c-1.4,0-3.4,0.1-5.7,0.1l0.3-0.3c0,0.1,0,0.2,0,0.3
				c0,2.3,0,4.4-0.1,5.9C112.2,78.4,112.2,79.3,112.1,79.3z"/>
		</g>
		<g>
			<path class="st0" d="M120.4,95.1c0,0.1-0.9,0.1-2.4,0.2c-1.5,0-3.6,0.1-5.9,0.1c-0.1,0-0.2,0-0.3,0l-0.3,0l0-0.3
				c0-2.2,0-4.2,0.1-5.7c0-1.4,0.1-2.3,0.2-2.3c0.1,0,0.1,0.9,0.2,2.3c0,1.4,0.1,3.4,0.1,5.7l-0.3-0.3c0.1,0,0.2,0,0.3,0
				c2.3,0,4.4,0,5.9,0.1C119.5,95,120.4,95.1,120.4,95.1z"/>
		</g>
		<g>
			<path class="st0" d="M144.6,86.9c0.1,0,0.1,0.9,0.2,2.4c0,1.5,0.1,3.6,0.1,5.9c0,0.1,0,0.2,0,0.3l0,0.3l-0.3,0
				c-2.2,0-4.2,0-5.7-0.1c-1.4,0-2.3-0.1-2.3-0.2c0-0.1,0.9-0.1,2.3-0.2c1.4,0,3.4-0.1,5.7-0.1l-0.3,0.3c0-0.1,0-0.2,0-0.3
				c0-2.3,0-4.4,0.1-5.9C144.4,87.8,144.5,86.9,144.6,86.9z"/>
		</g>
		<g>
			<path class="st0" d="M136.3,70.8c0-0.1,0.9-0.1,2.4-0.2c1.5,0,3.6-0.1,5.9-0.1c0.1,0,0.2,0,0.3,0l0.3,0l0,0.3
				c0,2.2,0,4.2-0.1,5.7c0,1.4-0.1,2.3-0.2,2.3s-0.1-0.9-0.2-2.3c0-1.4-0.1-3.4-0.1-5.7l0.3,0.3c-0.1,0-0.2,0-0.3,0
				c-2.3,0-4.4,0-5.9-0.1C137.2,70.9,136.3,70.8,136.3,70.8z"/>
		</g>
		<g>
			<path class="st0" d="M94.6,126.7c0,0-0.5,0.1-1.4,0.1c-1,0-2.3,0-3.9,0.1c-3.3,0-7.9,0.1-12.9,0.1c-0.2,0-0.4,0-0.7,0h-0.3l0-0.3
				c0-4.9,0-9.3,0.1-12.5c0-1.5,0.1-2.8,0.1-3.8c0-0.9,0.1-1.4,0.1-1.4c0,0,0.1,0.5,0.1,1.4c0,1,0,2.2,0.1,3.8
				c0,3.2,0.1,7.6,0.1,12.5l-0.3-0.3c0.2,0,0.4,0,0.7,0c5.1,0,9.6,0,12.9,0.1c1.6,0,2.9,0.1,3.9,0.1
				C94.1,126.6,94.6,126.7,94.6,126.7z"/>
		</g>
		<g>
			<path class="st0" d="M179.5,107.8c0,0,0.1,0.5,0.1,1.4c0,1,0,2.3,0.1,3.9c0,3.3,0.1,7.9,0.1,12.9c0,0.2,0,0.4,0,0.7v0.3l-0.3,0
				c-4.9,0-9.3,0-12.5-0.1c-1.5,0-2.8-0.1-3.8-0.1c-0.9,0-1.4-0.1-1.4-0.1c0,0,0.5-0.1,1.4-0.1c1,0,2.2,0,3.8-0.1
				c3.2,0,7.6-0.1,12.5-0.1l-0.3,0.3c0-0.2,0-0.4,0-0.7c0-5.1,0-9.6,0.1-12.9c0-1.6,0.1-2.9,0.1-3.9
				C179.4,108.3,179.4,107.8,179.5,107.8z"/>
		</g>
		<g>
			<path class="st0" d="M161.2,39c0,0,0.5-0.1,1.4-0.1c1,0,2.3,0,3.9-0.1c3.3,0,7.9-0.1,12.9-0.1c0.2,0,0.4,0,0.7,0h0.3l0,0.3
				c0,4.9,0,9.3-0.1,12.5c0,1.5-0.1,2.8-0.1,3.8c0,0.9-0.1,1.4-0.1,1.4c0,0-0.1-0.5-0.1-1.4c0-1,0-2.2-0.1-3.8
				c0-3.2-0.1-7.6-0.1-12.5l0.3,0.3c-0.2,0-0.4,0-0.7,0c-5.1,0-9.6,0-12.9-0.1c-1.6,0-2.9-0.1-3.9-0.1
				C161.7,39.1,161.2,39.1,161.2,39z"/>
		</g>
		<path class="st0" d="M173.3,46.1c0,1-0.8,1.8-1.8,1.8s-1.8-0.8-1.8-1.8c0-1,0.8-1.8,1.8-1.8S173.3,45.1,173.3,46.1z"/>
		<path class="st0" d="M88.3,47.8H81c-0.3,0-0.5-0.2-0.5-0.5v-2.5c0-0.3,0.2-0.5,0.5-0.5h7.3c0.3,0,0.5,0.2,0.5,0.5v2.5
			C88.8,47.6,88.6,47.8,88.3,47.8z"/>
		<rect x="89.3" y="45.3" class="st0" width="1.4" height="1.6"/>
	</g>
</g>
<g id="Background_Simple" class="st3">
	<path class="st4" d="M459.8,118.2l-2.6-4.3c-22.3-36.4-62.7-58.3-105.3-55.6c-5.5,0.3-10.9,1.1-16.3,2.2
		c-38.7,8.2-72.4,37.1-86.4,74.1c-8.2,21.8-10.5,46.8-26.1,64.1c-20.3,22.5-54.7,23.2-85,22.3c-30.3-0.9-64.7-0.1-84.9,22.4
		c-12.6,14.1-16.7,34.3-15.6,53.2c2.7,50.1,38.1,95,83.1,117.3c45,22.3,98,24.3,147.3,14.5c69-13.7,134.6-51.5,174.1-109.7
		S491.4,181.1,459.8,118.2z"/>
</g>
<g id="Floor">
	<g>
		<path class="st5" d="M472,460.7c0,0.1-94.9,0.3-211.9,0.3c-117.1,0-212-0.1-212-0.3s94.9-0.3,212-0.3
			C377.1,460.4,472,460.5,472,460.7z"/>
	</g>
</g>
<g id="Character">
	<g>
		<g>
			<g>
				<path class="st5" d="M179.7,261.4c0,0-0.1-0.1-0.2-0.4c-0.1-0.3-0.3-0.7-0.4-1.2c-0.4-1-0.9-2.6-1.6-4.6c-0.7-2-1.5-4.5-2.2-7.4
					c-0.7-2.9-1.4-6.3-1.5-10.1c-0.2-3.8,0.2-8,1.6-12.3c0.7-2.1,1.7-4.2,3.1-6.2c1.3-2,3.1-3.7,4.9-5.4c1.8-1.7,3.8-3.3,5.7-5.1
					c1.9-1.8,3.6-3.8,5.1-6c3-4.5,5-9.8,6.3-15.4c1.2-5.6,1.7-11.2,2-16.6c0.3-5.4,0.4-10.7,0.8-15.7c0.4-5,1-9.7,2.1-14
					c0.5-2.2,1.2-4.2,2-6.1c0.8-1.9,1.7-3.7,2.7-5.3c1.9-3.3,4.2-5.9,6.4-8c2.2-2.1,4.4-3.5,6.3-4.4c1.9-0.9,3.5-1.4,4.6-1.7
					c0.5-0.1,0.9-0.2,1.2-0.3c0.3-0.1,0.4-0.1,0.4-0.1c0,0-0.1,0.1-0.4,0.1c-0.3,0.1-0.7,0.2-1.2,0.3c-1.1,0.3-2.6,0.8-4.5,1.8
					c-1.9,1-4,2.4-6.2,4.5c-2.2,2.1-4.4,4.7-6.2,8c-1,1.6-1.8,3.4-2.6,5.3c-0.8,1.9-1.4,3.9-2,6.1c-1.1,4.3-1.7,9-2.1,14
					c-0.4,5-0.5,10.2-0.7,15.6c-0.3,5.4-0.7,11.1-2,16.7c-1.2,5.6-3.3,11-6.3,15.6c-1.5,2.3-3.3,4.3-5.2,6.1
					c-1.9,1.8-3.9,3.4-5.7,5.1c-1.8,1.7-3.5,3.4-4.9,5.3c-1.3,1.9-2.3,4-3.1,6.1c-1.4,4.2-1.8,8.3-1.7,12.1c0.1,3.8,0.8,7.1,1.4,10
					c0.7,2.9,1.4,5.4,2.1,7.4c0.7,2,1.2,3.5,1.5,4.6c0.2,0.5,0.3,0.9,0.4,1.2C179.7,261.3,179.7,261.4,179.7,261.4z"/>
			</g>
			<path class="st5" d="M295.5,108.1c9.4-1.9,18.5,5.3,22.6,14s4.4,18.5,5.6,28c4.7,37,23.2,70.8,45.3,100.8
				c12.4,16.8,26.6,34,28.5,54.8c0.4,4.2,0.2,8.8-2.3,12.3c-2.5,3.4-8,4.9-11.1,2l-97.8-6.2L295.5,108.1z"/>
			<path class="st5" d="M274.4,105.2c-13.2-10.9-35.5-7.5-47.9,3.4c-12.3,10.8-18.5,27.3-20.5,43.5c-1.6,13-0.7,26.1-1.7,39.2
				c-1,13-4,26.5-12.2,36.6c-9.4,11.7-25.2,18.8-29.7,33c-2.5,7.8-1,16.4,1,24.4c1.6,6.5,4.1,13.6,10,16.6c5,2.5,11,1.4,16.5,0.2
				c21.8-4.7,43.6-9.5,65.3-14.4c3.4-0.7,6.9-1.6,9.3-4.1c2.6-2.8,3-7,3.3-10.8C271.5,215.4,273.7,162.7,274.4,105.2"/>
			<g>
				<g>
					<g>
						<g>
							<g>
								<g>
									<g>
										<g>
											<g>
												<g>
													<g>
														<path class="st6" d="M308.5,125.9l0.1,9.2l4.1,138c0.2,16.1-10.9,29.5-28.1,29.7l0,0c-17.4,0.1-31.8-12.9-32.3-29.2
															c-0.5-17-1.4-34.9-1.4-34.9s-22-3-27.4-31.5c-2.7-14.2-2.6-37.5-1.9-56.6c0.6-17.2,15.4-30.4,32.6-29.1L308.5,125.9z"
															/>
													</g>
												</g>
											</g>
										</g>
									</g>
									<g>
										<g>
											<g>
												<g>
													<g>
														<g>
															<g>
																<path class="st5" d="M227,168.3c0.5,0.5,3.2-1.7,7.1-1.8c3.9-0.2,6.9,1.8,7.3,1.3c0.2-0.2-0.3-1.1-1.6-2
																	c-1.3-0.9-3.4-1.7-5.9-1.6c-2.5,0.1-4.5,1-5.7,2C227.2,167.2,226.8,168.1,227,168.3z"/>
															</g>
														</g>
													</g>
												</g>
											</g>
										</g>
									</g>
									<g>
										<g>
											<g>
												<g>
													<g>
														<g>
															<path class="st5" d="M270,166.9c0,1.9,1.6,3.6,3.6,3.6c2,0.1,3.7-1.5,3.7-3.4c0-1.9-1.6-3.6-3.6-3.6
																C271.7,163.4,270,164.9,270,166.9z"/>
														</g>
													</g>
												</g>
											</g>
										</g>
										<g>
											<g>
												<g>
													<g>
														<g>
															<g>
																<path class="st5" d="M265.9,162.2c0.5,0.5,3.2-1.7,7.1-1.8c3.9-0.2,6.9,1.8,7.3,1.3c0.2-0.2-0.3-1.1-1.6-2
																	c-1.3-0.9-3.4-1.7-5.9-1.6c-2.5,0.1-4.5,1-5.7,2C266,161.2,265.6,162,265.9,162.2z"/>
															</g>
														</g>
													</g>
												</g>
											</g>
										</g>
									</g>
									<g>
										<g>
											<g>
												<g>
													<g>
														<g>
															<path class="st5" d="M252.4,191.9c0-0.2-2.5-0.6-6.4-1c-1-0.1-2-0.3-2.2-0.9c-0.3-0.7,0.1-1.8,0.6-3
																c0.9-2.5,1.8-5.1,2.8-7.8c3.8-11.1,6.6-20.1,6.1-20.3c-0.4-0.2-3.9,8.7-7.8,19.7c-0.9,2.7-1.8,5.3-2.6,7.8
																c-0.4,1.2-1,2.5-0.4,4c0.3,0.7,1,1.3,1.7,1.4c0.7,0.2,1.2,0.2,1.7,0.2C249.9,192.2,252.3,192.2,252.4,191.9z"/>
														</g>
													</g>
												</g>
											</g>
										</g>
									</g>
									<g>
										<g>
											<g>
												<g>
													<g>
														<path class="st7" d="M250.9,238.8c0,0,19.3,0.7,38.1-11.3c0,0-8.8,19.9-37.5,18L250.9,238.8z"/>
													</g>
												</g>
											</g>
										</g>
									</g>
									<g>
										<g>
											<g>
												<g>
													<g>
														<path class="st7" d="M254.3,201.4c1.4-1.9,3.8-3,6.3-2.8c1.7,0.1,3.5,0.9,4.6,2.3c1.1,1.4,1.4,3.3,0.4,4.7
															c-1,1.5-3.2,1.9-5.1,1.5c-1.9-0.5-3.6-1.7-5.1-2.9c-0.4-0.3-0.9-0.7-1.2-1.1c-0.3-0.5-0.4-1.1,0-1.5"/>
													</g>
												</g>
											</g>
										</g>
									</g>
									<g>
										<g>
											<g>
												<g>
													<g>
														<g>
															<path class="st5" d="M264.1,194.3c-0.6,0-0.5,4.3-4.1,7.4c-3.6,3.2-8.2,2.8-8.2,3.4c-0.1,0.3,1,0.8,3,0.8
																c1.9,0,4.6-0.7,6.8-2.6c2.2-1.9,3.1-4.4,3.2-6.2C264.9,195.4,264.3,194.3,264.1,194.3z"/>
														</g>
													</g>
												</g>
											</g>
										</g>
									</g>
								</g>
							</g>
						</g>
						<g>
							<g>
								<g>
									<g>
										<g>
											<path class="st5" d="M267.2,148.2c0.4,1.1,4.3,0.4,9,0.9c4.7,0.3,8.4,1.6,9,0.6c0.3-0.5-0.4-1.5-2-2.5
												c-1.5-1-3.9-1.9-6.7-2.2c-2.8-0.2-5.3,0.3-7,1C267.9,146.8,267.1,147.7,267.2,148.2z"/>
										</g>
									</g>
								</g>
							</g>
						</g>
						<g>
							<g>
								<g>
									<g>
										<g>
											<path class="st5" d="M227.6,160.9c0.7,0.9,3.4-0.1,6.7-0.3c3.3-0.2,6.1,0.4,6.7-0.5c0.3-0.5-0.2-1.4-1.4-2.2
												c-1.2-0.8-3.2-1.5-5.5-1.3c-2.2,0.1-4.2,1-5.3,2C227.6,159.6,227.3,160.5,227.6,160.9z"/>
										</g>
									</g>
								</g>
							</g>
						</g>
					</g>
				</g>
			</g>
			<path class="st5" d="M248.1,152.6c-1.8-1.7-2.2-4-2.7-6.2c-1.9,2.4-2.9,5.4-2.9,8.5c-9.8-1-19.7-0.8-29.5,0.7
				c-4.7-14.2,1.1-30.7,12.5-40.4c11.4-9.7,28.9-14.1,43.7-11.6c4.8,0.1,11.7,5.2,11.7,5.2s6.8-2.6,12.2-2.2
				c7.9,0.5,14.5,4.1,18.7,10.8c4.2,6.7,5.3,14.8,5.4,22.7c0.2,10.9-1.4,21.8-4.5,32.2l0,0c-11.6-2.6-17.9-9.1-23.7-19.4
				c-3.8-6.7-7-19.2-9.1-26.2c0,0-4.6,1.7-9.3,7.7c0,0-8.5,10.2-5.2,18L248.1,152.6z"/>
			<g>
				<path class="st6" d="M307.8,170.3c1.9-1.5,6.6-2.1,8.7-0.9c2.1,1.2,3.5,3.5,4.2,5.8c1.2,3.8,0.6,8.3-2.1,11.2
					c-2.6,3-7.4,4-10.8,1.9"/>
				<g>
					<path class="st7" d="M310.9,183.8c0-0.1,1.1,0.3,2.6-0.2c0.8-0.3,1.6-0.8,2.3-1.6c0.7-0.8,1-2,0.9-3.2c-0.1-1.2-0.6-2.3-1.4-3
						c-0.8-0.7-1.7-1.1-2.5-1.2c-1.6-0.3-2.6,0.3-2.6,0.2c0,0,0.2-0.2,0.7-0.3c0.5-0.2,1.2-0.3,2-0.2c0.9,0.1,1.9,0.4,2.8,1.2
						c0.9,0.8,1.5,2,1.6,3.3c0.1,1.3-0.3,2.6-1.1,3.5c-0.7,0.9-1.7,1.4-2.5,1.6c-0.8,0.2-1.6,0.2-2,0.1
						C311.1,184,310.9,183.8,310.9,183.8z"/>
				</g>
			</g>
			<g>
				<path class="st8" d="M229.4,155.6c0,0,0-0.1,0-0.2c0-0.2,0-0.4-0.1-0.7c-0.1-0.6-0.1-1.5-0.2-2.7c-0.2-2.3-0.3-5.7-0.3-9.9
					c0.1-4.2,0.5-9.2,2-14.5c1.4-5.3,4.1-11,8.4-15.8c2.2-2.4,4.6-4.4,7.2-5.9c2.6-1.5,5.4-2.4,8.2-2.9c5.5-0.9,10.6-0.1,14.6,1
					c4,1.1,7.1,2.5,9.2,3.5c1.1,0.5,1.9,0.9,2.4,1.2c0.2,0.1,0.4,0.2,0.6,0.3c0.1,0.1,0.2,0.1,0.2,0.1c0,0-0.1,0-0.2-0.1
					c-0.2-0.1-0.4-0.2-0.6-0.3c-0.6-0.3-1.4-0.6-2.4-1.1c-2.1-0.9-5.2-2.3-9.3-3.3c-4-1-9-1.9-14.4-0.9c-2.7,0.5-5.4,1.4-8,2.9
					c-2.6,1.4-5,3.4-7.1,5.8c-4.2,4.7-6.9,10.3-8.3,15.6c-1.5,5.3-1.9,10.3-2.1,14.4c-0.1,4.2,0,7.5,0.1,9.9c0.1,1.1,0.1,2,0.1,2.7
					c0,0.3,0,0.5,0,0.7C229.4,155.6,229.4,155.6,229.4,155.6z"/>
			</g>
			<g>
				<path class="st8" d="M252.7,152.8c0,0-0.1-0.2-0.1-0.6c-0.1-0.5-0.1-1-0.2-1.8c-0.2-1.5-0.4-3.8-0.6-6.6
					c-0.2-2.8-0.3-6.1,0.1-9.8c0.4-3.7,1.3-7.7,3.2-11.5c1-1.9,2.1-3.7,3.4-5.2c1.3-1.5,2.8-2.8,4.4-3.8c3.1-2.1,6.3-3.2,9-3.9
					c2.7-0.7,5-1,6.5-1.1c0.8-0.1,1.4-0.1,1.8-0.1c0.4,0,0.6,0,0.6,0c0,0-0.2,0.1-0.6,0.1c-0.4,0-1,0.1-1.8,0.2
					c-1.5,0.2-3.8,0.5-6.4,1.3c-2.7,0.7-5.8,1.9-8.8,3.9c-3,2-5.8,5.1-7.6,8.9c-1.9,3.8-2.8,7.7-3.2,11.3c-0.4,3.6-0.4,6.9-0.2,9.7
					c0.1,2.8,0.3,5,0.4,6.6c0.1,0.7,0.1,1.3,0.1,1.8C252.7,152.6,252.7,152.8,252.7,152.8z"/>
			</g>
			<g>
				<path class="st8" d="M328.3,173.1c-0.1,0,0.3-1.2-0.4-3.3c-0.6-2.1-2.6-4.7-6-6.6c-3.3-2.1-8-2.6-13-3.9
					c-2.5-0.7-5.1-1.6-7.4-3.3c-2.3-1.7-4.2-4-5.8-6.5c-1.6-2.5-2.9-5.2-4-7.7c-1.2-2.6-2.2-5.1-3.1-7.5c-1.8-4.9-3-9.4-3.8-13.2
					c-0.8-3.8-1.2-6.9-1.5-9.1c-0.1-1.1-0.2-1.9-0.2-2.5c0-0.6-0.1-0.9,0-0.9c0,0,0.1,0.3,0.1,0.9c0.1,0.6,0.2,1.4,0.3,2.5
					c0.3,2.2,0.8,5.3,1.6,9.1c0.8,3.8,2.1,8.3,3.9,13.1c0.9,2.4,1.9,4.9,3.1,7.4c1.2,2.5,2.4,5.2,4,7.6c1.6,2.5,3.4,4.7,5.7,6.4
					c2.2,1.6,4.8,2.6,7.2,3.2c2.5,0.7,4.9,1.1,7.1,1.7c2.2,0.6,4.3,1.3,6,2.4c3.4,2,5.4,4.7,6,6.9c0.2,0.5,0.2,1,0.3,1.4
					c0,0.4,0.1,0.8,0,1.1C328.4,172.8,328.3,173.1,328.3,173.1z"/>
			</g>
			<g>
				<path class="st5" d="M385.9,284c0,0,0.3-0.3,0.9-1c0.6-0.6,1.3-1.6,2.1-3.1c1.5-2.8,2.7-7.7,1.4-13.4c-1.2-5.7-4.6-11.9-9-18.1
					c-4.5-6.2-10.3-12.4-16.6-18.7c-6.3-6.2-12.5-12.1-17.6-17.9c-5.1-5.8-9.2-11.5-12-16.6c-2.8-5.1-4.3-9.6-5.2-12.8
					c-0.2-0.8-0.4-1.5-0.5-2.1c-0.1-0.6-0.2-1.1-0.3-1.6c-0.1-0.4-0.1-0.7-0.2-1c0-0.2,0-0.3,0-0.3c0,0,0,0.1,0.1,0.3
					c0.1,0.2,0.1,0.6,0.2,1c0.1,0.4,0.2,0.9,0.3,1.5c0.1,0.6,0.3,1.3,0.6,2.1c0.9,3.1,2.4,7.6,5.3,12.7c2.8,5.1,6.9,10.7,12,16.5
					c5.1,5.8,11.2,11.6,17.6,17.8c6.3,6.2,12.1,12.4,16.6,18.7c4.5,6.3,7.8,12.5,9,18.3c0.6,2.9,0.6,5.6,0.3,7.9
					c-0.3,2.3-1.1,4.2-1.8,5.7c-0.8,1.5-1.6,2.5-2.2,3.1C386.2,283.7,385.9,284,385.9,284z"/>
			</g>
		</g>
		<g>
			<g>
				<path class="st5" d="M296.9,106.6c-5.2-4.2-7.8-11.2-6.9-17.8c1-6.6,5.5-12.5,11.6-15.3c5.3-2.5,11.7-2.6,17-0.1
					c5.3,2.5,9.2,7.8,9.9,13.6c0.7,5.8-2.1,12-7,15.1c-2.4,1.5-5.2,2.3-7.9,3.3c-2.7,1-5.3,2.4-7.1,4.6c-1.7,2.3-2.2,5.7-0.4,7.9"/>
				<g>
					<path class="st8" d="M299.4,77.9c0,0,0.1-0.2,0.3-0.5c0.1-0.2,0.3-0.4,0.5-0.6c0.2-0.2,0.4-0.5,0.7-0.7c1.1-1,3-2.3,5.6-2.8
						c1.3-0.2,2.8-0.3,4.4,0c1.6,0.3,3.2,0.9,4.6,2c2.9,2,5.3,5.5,5.9,9.6c0.6,4.1-0.5,8.1-2.3,11.1c-1.8,3.1-4.2,5.3-6.5,6.7
						c-2.2,1.5-4.3,2.3-5.7,2.7c-0.7,0.2-1.3,0.4-1.6,0.5c-0.4,0.1-0.6,0.1-0.6,0.1c0,0,0.2-0.1,0.6-0.2c0.4-0.1,0.9-0.3,1.6-0.6
						c1.4-0.5,3.4-1.4,5.5-2.8c2.2-1.5,4.5-3.6,6.3-6.6c1.7-3,2.8-6.8,2.2-10.8c-0.6-3.9-2.9-7.3-5.7-9.3c-1.4-1-2.9-1.6-4.4-1.9
						c-1.5-0.3-3-0.2-4.2,0c-2.6,0.4-4.5,1.6-5.5,2.6C299.9,77.2,299.5,77.9,299.4,77.9z"/>
				</g>
			</g>
			<g>
				<path class="st9" d="M311.6,107.3c-1-1.3-2.8-1.8-4.4-1.8c-1.6,0-3.3,0.4-4.9,0.5c-2.7,0.2-5.4-0.5-7.8-1.8
					c-0.6-0.6-1.7-0.6-2.1,0.1c-0.4,0.7-0.1,1.7,0.4,2.3c0.6,0.6,1.4,1,2.2,1.2c3.6,1.1,7.6,0.6,10.9,2.3c1.6,0.8,3.3,2.1,4.9,1.4
					C312.3,110.9,312.6,108.6,311.6,107.3z"/>
				<g>
					<path class="st5" d="M294.8,107.8c0,0,0,0.1,0,0.1l0,0.1l-0.1-0.2c-0.2-0.2-0.4-0.9-0.2-1.7c0.1-0.5,0.4-1,0.6-1.2
						c0.3-0.2,0.5-0.3,0.5-0.2c0.1,0.1-0.5,0.6-0.6,1.5C294.8,107,294.8,107.6,294.8,107.8l-0.1,0.1
						C294.7,107.8,294.7,107.8,294.8,107.8z"/>
				</g>
				<g>
					<path class="st5" d="M298.3,108.5c-0.1,0-0.2-0.1-0.4-0.3c-0.2-0.3-0.3-0.7-0.2-1.2c0.1-0.5,0.3-0.9,0.5-1.1
						c0.2-0.2,0.4-0.3,0.5-0.2c0.1,0.1-0.4,0.6-0.4,1.3C298.2,107.8,298.5,108.4,298.3,108.5z"/>
				</g>
				<g>
					<path class="st5" d="M302.1,109.3c-0.1-0.1,0.2-0.8,0.2-1.7c0-0.9-0.2-1.7-0.1-1.8c0.1-0.1,0.7,0.7,0.6,1.8
						C302.8,108.7,302.2,109.4,302.1,109.3z"/>
				</g>
				<g>
					<path class="st5" d="M306.4,110.9c-0.1-0.1,0.8-1.2,0.6-2.7c-0.1-1.6-1.2-2.5-1.1-2.6c0-0.1,0.4,0.1,0.7,0.5
						c0.4,0.4,0.8,1.1,0.9,2c0.1,0.9-0.2,1.7-0.5,2.1C306.7,110.7,306.4,110.9,306.4,110.9z"/>
				</g>
				<g>
					<path class="st5" d="M309.2,111.5c0-0.1,0.2-0.3,0.6-0.8c0.3-0.5,0.7-1.2,0.8-2c0.1-0.9-0.2-1.6-0.4-2.1
						c-0.2-0.5-0.5-0.8-0.4-0.9c0,0,0.4,0.2,0.8,0.7c0.4,0.5,0.7,1.4,0.6,2.4c-0.1,1-0.6,1.8-1,2.2
						C309.6,111.4,309.2,111.5,309.2,111.5z"/>
				</g>
			</g>
		</g>
		<g>
			<path class="st8" d="M311,114.1c0,0,0,0.1,0.1,0.4c0,0.2,0,0.6,0,1c-0.1,0.9-0.6,2.2-1.7,3.4c-0.6,0.6-1.3,1.1-2.2,1.5
				c-0.9,0.4-1.9,0.6-3,0.7c-2.2,0.1-4.5-0.4-6.8-1.3c-4.6-1.8-8-4.9-10-7.4c-1-1.3-1.7-2.4-2.1-3.2c-0.4-0.8-0.6-1.3-0.6-1.3
				c0.1-0.1,0.9,1.8,2.9,4.2c2,2.4,5.4,5.4,9.9,7.1c2.2,0.9,4.5,1.4,6.6,1.3c2.1-0.1,3.8-0.8,4.9-1.9c1.1-1.1,1.6-2.3,1.8-3.1
				C311,114.6,310.9,114.1,311,114.1z"/>
		</g>
	</g>
	<g>
		<path class="st9" d="M410.8,360.7c-1.2-11.6-7.7-21.9-15-30.9c-7.2-9.1-15.4-17.5-21-27.8c-3.7-6.9-6.1-14.3-9.4-21.4
			c-3.3-7.1-7.6-14-14-18.4c-6.5-4.4-23.8-10.7-37.5-8.3l-1.9,3.2c-20.4,7.4-42.2,8.4-60.3-0.6c-9.9,3.7-51.8,14.1-59.2,26.5
			c-1.8,3-1.3,10.1,0.6,19.5l-33.2-19.7l-29.4,76.2c-0.1,0.2-0.1,0.4-0.2,0.6c-6,20.1,5,41.3,24.8,48l0,0
			c21.1,1.7,41.9-5.2,57.8-19.2l5.5-4.9c4.3,11.6,7.3,19.4,7.3,19.4l-19,57.7h146.8l-21.7-61l7-18c0.9,1.6,1.9,3.2,2.9,4.8
			c6.6,10.5,21.7,21.9,34.1,21.8c7.2-0.1,15.8-4.9,21.2-9.6C407.1,389.9,412.1,373.9,410.8,360.7z"/>
		<g>
			<g>
				<path class="st5" d="M159.9,282.9c0,0,0.1,0,0.2,0.1c0.2,0.1,0.4,0.2,0.6,0.4c0.6,0.3,1.4,0.8,2.5,1.4c2.2,1.3,5.3,3.1,9.2,5.4
					c7.8,4.7,18.9,11.2,31.7,18.8l0.2,0.1l-0.1,0.2c-3.2,6.9-5.2,15-6.6,23.6c-1.6,10.3-2.5,20.3-4.5,29.2c-1,4.4-2.2,8.6-3.6,12.4
					c-1.5,3.8-3.2,7.2-5,10.1c-3.7,5.9-7.9,9.7-11,11.9c-1.6,1.1-2.9,1.9-3.8,2.3c-0.4,0.2-0.8,0.4-1,0.5c-0.2,0.1-0.4,0.2-0.4,0.2
					c0,0,0.1-0.1,0.3-0.2c0.2-0.1,0.6-0.3,1-0.6c0.9-0.5,2.2-1.3,3.7-2.4c3.1-2.3,7.2-6.1,10.8-11.9c1.8-2.9,3.5-6.3,4.9-10
					c1.4-3.8,2.6-7.9,3.5-12.4c1.9-8.9,2.8-18.8,4.5-29.2c1.4-8.6,3.4-16.7,6.6-23.7l0.1,0.3c-12.8-7.7-23.8-14.3-31.6-19
					c-3.9-2.3-6.9-4.2-9.1-5.5c-1-0.6-1.8-1.1-2.4-1.5c-0.3-0.2-0.5-0.3-0.6-0.4C160,282.9,159.9,282.9,159.9,282.9z"/>
			</g>
			<g>
				<path class="st5" d="M338.8,381.6c0,0-0.1-0.2-0.3-0.5c-0.2-0.4-0.4-0.8-0.6-1.4c-0.6-1.3-1.3-3-2.3-5.2
					c-1.9-4.4-4.6-10.4-7.3-17.1c-1.3-3.4-2.4-6.7-2.9-9.9c-0.5-3.1-0.5-6.1,0.4-8.4c0.8-2.3,2.1-3.8,3-4.8c0.5-0.5,0.8-0.9,1.1-1.1
					c0.3-0.2,0.4-0.4,0.4-0.4c0,0-0.5,0.6-1.3,1.6c-0.8,1-2,2.6-2.8,4.8c-0.8,2.2-0.8,5.1-0.2,8.2c0.5,3.1,1.5,6.4,2.9,9.8
					c2.7,6.7,5.4,12.7,7.2,17.1c0.9,2.1,1.6,3.9,2.1,5.2c0.2,0.6,0.4,1,0.6,1.4C338.7,381.5,338.8,381.6,338.8,381.6z"/>
			</g>
			<g>
				<path class="st5" d="M398.7,362c0,0-0.1-0.2-0.3-0.6c-0.2-0.5-0.5-1.1-0.8-1.8c-0.7-1.6-1.6-3.9-2.8-6.7
					c-2.4-5.7-5.6-13.5-9.4-22.1c-3.7-8.6-7.3-16.3-9.8-21.9c-1.3-2.7-3.4-4.4-5.1-4.7c-0.8-0.2-1.5-0.1-1.9,0
					c-0.4,0.1-0.7,0.1-0.7,0.1c0,0,0.1,0,0.2-0.1c0.1,0,0.3-0.1,0.5-0.1c0.4-0.1,1.1-0.2,2-0.1c1.8,0.2,3.9,2,5.3,4.7
					c2.6,5.6,6.2,13.2,10,21.8c3.8,8.6,7,16.4,9.3,22.1c1.1,2.9,2,5.2,2.6,6.8c0.3,0.8,0.5,1.4,0.7,1.9
					C398.6,361.8,398.7,362,398.7,362z"/>
			</g>
			<g>
				<path class="st5" d="M400.9,354.9c-0.1,0-0.4-1.2-1.2-3.2c-0.8-2-2-4.6-3.9-7.2c-1.8-2.6-3.8-4.8-5.4-6.2
					c-1.6-1.4-2.6-2.2-2.6-2.3c0,0,0.3,0.1,0.8,0.5c0.5,0.3,1.2,0.8,2,1.5c1.6,1.4,3.7,3.5,5.6,6.1c1.8,2.7,3.1,5.4,3.8,7.4
					c0.3,1,0.6,1.8,0.7,2.4C400.9,354.6,401,354.9,400.9,354.9z"/>
			</g>
			<g>
				<path class="st5" d="M312.1,390.1c0,0-0.2,0.2-0.6,0.6c-0.4,0.4-1,0.9-1.8,1.5c-1.6,1.3-3.9,3.2-6.9,5.4
					c-5.9,4.3-14.6,10-25.1,14c-5.3,2-10.5,3.3-15.4,4c-4.8,0.7-9.3,0.9-13,0.6c-3.7-0.2-6.7-0.7-8.7-1.2c-1-0.2-1.8-0.5-2.3-0.6
					c-0.5-0.1-0.8-0.2-0.8-0.2c0,0,0.3,0,0.8,0.1c0.5,0.1,1.3,0.3,2.3,0.5c2,0.4,5,0.8,8.6,1c3.7,0.2,8.1,0,12.9-0.7
					c4.8-0.7,10-2.1,15.2-4c10.5-4,19.1-9.6,25.1-13.8c3-2.1,5.4-4,7-5.2c0.8-0.6,1.4-1.1,1.9-1.5
					C311.9,390.3,312.1,390.1,312.1,390.1z"/>
			</g>
			<g class="st10">
				<path d="M310,391.9c-12.4,6.3-25.1,12.6-38.9,14.1c-3.6,0.4-7.3,0.4-10.9,1.2c-3.6,0.8-7.1,2.3-9.4,5.2c-0.7,0.9-1.2,2.1-0.6,3
					c0.5,0.6,1.3,0.8,2.1,0.9c10.6,1.1,21.4-1.8,30.9-6.6c9.6-4.8,18.1-11.3,26.6-17.8"/>
			</g>
			<g class="st10">
				<path d="M325.8,349.3c1,8.7-1.1,15.3-1.3,24.1c-0.2,8.7,2.2,19.2,7.2,26.3l7-18c0,0-2.3-6.1-3.8-9.1c-3.5-7.4-6.3-14.2-8.9-22.5
					"/>
			</g>
			<g class="st10">
				<path d="M168.3,399.4c5.3,2.2,11.5,0.8,16.1-2.7c7.6-5.8,12.3-14.7,14.7-23.9c2.4-9.2,2.7-18.8,2.8-28.4
					c0.1-9.5,0.1-19.1,2-28.5c0.2-0.9,0.2-2.1-0.7-2.3c-0.7-0.1-1.3,0.6-1.6,1.3c-3.6,9.3-5.3,24.9-6.6,36
					c-1.3,11.7-2.9,15.9-6.7,25.6C184.7,386.5,178.6,394.2,168.3,399.4"/>
			</g>
			<g>
				<path class="st5" d="M369.6,307.4c0,0,0.1,0.2,0.3,0.6c0.1,0.4,0.3,1,0.5,1.9c0.3,1.7,0.2,4.1-0.4,7c-0.3,1.5-0.6,3-1.1,4.7
					c-0.4,1.7-1,3.5-1.7,5.3c-1.4,3.7-3.6,7.5-6.6,10.9c-3,3.4-6.4,6.2-10,7.9c-3.6,1.7-7.1,2.4-10.1,2.4c-3,0.1-5.4-0.5-6.9-1
					c-0.8-0.3-1.4-0.5-1.8-0.7c-0.4-0.2-0.6-0.3-0.6-0.3c0,0,0.2,0.1,0.6,0.2c0.4,0.2,1,0.4,1.8,0.6c1.6,0.5,3.9,1,6.9,0.9
					c2.9-0.1,6.4-0.8,9.9-2.5c3.5-1.7,6.9-4.4,9.8-7.8c2.9-3.4,5.1-7.2,6.5-10.8c0.7-1.8,1.3-3.6,1.7-5.3c0.5-1.7,0.9-3.2,1.1-4.7
					c0.6-2.9,0.8-5.3,0.6-6.9C369.9,308.3,369.5,307.4,369.6,307.4z"/>
			</g>
			<g>
				<path class="st11" d="M356.7,266.2c0,0-0.2,0-0.5,0.1c-0.3,0.1-0.8,0.2-1.4,0.4c-1.2,0.4-2.9,1.2-4.6,2.9
					c-1.7,1.7-3.4,4.1-4.9,7.2c-1.5,3.1-2.7,6.8-4.9,10.6c-1.1,1.9-2.4,3.8-4.2,5.4c-1.8,1.6-4.1,2.7-6.7,3.1
					c-2.5,0.4-5.2,0.3-7.9,0c-2.7-0.3-5.4-0.8-8.3-0.9c-1.4-0.1-2.8,0-4.3,0.2c-1.4,0.3-2.8,0.6-4.2,1.3c-2.7,1.3-4.9,3.5-6.8,5.9
					c-1.9,2.4-3.7,5.1-5.7,7.6c-1,1.2-2.1,2.4-3.4,3.5c-1.3,1-2.7,2-4.2,2.7c-3,1.4-6.4,2-9.6,1.9c-3.2-0.1-6.4-0.9-9.2-2.3
					c-2.8-1.4-5.3-3.4-7.1-5.8c-1.8-2.5-3-5.2-4.2-7.8c-1.2-2.6-2.4-5.1-4-7.2c-0.8-1.1-1.8-2-2.8-2.8l-0.8-0.5l-0.8-0.5
					c-0.5-0.3-1.2-0.5-1.7-0.7c-2.4-0.8-4.8-1-7.2-1.1c-2.3-0.1-4.6-0.1-6.8-0.3c-2.2-0.2-4.2-0.6-6-1.5c-1.8-0.8-3.3-2-4.4-3.4
					c-2.2-2.7-2.9-5.8-2.9-8.2c0-2.4,0.5-4.3,1.1-5.4c0.2-0.6,0.5-1,0.7-1.3c0.2-0.3,0.3-0.4,0.3-0.4s-0.1,0.2-0.2,0.4
					c-0.2,0.3-0.4,0.7-0.7,1.3c-0.5,1.1-1.1,3-1,5.4c0.1,2.4,0.8,5.4,3,8c1.1,1.3,2.5,2.5,4.3,3.3c1.8,0.8,3.8,1.2,5.9,1.4
					c2.1,0.2,4.4,0.2,6.8,0.3c2.4,0.1,4.9,0.3,7.3,1.1c0.6,0.3,1.2,0.4,1.8,0.8l0.9,0.5l0.8,0.6c1.1,0.8,2.1,1.7,2.9,2.8
					c1.7,2.2,2.9,4.7,4.1,7.3c1.2,2.6,2.4,5.3,4.1,7.7c1.7,2.4,4.1,4.3,6.9,5.7c2.8,1.4,5.9,2.1,9,2.2c3.2,0.1,6.4-0.5,9.4-1.9
					c1.5-0.6,2.8-1.6,4.1-2.6c1.2-1,2.3-2.2,3.3-3.5c2-2.5,3.8-5.1,5.7-7.6c1.9-2.4,4.2-4.7,7-6c1.4-0.7,2.8-1,4.3-1.3
					c1.5-0.2,2.9-0.2,4.4-0.2c2.9,0.1,5.6,0.6,8.3,0.9c2.7,0.3,5.3,0.5,7.8,0.1c2.5-0.4,4.7-1.5,6.5-3c1.8-1.5,3.1-3.4,4.1-5.3
					c2.1-3.7,3.4-7.5,4.9-10.6c1.5-3.1,3.3-5.5,5.1-7.2c1.8-1.7,3.5-2.5,4.7-2.9c0.6-0.2,1.1-0.3,1.4-0.3
					C356.5,266.2,356.7,266.2,356.7,266.2z"/>
			</g>
			<g>
				<path class="st11" d="M327.8,355.1c0,0-0.1,0.1-0.3,0.2c-0.2,0.1-0.6,0.3-1,0.4c-0.9,0.3-2.5,0.5-4.2-0.3
					c-1.7-0.7-3.5-2.1-5.8-3.6c-2.2-1.5-4.5-3.4-7.3-5.1c-1.4-0.9-3-1.6-4.7-2c-1.7-0.4-3.6-0.6-5.5-0.5c-3.9,0.2-7.9,1.5-11.7,3.5
					c-3.9,1.9-7.6,4.7-11.6,7.3c-3.9,2.7-8.2,5.4-13.1,6.9c-4.9,1.6-10.1,1.4-14.7,0c-4.6-1.4-8.7-3.6-12.4-5.9
					c-3.7-2.3-7.2-4.7-10.5-6.6c-3.4-1.9-6.7-3.5-9.8-4.4c-3.2-0.9-6.2-1.2-8.8-1c-2.6,0.2-4.8,0.9-6.4,1.7
					c-3.3,1.7-4.6,3.4-4.6,3.3c0,0,0.1-0.1,0.3-0.3c0.2-0.2,0.4-0.5,0.8-0.8c0.7-0.6,1.9-1.6,3.5-2.4c1.7-0.8,3.9-1.6,6.5-1.8
					c2.6-0.2,5.7,0,8.9,0.9c3.2,0.9,6.5,2.4,9.9,4.4c3.4,1.9,6.8,4.3,10.6,6.6c3.7,2.3,7.8,4.5,12.3,5.8c4.5,1.4,9.6,1.6,14.4,0
					c4.8-1.5,9-4.2,12.9-6.8c3.9-2.7,7.7-5.4,11.6-7.4c3.9-2,8-3.3,11.9-3.5c2-0.1,3.9,0.1,5.6,0.6c1.8,0.5,3.4,1.2,4.8,2.1
					c2.8,1.7,5.1,3.7,7.3,5.2c2.2,1.4,4,2.9,5.7,3.6c1.7,0.8,3.2,0.7,4.1,0.4C327.3,355.4,327.7,355.1,327.8,355.1z"/>
			</g>
			<g>
				<path class="st11" d="M270.6,412.3c0,0-0.2-0.1-0.5-0.4c-0.3-0.3-0.7-0.6-1.2-1.1c-1.1-1-2.6-2.4-4.5-4
					c-3.8-3.3-9.2-7.9-16.2-11.4c-3.5-1.7-7-2.9-10.3-3.5c-3.3-0.6-6.3-0.8-8.8-0.6c-2.5,0.2-4.5,0.7-5.9,1.1
					c-1.4,0.4-2.1,0.7-2.1,0.7c0,0,0.2-0.1,0.5-0.3c0.3-0.1,0.8-0.4,1.5-0.6c1.3-0.5,3.4-1,5.9-1.3c2.6-0.3,5.6-0.2,9,0.5
					c3.3,0.6,6.9,1.8,10.4,3.5c7,3.5,12.4,8.2,16.2,11.6c1.9,1.7,3.4,3.1,4.4,4.1c0.5,0.5,0.9,0.9,1.2,1.2
					C270.5,412.1,270.6,412.3,270.6,412.3z"/>
			</g>
			<g>
				<path class="st11" d="M340.9,424.1c-0.1,0-0.4-1.1-1.9-2.8c-1.4-1.6-4.2-3.3-8-3.9c-1.9-0.3-4-0.3-6.2,0.1
					c-2.2,0.4-4.5,1.2-6.8,2.2c-2.3,1-4.7,2.3-7.2,3.6c-2.5,1.3-5.1,2.6-7.9,3.4c-1.4,0.5-2.9,0.8-4.3,1.1c-1.4,0.2-2.8,0.4-4.2,0.5
					c-0.7,0.1-1.4,0.1-2.1,0.1c-0.7,0-1.4,0-2,0c-1.3-0.1-2.7-0.2-3.9-0.4c-5.1-0.8-9.5-2.6-12.8-4.5c-3.4-1.9-5.8-4-7.3-5.6
					c-0.8-0.7-1.3-1.4-1.7-1.8c-0.4-0.4-0.6-0.7-0.5-0.7c0,0,0.2,0.2,0.6,0.6c0.4,0.4,0.9,1.1,1.7,1.8c1.5,1.5,4,3.5,7.3,5.4
					c3.4,1.9,7.7,3.6,12.7,4.3c1.3,0.2,2.6,0.3,3.9,0.4c0.7,0,1.3,0,2,0c0.7,0,1.4,0,2.1-0.1c1.4-0.1,2.8-0.3,4.2-0.5
					c1.4-0.3,2.8-0.6,4.2-1.1c2.8-0.9,5.4-2.2,7.9-3.4c2.5-1.3,4.9-2.5,7.2-3.5c2.4-1,4.7-1.8,7-2.2c2.3-0.4,4.4-0.3,6.4,0
					c3.9,0.6,6.7,2.5,8.1,4.1c0.2,0.2,0.3,0.4,0.5,0.6c0.1,0.2,0.3,0.4,0.4,0.6c0.2,0.4,0.4,0.7,0.5,0.9
					C340.8,423.8,340.9,424.1,340.9,424.1z"/>
			</g>
			<g>
				<path class="st11" d="M347.5,441.1c0,0-0.1,0-0.4,0c-0.3,0-0.6-0.1-1.1-0.1c-0.9-0.1-2.3-0.2-4.1-0.2c-1.8,0.1-4,0.3-6.5,0.8
					c-2.5,0.6-5.3,1.5-8.2,2.7c-3,1.2-6.1,2.8-9.4,4.7c-3.3,1.8-6.8,3.9-10.6,5.9c-3.8,1.9-7.9,3.8-12.4,5
					c-4.5,1.2-9.5,1.5-14.4,0.6c-4.9-0.8-9.5-2.4-13.7-4.3c-4.3-1.9-8.2-4-12-5.9c-7.5-4-14.6-7.1-20.9-8.5c-3.1-0.7-6-1.1-8.6-1.1
					c-2.6,0-4.7,0.2-6.5,0.6c-0.9,0.1-1.6,0.4-2.3,0.6c-0.7,0.2-1.2,0.4-1.7,0.6c-0.4,0.2-0.8,0.3-1,0.4c-0.2,0.1-0.3,0.1-0.4,0.1
					c0,0,0.1-0.1,0.3-0.2c0.2-0.1,0.6-0.2,1-0.4c0.4-0.2,1-0.4,1.7-0.6c0.7-0.2,1.4-0.5,2.3-0.6c1.8-0.4,4-0.7,6.6-0.7
					c2.6,0,5.5,0.4,8.7,1.1c6.3,1.4,13.5,4.5,21,8.5c3.8,2,7.8,4,12,5.9c4.2,1.8,8.8,3.5,13.6,4.2c4.8,0.8,9.7,0.5,14.1-0.6
					c4.5-1.1,8.6-3,12.4-4.9c3.8-2,7.3-4,10.6-5.8c3.3-1.8,6.5-3.4,9.5-4.6c3-1.2,5.8-2.1,8.3-2.6c2.5-0.5,4.7-0.7,6.5-0.7
					c1.8,0,3.2,0.2,4.2,0.3c0.4,0.1,0.8,0.1,1.1,0.2C347.4,441,347.5,441.1,347.5,441.1z"/>
			</g>
			<g>
				<path class="st11" d="M389.9,339.5c0,0-0.2,0.2-0.5,0.6c-0.3,0.4-0.8,0.9-1.4,1.8c-1.1,1.6-2.5,4.1-3.7,7.3
					c-1.3,3.3-2.4,7.3-4.2,11.6c-1,2.1-2.2,4.3-3.8,6.2c-1.6,2-3.8,3.6-6.2,4.8c-4.9,2.4-10.2,2.9-14.8,2.4c-4.7-0.5-8.7-1.8-12-3
					c-3.3-1.2-5.9-2.5-7.6-3.3c-0.8-0.4-1.5-0.7-2-1c-0.5-0.2-0.7-0.4-0.7-0.4c0,0,0.3,0.1,0.7,0.3c0.5,0.2,1.2,0.5,2.1,0.9
					c1.8,0.8,4.4,1.9,7.7,3.1c3.3,1.2,7.3,2.4,11.9,2.8c4.6,0.4,9.8-0.1,14.6-2.4c2.4-1.2,4.5-2.8,6-4.7c1.6-1.9,2.8-4,3.8-6.1
					c1.9-4.2,3-8.3,4.3-11.5c1.3-3.3,2.7-5.8,3.9-7.3c0.6-0.8,1.1-1.3,1.5-1.7C389.6,339.7,389.8,339.5,389.9,339.5z"/>
			</g>
			<g>
				<path class="st11" d="M400.8,355c-0.1,0-0.2-0.4-0.5-0.9c-0.3-0.5-0.9-1.1-1.7-1.5c-0.8-0.4-1.6-0.4-2.2-0.3
					c-0.6,0.1-0.9,0.3-1,0.2c0,0,0.3-0.3,0.9-0.5c0.6-0.2,1.6-0.2,2.5,0.2c0.9,0.4,1.6,1.2,1.8,1.8C400.9,354.5,400.9,355,400.8,355
					z"/>
			</g>
			<g>
				<path class="st11" d="M398.8,348.4c0,0,0.3,0.1,0.7,0.3c0.5,0.2,1.2,0.6,1.9,1.2c1.5,1.2,3.3,3.7,4,7.2c0.3,1.7,0.4,3.7,0.1,5.8
					c-0.2,2.1-0.7,4.2-1.3,6.5c-1.2,4.5-2.4,9.4-4.3,14.4c-1.9,5-4.3,9.6-7.2,13.2c-2.9,3.6-6.3,6.2-9.4,7.9
					c-1.6,0.8-3.1,1.4-4.4,1.8c-1.3,0.4-2.5,0.6-3.5,0.7c-0.5,0-0.9,0.1-1.3,0.1c-0.4,0-0.7,0-1,0c-0.5,0-0.8,0-0.8,0
					c0,0,0.3,0,0.8-0.1c0.3,0,0.6,0,0.9-0.1c0.4,0,0.8-0.1,1.3-0.2c1-0.1,2.1-0.4,3.4-0.8c1.3-0.4,2.8-1,4.3-1.8
					c3-1.7,6.4-4.3,9.2-7.8c2.9-3.6,5.3-8.1,7.1-13.1c1.9-5,3.1-9.9,4.3-14.4c0.6-2.2,1.1-4.4,1.3-6.4c0.2-2,0.2-3.9-0.1-5.6
					c-0.6-3.4-2.3-5.8-3.7-7.1C399.9,348.8,398.8,348.5,398.8,348.4z"/>
			</g>
			<g>
				<path class="st11" d="M393,327c0,0.2-2.1-0.5-4.5,0c-2.5,0.4-4.2,1.7-4.3,1.5c-0.1-0.1,1.5-1.6,4.2-2
					C391,326,393.1,326.9,393,327z"/>
			</g>
			<g>
				<path class="st11" d="M183.6,383.9c0,0-0.8,0.5-2.5,0.7c-1.6,0.2-4.1-0.1-6.8-1.5c-1.3-0.7-2.7-1.6-3.9-2.8
					c-1.3-1.2-2.4-2.7-3.5-4.3c-2.2-3.2-3.9-7.1-6.5-10.8c-2.6-3.6-5.8-6.5-9-8.5c-3.3-2.1-6.5-3.4-9.3-4.1c-2.8-0.8-5.2-1-6.8-1.1
					c-1.6-0.1-2.5-0.1-2.5-0.1c0,0,0.2,0,0.7-0.1c0.4,0,1.1-0.1,1.9,0c1.6,0,4,0.3,6.9,1c2.9,0.7,6.2,2,9.5,4.1
					c3.3,2.1,6.6,5,9.2,8.6c2.6,3.7,4.3,7.6,6.5,10.8c1,1.6,2.2,3.1,3.4,4.3c1.2,1.2,2.5,2.1,3.8,2.8c2.5,1.4,5,1.8,6.6,1.6
					C182.8,384.2,183.6,383.8,183.6,383.9z"/>
			</g>
			<g>
				<path class="st11" d="M197,331.2c0,0-0.2,0-0.6,0c-0.4,0-0.9-0.1-1.6-0.2c-0.7-0.1-1.5-0.2-2.5-0.4c-1-0.2-2.1-0.4-3.3-0.7
					c-1.2-0.3-2.5-0.6-3.9-1.1c-1.4-0.4-2.9-1-4.4-1.5c-3-1.2-6.3-2.7-9.6-4.6c-3.3-1.9-6.2-4-8.7-6.1c-1.2-1.1-2.4-2.1-3.5-3.1
					c-1.1-1-2-2-2.9-2.9c-0.9-0.9-1.6-1.8-2.2-2.5c-0.6-0.7-1.2-1.4-1.6-2c-0.4-0.5-0.7-0.9-0.9-1.3c-0.2-0.3-0.3-0.5-0.3-0.5
					c0,0,0.1,0.1,0.4,0.4c0.3,0.3,0.6,0.7,1,1.2c0.4,0.5,1,1.2,1.6,1.9c0.7,0.7,1.4,1.6,2.3,2.4c0.9,0.9,1.8,1.9,2.9,2.8
					c1,1,2.2,2,3.5,3c2.5,2,5.5,4.1,8.7,6c3.3,1.9,6.5,3.4,9.5,4.6c1.5,0.6,3,1.1,4.4,1.5c1.4,0.5,2.7,0.8,3.9,1.1
					c1.2,0.3,2.3,0.5,3.2,0.8c1,0.2,1.8,0.4,2.5,0.5c0.6,0.1,1.1,0.2,1.6,0.3C196.8,331.2,197,331.2,197,331.2z"/>
			</g>
			<g>
				<path class="st11" d="M198.1,398.8c-0.1,0,0.1-1.4-0.1-3.6c-0.1-1.1-0.3-2.4-0.6-3.8c-0.4-1.4-0.9-3-1.5-4.5
					c-0.7-1.5-1.5-2.9-2.3-4.1c-0.9-1.2-1.7-2.2-2.5-3c-1.6-1.6-2.8-2.2-2.7-2.3c0,0,0.3,0.1,0.9,0.4c0.3,0.2,0.6,0.4,0.9,0.6
					c0.4,0.3,0.8,0.6,1.2,1c0.9,0.7,1.7,1.8,2.6,3c0.9,1.2,1.7,2.6,2.4,4.2c0.7,1.6,1.2,3.1,1.5,4.6c0.3,1.5,0.5,2.8,0.5,3.9
					c0,0.6,0,1.1,0,1.5c0,0.4,0,0.8-0.1,1.1C198.2,398.5,198.2,398.8,198.1,398.8z"/>
			</g>
			<g>
				<path class="st5" d="M304.9,369.3c0,0-0.2,0-0.5,0c-0.4,0-0.9,0-1.5-0.1c-0.3,0-0.7,0-1.1-0.1c-0.4,0-0.8-0.1-1.2-0.2
					c-0.9-0.1-1.9-0.2-3-0.5c-0.6-0.1-1.1-0.3-1.7-0.4c-0.6-0.1-1.2-0.4-1.9-0.5c-1.3-0.3-2.6-0.9-4-1.4c-2.8-1.2-5.7-2.7-8.6-4.7
					c-2.8-2-5.3-4.3-7.3-6.5c-1-1.1-1.9-2.2-2.7-3.3c-0.4-0.5-0.8-1-1.1-1.6c-0.3-0.5-0.6-1-0.9-1.5c-0.6-0.9-1.1-1.9-1.5-2.7
					c-0.2-0.4-0.4-0.8-0.6-1.1c-0.1-0.4-0.3-0.7-0.4-1c-0.2-0.5-0.4-1-0.5-1.4c-0.1-0.3-0.2-0.5-0.2-0.5c0,0,0.1,0.1,0.3,0.4
					c0.2,0.4,0.4,0.8,0.6,1.3c0.1,0.3,0.3,0.6,0.4,1c0.2,0.3,0.4,0.7,0.6,1.1c0.4,0.8,0.9,1.7,1.5,2.6c0.3,0.5,0.6,1,1,1.5
					c0.3,0.5,0.8,1,1.1,1.5c0.8,1.1,1.7,2.1,2.7,3.2c2,2.2,4.5,4.4,7.3,6.4c2.8,2,5.7,3.5,8.4,4.7c1.4,0.5,2.7,1.1,4,1.5
					c0.6,0.2,1.2,0.4,1.8,0.6c0.6,0.1,1.2,0.3,1.7,0.4c1.1,0.3,2.1,0.4,3,0.6c0.4,0.1,0.9,0.2,1.2,0.2c0.4,0,0.7,0.1,1,0.1
					c0.6,0.1,1.1,0.1,1.4,0.2C304.7,369.2,304.9,369.3,304.9,369.3z"/>
			</g>
			<g>
				<path class="st5" d="M214.3,297.2c0,0,0,0.1-0.1,0.3c-0.1,0.2-0.1,0.5-0.2,0.8c-0.2,0.7-0.5,1.7-0.9,3c-0.2,0.6-0.4,1.4-0.6,2.1
					c-0.2,0.8-0.4,1.7-0.6,2.6c-0.2,0.9-0.4,1.9-0.7,3c-0.2,1.1-0.4,2.2-0.6,3.4c-0.2,1.2-0.4,2.4-0.6,3.7c-0.1,1.3-0.2,2.7-0.4,4.1
					c-0.1,0.7-0.1,1.4-0.2,2.1c0,0.7,0,1.5-0.1,2.2c0,1.5-0.1,3.1-0.1,4.6c0.1,6.4,0.5,13.3,1.5,20.6c1,7.3,2.5,14.1,4,20.3
					c0.8,3.1,1.6,6,2.4,8.7c0.4,1.4,0.8,2.7,1.2,3.9c0.4,1.2,0.8,2.4,1.2,3.6c0.7,2.3,1.5,4.3,2.1,6.1c0.6,1.8,1.2,3.3,1.7,4.6
					c0.5,1.2,0.8,2.2,1.1,2.9c0.1,0.3,0.2,0.6,0.3,0.8c0.1,0.2,0.1,0.3,0.1,0.3s-0.1-0.1-0.1-0.2c-0.1-0.2-0.2-0.4-0.3-0.7
					c-0.3-0.7-0.7-1.6-1.2-2.9c-0.5-1.2-1.1-2.8-1.8-4.6c-0.7-1.8-1.4-3.8-2.2-6.1c-0.4-1.1-0.8-2.3-1.2-3.6
					c-0.4-1.3-0.8-2.6-1.2-3.9c-0.9-2.7-1.6-5.6-2.5-8.7c-1.5-6.2-3-13-4.1-20.3c-1-7.3-1.5-14.3-1.5-20.7c0.1-1.6,0.1-3.1,0.2-4.7
					c0-0.8,0-1.5,0.1-2.2c0.1-0.7,0.1-1.4,0.2-2.2c0.1-1.4,0.3-2.8,0.4-4.1c0.2-1.3,0.4-2.5,0.6-3.7c0.2-1.2,0.3-2.3,0.6-3.4
					c0.3-1.1,0.5-2.1,0.7-3c0.2-0.9,0.4-1.8,0.6-2.6c0.3-0.8,0.5-1.5,0.7-2.1c0.4-1.2,0.7-2.2,1-2.9c0.1-0.3,0.2-0.6,0.3-0.8
					C214.3,297.3,214.3,297.2,214.3,297.2z"/>
			</g>
		</g>
		<g>
			<g>
				<path class="st5" d="M265.4,272.5c-0.1,0-0.1-2.6,1-5.5c1.1-2.9,2.7-4.9,2.8-4.9c0.1,0.1-1.3,2.2-2.3,5
					C265.8,270.1,265.6,272.5,265.4,272.5z"/>
			</g>
			<g>
				<path class="st5" d="M249.7,266.4c-0.1,0,0.7-2.3,2.6-4.4c1.9-2.2,4.1-3.2,4.1-3.1c0.1,0.1-1.9,1.4-3.7,3.5
					C250.9,264.4,249.9,266.5,249.7,266.4z"/>
			</g>
			<g>
				<path class="st5" d="M283.6,274c-0.2,0-0.2-2.3-0.4-5.2c-0.2-2.9-0.5-5.2-0.4-5.2c0.1,0,0.7,2.3,0.9,5.1
					C284,271.7,283.8,274,283.6,274z"/>
			</g>
			<g>
				<path class="st5" d="M304.6,271.7c-0.2,0,0.3-2.7-0.8-5.8c-1-3.1-3-4.9-2.9-5.1c0,0,0.6,0.4,1.3,1.2c0.7,0.8,1.5,2.1,2.1,3.7
					c0.5,1.6,0.7,3.1,0.6,4.2C304.9,271.1,304.7,271.7,304.6,271.7z"/>
			</g>
		</g>
	</g>
	<g class="st10">
		<path d="M312,257.1l-5.3,1.8c3.1,18,7,39.6,10.1,57.6c0.9,5.3,1.9,10.8,5,15.1c3.3,4.6,8.8,7.5,10.8,12.8
			C326.2,315.9,319.6,285.3,312,257.1z"/>
	</g>
	<g>
		<path class="st9" d="M215.5,200.3c0,0,0.2-4.7,0.1-8.8c0-1.7,1.4-3.2,3.1-3.2H253l5.7-11.8c1.1-1.7,3-2.8,5.1-2.8h15.7
			c1.9,0,3.8,0.9,4.9,2.5l6.1,8.4l11.2,1.9c2,0.3,3.5,2,3.6,4.1l2.1,47.6h-91.8V200.3z"/>
		<rect x="264.8" y="176.2" class="st0" width="12.6" height="5.9"/>
		<g>
			<circle class="st9" cx="269.4" cy="209.8" r="20.1"/>
			<circle class="st12" cx="269.4" cy="209.8" r="20.1"/>
			<circle class="st5" cx="269.4" cy="209.8" r="16"/>
			<g>
				<path class="st5" d="M291,209.8c0,0,0-0.1,0-0.3c0-0.3,0-0.6-0.1-1c0-0.2,0-0.5-0.1-0.8c0-0.3-0.1-0.6-0.1-0.9
					c-0.1-0.6-0.2-1.4-0.5-2.2c-0.4-1.7-1.2-3.6-2.4-5.7c-1.2-2.1-3-4.2-5.5-6.1c-2.4-1.8-5.5-3.4-9-4c-3.5-0.6-7.4-0.5-11.2,0.9
					c-1,0.3-1.9,0.8-2.8,1.2c-0.9,0.5-1.8,1-2.6,1.7c-0.9,0.6-1.6,1.3-2.4,2.1c-0.7,0.8-1.5,1.6-2.1,2.5c-1.3,1.8-2.4,3.7-3,5.9
					c-0.7,2.1-1.1,4.4-1.1,6.7c0,2.3,0.4,4.6,1.1,6.7c0.7,2.2,1.8,4.1,3,5.9c0.6,0.9,1.4,1.7,2.1,2.5c0.8,0.7,1.5,1.5,2.4,2.1
					c0.8,0.7,1.7,1.2,2.6,1.7c0.9,0.4,1.8,0.9,2.8,1.2c3.8,1.4,7.7,1.5,11.2,0.9c3.5-0.6,6.6-2.2,9-4c2.4-1.8,4.2-4,5.5-6.1
					c1.2-2.1,2-4,2.4-5.7c0.3-0.8,0.4-1.6,0.5-2.2c0.1-0.3,0.1-0.6,0.1-0.9c0-0.3,0-0.5,0.1-0.8c0-0.4,0.1-0.8,0.1-1
					C290.9,209.9,291,209.8,291,209.8c0,0,0,0.1,0,0.3c0,0.3,0,0.6,0,1c0,0.2,0,0.5,0,0.8c0,0.3-0.1,0.6-0.1,0.9
					c-0.1,0.7-0.2,1.4-0.4,2.2c-0.4,1.7-1.1,3.7-2.3,5.8c-1.2,2.1-3,4.3-5.5,6.2c-2.4,1.9-5.5,3.5-9.1,4.1
					c-3.6,0.6-7.6,0.5-11.4-0.9c-1-0.3-1.9-0.8-2.8-1.2c-0.9-0.5-1.8-1-2.7-1.7c-0.9-0.6-1.7-1.4-2.5-2.1c-0.7-0.8-1.5-1.6-2.1-2.5
					c-1.3-1.8-2.4-3.8-3.1-6c-0.7-2.2-1.1-4.5-1.1-6.9c0-2.4,0.4-4.7,1.1-6.9c0.7-2.2,1.8-4.2,3.1-6c0.6-0.9,1.4-1.7,2.1-2.5
					c0.8-0.7,1.6-1.5,2.5-2.1c0.8-0.7,1.8-1.2,2.7-1.7c0.9-0.5,1.9-0.9,2.8-1.2c3.8-1.4,7.9-1.5,11.4-0.9c3.6,0.7,6.7,2.2,9.1,4.1
					c2.5,1.9,4.2,4.1,5.5,6.2c1.2,2.1,2,4.1,2.3,5.8c0.2,0.8,0.3,1.6,0.4,2.2c0,0.3,0.1,0.6,0.1,0.9c0,0.3,0,0.5,0,0.8
					c0,0.4,0,0.8,0,1C291,209.7,291,209.8,291,209.8z"/>
			</g>
			<g>
				<path class="st0" d="M263.7,220.9c-0.1,0.3-2.1-0.2-4.2-2.4c-1.1-1.1-2.1-2.7-2.8-4.6c-0.7-1.9-1-4.3-0.6-6.7
					c0.4-2.4,1.5-4.5,2.9-6.1c1.3-1.6,2.9-2.7,4.2-3.3c2.8-1.3,4.8-1.1,4.8-0.8c0.1,0.4-1.7,0.8-3.9,2.4c-1.1,0.8-2.3,1.8-3.3,3.2
					c-1,1.4-1.8,3.1-2.2,5c-0.3,1.9-0.1,3.8,0.3,5.5c0.5,1.7,1.2,3.1,2,4.2C262.4,219.6,263.9,220.5,263.7,220.9z"/>
			</g>
		</g>
		<g>
			<path class="st5" d="M252.2,191c0,0-0.4,0.2-1.2,0.6c-0.4,0.2-0.9,0.4-1.5,0.6c-0.6,0.2-1.3,0.5-2,0.7c-1.5,0.5-3.4,0.9-5.5,1.3
				c-2.1,0.3-4.4,0.6-6.9,0.6c-2.4,0-4.8-0.2-6.9-0.5c-2.1-0.3-4-0.7-5.5-1.2c-0.8-0.2-1.5-0.4-2.1-0.6c-0.6-0.2-1.1-0.4-1.5-0.6
				c-0.8-0.3-1.3-0.5-1.3-0.6c0,0,0.5,0.1,1.3,0.4c0.4,0.1,0.9,0.3,1.5,0.5c0.6,0.2,1.3,0.4,2.1,0.6c1.5,0.4,3.4,0.8,5.5,1.1
				c2.1,0.3,4.4,0.4,6.8,0.4c2.4,0,4.7-0.2,6.8-0.5c2.1-0.3,3.9-0.7,5.4-1.2c0.8-0.2,1.4-0.4,2.1-0.6c0.6-0.2,1.1-0.4,1.5-0.5
				C251.7,191.1,252.1,190.9,252.2,191z"/>
		</g>
		<g>
			<path class="st5" d="M252.1,228c0,0,0.1,0.3,0.2,0.8c0.1,0.5,0.1,1.3-0.1,2.3c-0.2,1-0.7,2.2-1.7,3.3c-1,1.1-2.6,1.9-4.4,2.1
				c-1.8,0.2-3.8,0-5.9,0.1c-2.1,0.1-4.4,0.4-6.8,0.5c-2.4,0.2-5,0.2-7.6-0.5c-2.5-0.7-5.2-2-6.8-4.4c-0.8-1.2-1.3-2.6-1.5-3.9
				c-0.2-1.4-0.3-2.7-0.3-4c-0.1-2.6-0.1-5.1-0.2-7.5c-0.1-4.8-0.2-9.1-0.2-12.8c0-3.6-0.1-6.5-0.1-8.6c0-1,0-1.8,0-2.3
				c0-0.5,0-0.8,0-0.8c0,0,0,0.3,0.1,0.8c0,0.6,0.1,1.4,0.1,2.3c0.1,2.1,0.2,5,0.3,8.6c0.1,3.6,0.2,8,0.3,12.8
				c0.1,2.4,0.1,4.9,0.2,7.5c0.1,2.6,0.2,5.4,1.7,7.6c1.5,2.3,4,3.5,6.5,4.2c2.5,0.7,5,0.6,7.4,0.5c2.4-0.1,4.7-0.4,6.8-0.5
				c2.2-0.1,4.1,0.2,5.9-0.1c1.8-0.2,3.3-0.9,4.3-2c1-1,1.5-2.2,1.8-3.1c0.3-1,0.2-1.8,0.2-2.3C252.1,228.2,252,228,252.1,228z"/>
		</g>
		<g>
			<path class="st5" d="M234.2,230.1c-0.1,0-0.3-6.8-0.3-15.3c0-8.4,0.1-15.3,0.3-15.3s0.3,6.8,0.3,15.3
				C234.5,223.2,234.4,230.1,234.2,230.1z"/>
		</g>
		<g>
			<path class="st5" d="M227.5,230.1c-0.1,0-0.3-6.8-0.3-15.3c0-8.4,0.1-15.3,0.3-15.3s0.3,6.8,0.3,15.3
				C227.7,223.2,227.6,230.1,227.5,230.1z"/>
		</g>
		<g>
			<path class="st5" d="M239.7,229.5c-0.1,0-0.3-6.7-0.3-15.1c0-8.3,0.1-15.1,0.3-15.1c0.1,0,0.3,6.7,0.3,15.1
				C240,222.7,239.9,229.5,239.7,229.5z"/>
		</g>
		<g>
			<path class="st5" d="M304.9,194c0,0-0.1-0.3-0.3-0.8c-0.2-0.5-0.8-1.1-1.7-1.5c-0.9-0.4-2.1-0.5-3.4-0.6c-1.4,0-2.8-0.1-4.4-0.1
				c-3.1-0.1-5.9-0.2-7.9-0.3c-2-0.1-3.3-0.2-3.3-0.3c0-0.1,1.3-0.1,3.3-0.1c2,0,4.8,0.1,7.9,0.2c1.5,0.1,3,0.1,4.4,0.2
				c1.3,0,2.6,0.2,3.6,0.7c0.9,0.5,1.5,1.2,1.7,1.8C305,193.7,304.9,194,304.9,194z"/>
		</g>
	</g>
	<g>
		<g>
			<polygon class="st6" points="190,230.9 165.6,286.7 200,307.1 210.3,244.7 			"/>
			<g>
				<path class="st6" d="M189.9,205.5l17.2-25.9c2-3,5.7-4.1,9-2.8l18.3,7.4c0,0-0.2,5.7-5.2,4.9c-5-0.8-15.1-2.7-15.1-2.7l-4.6,5.5
					L189.9,205.5z"/>
				<path class="st6" d="M234.6,213.8l-7.5-19.5c-0.9-2.4-3.3-3.9-5.9-3.6l-23.1,2.5l-8.2,12.4c-0.6,0.8-0.8,1.8-0.8,2.8l1.3,32.9
					l14,17.4l6.1-14v0c4.2-1.9,6.4-6.6,5.2-11l-1.8-7.2l7.1-2.4c0,0-0.6,7.9,2.9,7.8c3.5-0.1,5.3-13.8,5.3-13.8
					S235.7,216.7,234.6,213.8z"/>
				<g>
					<path class="st7" d="M213.9,226.5c0,0-0.2-0.2-0.5-0.5c-0.3-0.4-0.8-1-0.9-1.9c-0.1-0.5,0-1,0.2-1.5c0.2-0.5,0.6-1,1.1-1.3
						c1-0.7,2.1-1.3,3.4-1.7l0.1,0l0.1,0.5c-2.6,0-5-0.1-6.8-0.1c-1.7-0.1-2.8-0.1-2.8-0.2c0-0.1,1.1-0.1,2.8-0.2c1.7,0,4.1,0,6.8,0
						l1.6,0l-1.5,0.5l-0.1,0c-1.2,0.4-2.4,0.9-3.3,1.6c-0.9,0.6-1.3,1.6-1.3,2.4c0.1,0.8,0.5,1.4,0.7,1.8
						C213.8,226.3,214,226.5,213.9,226.5z"/>
				</g>
				<g>
					<path class="st7" d="M221,224.1c0,0,0.4-0.3,1-0.8c0.3-0.3,0.6-0.7,0.9-1.2c0.2-0.5,0.4-1.2,0.4-1.9c0.1-1.5,0.1-3.3-0.3-5.2
						c-0.2-1-0.4-2-0.7-3c-0.3-1-0.8-2-1.7-2.6c-0.9-0.6-2-0.6-3.1-0.6c-1.1-0.1-2.1-0.1-3.1-0.1c-2-0.1-3.7-0.2-5.3-0.3
						c-1.4-0.1-2.6-0.2-3.6-0.2c-0.8-0.1-1.3-0.1-1.3-0.2c0,0,0.5-0.1,1.3,0c0.9,0,2.1,0,3.6,0.1c1.5,0.1,3.3,0.1,5.3,0.2
						c1,0,2,0.1,3.1,0.1c0.5,0,1.1,0,1.7,0.1c0.6,0.1,1.2,0.2,1.7,0.6c1,0.7,1.6,1.8,1.9,2.9c0.3,1.1,0.5,2.1,0.6,3.1
						c0.3,2,0.3,3.8,0.2,5.3c-0.1,0.8-0.3,1.4-0.6,2c-0.3,0.6-0.7,0.9-1,1.2c-0.3,0.3-0.6,0.4-0.8,0.5
						C221.1,224.1,221,224.1,221,224.1z"/>
				</g>
				<g>
					<path class="st7" d="M204.6,201.3c0,0,0.5-0.1,1.5,0c1.1,0,2.5,0,4.1,0.1c1.8,0,3.9,0.1,6.1,0.2c1.2,0,2.4,0.1,3.6,0.1
						c0.6,0,1.3,0,1.9,0.1c0.7,0.1,1.4,0.2,2,0.6c0.6,0.4,1.1,1,1.4,1.5c0.3,0.6,0.6,1.1,0.9,1.7c0.6,1.1,1.1,2.3,1.5,3.3
						c0.8,2.2,1.2,4.3,1.4,6c0.2,1.8,0.1,3.2,0,4.2c0,0.5-0.1,0.9-0.2,1.1c-0.1,0.3-0.1,0.4-0.1,0.4c-0.1,0,0.4-2.2,0-5.6
						c-0.2-1.7-0.7-3.7-1.5-5.9c-0.4-1.1-0.9-2.2-1.5-3.3c-0.6-1.1-1.1-2.4-2.2-3c-1.1-0.6-2.4-0.5-3.7-0.6
						c-1.3-0.1-2.5-0.1-3.6-0.1c-2.3-0.1-4.4-0.2-6.1-0.3c-1.7-0.1-3.1-0.2-4.1-0.2C205.2,201.3,204.6,201.3,204.6,201.3z"/>
				</g>
				<g>
					<path class="st7" d="M219.2,201.7c-0.1,0-0.1-1.2,0.1-2.6c0.2-1.4,0.5-2.5,0.6-2.5c0.1,0,0.1,1.2-0.1,2.6
						C219.6,200.6,219.3,201.7,219.2,201.7z"/>
				</g>
			</g>
			<g>
				<path class="st7" d="M222.4,190.6c0,0-0.3,0.1-0.9,0.2c-0.6,0.1-1.5,0.2-2.6,0.4c-2.2,0.3-5.2,0.6-8.5,1
					c-0.8,0.1-1.6,0.2-2.4,0.3c-0.8,0.1-1.5,0.3-2.2,0.5c-1.4,0.4-2.6,0.8-3.5,1.4c-1.9,1.1-2.4,2.5-2.4,2.4c0,0,0.1-0.3,0.4-0.9
					c0.3-0.5,0.9-1.2,1.9-1.9c0.9-0.6,2.2-1.1,3.6-1.6c0.7-0.2,1.4-0.4,2.2-0.6c0.8-0.1,1.6-0.2,2.4-0.3c3.3-0.4,6.3-0.6,8.5-0.8
					C221,190.7,222.4,190.6,222.4,190.6z"/>
			</g>
			<g>
				<path class="st7" d="M213.1,182.7c0.1,0,0.3,0.8,0.6,1.8c0.2,1,0.4,1.8,0.3,1.9c-0.1,0.1-0.6-0.7-0.8-1.7
					C212.9,183.6,212.9,182.7,213.1,182.7z"/>
			</g>
		</g>
		<g>
			<path class="st7" d="M220.2,178.5c0,0,0.4,0.1,1.1,0.3c0.7,0.2,1.7,0.6,3,1.1c2.6,1,6.1,2.5,10.3,4.3l0.1,0.1l0,0.2
				c0,1.3-0.5,2.6-1.5,3.6c-1,1.1-2.5,1.4-3.9,1.3c-1.6-0.1-3-0.4-4.4-0.6c-1.4-0.2-2.8-0.4-4.1-0.7c-1.3-0.2-2.6-0.5-3.7-0.8
				c-1.2-0.3-2.2-0.5-3.2-0.7l0.2-0.1c-1.5,1.8-2.7,3.2-3.6,4.3c-0.4,0.5-0.7,0.8-1,1.2c-0.2,0.3-0.4,0.4-0.4,0.4
				c0,0,0.1-0.2,0.3-0.5c0.3-0.3,0.6-0.7,0.9-1.2c0.9-1.1,2.1-2.6,3.5-4.4l0.1-0.1l0.1,0c1,0.2,2.1,0.4,3.3,0.7
				c1.2,0.3,2.4,0.5,3.7,0.7c1.3,0.2,2.7,0.4,4.1,0.6c1.4,0.2,2.9,0.5,4.4,0.6c1.3,0.1,2.7-0.3,3.5-1.2c0.9-0.9,1.4-2.1,1.3-3.3
				l0.1,0.2c-4.1-1.8-7.7-3.4-10.2-4.4c-1.2-0.5-2.2-0.9-3-1.2C220.6,178.7,220.2,178.6,220.2,178.5z"/>
		</g>
	</g>
	<g>
		<path class="st6" d="M370,309.4l-31-63.8l-32.5-50.8c-2.9-4.6-7.7-7.7-13-8.6c-8-1.4-19.4-2.9-23.8-1.5c-4.7,1.4-1.3,4.7-1.3,4.7
			s5.2,1.1,12.1,2.3c3,0.5,5.6,2.3,7.2,4.9l1.6,2.5c3.7,5.9,4.1,10.4,4.9,19.4c0,0.1,0,4.9,0,4.9c-0.8,4.5-8.1,7.4-15,7.6
			c-7.4,0.2-10.7,1.2-11.7,1.2l1.6,0c-4.8-0.3-9.6,1.4-13.2,4.6c-0.9,0.8-1.8,1.8-2.2,2.9c-0.4,1.2-0.4,2.6,0.4,3.5
			c1,1.2,2.7,1.4,4.2,1c1.5-0.4,2.8-1.2,4.2-1.8c5.2-2.2,11.2-0.8,16.5,1c5.4,1.8,10.9,3.9,16.5,3.3c3.4-0.4,7.3-1.8,10,0.3l3.2,3.1
			c1.7,2.5,2.8,5.4,3.3,8.6l0,0l21.1,88.6c7.6,1.2,15.4,0.3,24.2-6.6C365.7,331.9,370.6,320.1,370,309.4z"/>
		<g>
			<g>
				<g>
					<path class="st6" d="M299.5,205.3c0,0-1.3-13.2-2-14.4c-0.7-1.2-14.9-7.3-13.7-9.2c1.2-1.9,5-0.3,7.8,1
						c2.9,1.4,10.3,4.6,12.1,6.6c1.8,2,4.7,14,4.7,14L299.5,205.3z"/>
					<g>
						<path class="st7" d="M283.8,181.6c0,0,0.1,0.1,0.3,0.2c0.2,0.2,0.5,0.4,0.8,0.7c0.7,0.7,1.8,1.6,3,2.7l0,0
							c1.8,1,4.2,2.2,6.9,3.8c0.7,0.4,1.4,0.8,2.1,1.2c0.2,0.1,0.4,0.2,0.5,0.3c0.2,0.1,0.4,0.3,0.5,0.5c0.2,0.4,0.3,0.9,0.4,1.3
							c0.4,1.8,0.5,3.6,0.6,5.5l0-0.1c0.9,3.2,1.9,6.8,2.8,10.5c2.2,9.3,3.9,17.9,4,24.2c0.2,3.1,0.9,5.6,1.7,7.1
							c0.8,1.5,1.6,2.2,1.6,2.2c0,0-0.1,0-0.1-0.1c-0.1-0.1-0.2-0.2-0.4-0.4c-0.3-0.3-0.8-0.9-1.2-1.6c-0.9-1.5-1.7-4-1.9-7.2
							c-0.2-6.3-1.9-14.8-4.1-24.1c-0.9-3.7-1.8-7.3-2.7-10.5l0,0l0,0c-0.1-1.9-0.2-3.8-0.5-5.5c-0.1-0.4-0.2-0.8-0.4-1.2
							c-0.1-0.3-0.5-0.5-0.9-0.7c-0.7-0.4-1.4-0.8-2.1-1.2c-2.7-1.5-5-2.8-6.8-3.9l0,0l0,0c-1.2-1.2-2.2-2.1-2.9-2.8
							c-0.3-0.3-0.6-0.5-0.8-0.7C283.9,181.7,283.8,181.7,283.8,181.6z"/>
					</g>
					<g>
						<path class="st7" d="M293.3,203.7c0,0,0,0.4,0,1.2c0,0.8,0,1.9,0,3.3c0,1.4,0.2,3.1,0.5,4.9c0.4,1.8,1.1,3.7,2.3,5.4
							c1.3,1.7,2.8,3.1,4.1,4.4c1.3,1.3,2.6,2.4,3.5,3.5c0.5,0.5,0.8,1.1,1,1.7c0.1,0.6,0.1,1.1,0.1,1.5c0,0.8,0,1.2-0.1,1.2
							c0,0-0.1-0.4-0.2-1.2c0-0.4-0.1-0.9-0.2-1.4c-0.1-0.5-0.5-1-0.9-1.5c-0.9-1-2.2-2.1-3.6-3.4c-1.3-1.3-2.9-2.7-4.2-4.4
							c-1.3-1.8-2-3.8-2.3-5.7c-0.3-1.9-0.4-3.6-0.4-5c0-1.4,0.1-2.6,0.1-3.3C293.2,204.1,293.3,203.7,293.3,203.7z"/>
					</g>
					<g>
						<path class="st7" d="M270.7,237.6c-0.1,0,0.2-1-0.3-2.2c-0.4-1.1-1.3-1.7-1.2-1.8c0-0.1,0.3,0,0.7,0.3c0.4,0.3,0.8,0.7,1,1.4
							c0.2,0.6,0.2,1.3,0.1,1.7C270.9,237.4,270.7,237.6,270.7,237.6z"/>
					</g>
					<g>
						<path class="st7" d="M294.1,225.6c0,0-0.1,0.2-0.4,0.6c-0.3,0.4-0.8,0.8-1.4,1.4c-1.2,1.1-3.2,2.4-5.5,3.2
							c-2.4,0.8-4.7,1.1-6.3,1c-0.8,0-1.5-0.1-1.9-0.2c-0.5-0.1-0.7-0.2-0.7-0.2c0-0.1,1,0,2.6,0c1.6,0,3.8-0.3,6.1-1.1
							c2.3-0.8,4.2-2,5.5-3C293.3,226.3,294,225.6,294.1,225.6z"/>
					</g>
					<g>
						<path class="st7" d="M297.6,207.5c0,0-0.4-0.4-0.9-1.3c-0.6-0.9-1.4-2.1-2.4-3.6c-1-1.5-2.2-3.3-3.5-5.3c-0.7-1-1.3-2.1-2-3.2
							c-0.7-1.1-1.4-2.3-2.4-3.1c-1-0.8-2.4-0.9-3.7-0.9c-1.3,0-2.6,0.1-3.8,0c-2.4-0.1-4.6-0.5-6.3-0.9c-1.8-0.4-3.2-0.9-4.1-1.3
							c-0.5-0.2-0.8-0.3-1.1-0.4c-0.2-0.1-0.4-0.2-0.4-0.2c0,0,0.5,0.1,1.5,0.4c1,0.3,2.4,0.7,4.1,1.1c1.8,0.4,3.9,0.7,6.3,0.8
							c1.2,0.1,2.4,0,3.7,0c1.3,0,2.8,0,4,0.9c1.2,0.9,1.8,2.2,2.5,3.3c0.7,1.1,1.4,2.2,2,3.2c1.3,2,2.4,3.8,3.4,5.4
							c0.9,1.5,1.7,2.7,2.3,3.7C297.4,207,297.6,207.5,297.6,207.5z"/>
					</g>
				</g>
			</g>
			<g>
				<path class="st7" d="M319.6,289c0,0-0.1-0.2-0.2-0.6c-0.1-0.4-0.3-1-0.5-1.8c-0.4-1.6-1-3.8-1.7-6.8c-1.5-6-3.7-14.6-6.5-25.5
					l0,0c-0.5-1.4-1.1-2.7-2-3.9c-0.9-1.2-2.1-2.3-3.4-3.1l0,0l0,0c-0.5-0.4-1-0.6-1.6-0.8c-0.6-0.2-1.2-0.3-1.8-0.3
					c-1.3,0-2.6,0.2-3.9,0.4c-1.3,0.2-2.7,0.5-4.1,0.5c-1.4,0.1-2.8-0.1-4.2-0.3c-2.8-0.4-5.6-1.3-8.5-2.3c-2.8-1-5.8-2-8.9-2.5
					c-3.1-0.5-6.4-0.6-9.4,0.6c-1.5,0.5-2.9,1.5-4.6,2c-0.8,0.2-1.7,0.3-2.6,0.1c-0.9-0.2-1.7-0.7-2.2-1.5c-0.5-0.8-0.6-1.8-0.4-2.7
					c0.2-0.9,0.6-1.7,1.2-2.4c1.1-1.4,2.6-2.5,4.1-3.4c3.1-1.8,6.8-2.8,10.5-2.5l0,0.5c-0.5,0-1.1,0-1.6,0l0-0.5
					c1.4-0.2,3-0.5,4.5-0.7c1.5-0.2,3.1-0.3,4.6-0.4c1.6-0.1,3.1-0.1,4.7-0.3c1.6-0.2,3.1-0.5,4.6-0.9c1.5-0.5,3-1.1,4.3-1.9
					c1.3-0.8,2.6-1.9,3.3-3.3c0.2-0.3,0.3-0.7,0.4-1.1l0-1.2c0-0.8,0-1.6,0-2.4l0-1.2l-0.1-1.2l-0.2-2.5c-0.4-3.5-0.8-7-1.9-10.2
					c-1.1-3.2-3-6.2-4.9-8.9c-1-1.3-2.4-2.3-3.9-3c-1.5-0.7-3.2-0.9-4.8-1.2c-3.3-0.6-6.5-1.3-9.7-1.9l-0.1,0l0-0.1
					c-0.4-0.4-0.7-0.9-1-1.4c-0.2-0.5-0.4-1.1-0.2-1.7c0.2-0.6,0.6-1,1.1-1.3c0.2-0.1,0.5-0.3,0.7-0.4l0.8-0.3
					c2.1-0.6,4.2-0.5,6.3-0.5c4.1,0.1,8.1,0.6,12,1.2l-0.2,0.4c-1.3-0.8-2.6-1.5-3.6-2.6c-0.2-0.3-0.6-0.6-0.6-1.1
					c0-0.1,0.1-0.3,0.1-0.4l0.2-0.2c0.1-0.2,0.3-0.3,0.5-0.4c0.7-0.4,1.5-0.4,2.2-0.3c1.5,0.2,2.8,0.8,4.1,1.4
					c1.3,0.6,2.5,1.2,3.8,1.8c2.5,1.2,4.9,2.3,7.2,3.7c0.6,0.4,1.1,0.7,1.6,1.1c0.3,0.2,0.5,0.4,0.7,0.7c0.2,0.3,0.4,0.6,0.5,0.9
					c0.6,1.2,1,2.4,1.4,3.6l0-0.1c0.7,1,1.3,1.9,2,2.9c0.6,1,1.2,1.9,1.8,2.9c1.2,1.9,2.4,3.7,3.5,5.5c2.3,3.6,4.5,7,6.5,10.2
					c4.1,6.4,7.6,11.9,10.4,16.4c2.9,4.5,5.1,8,6.6,10.4c0.7,1.2,1.3,2.1,1.7,2.7c0.4,0.6,0.6,0.9,0.6,0.9s-0.2-0.3-0.6-0.9
					c-0.4-0.6-1-1.5-1.8-2.7c-1.5-2.4-3.8-5.9-6.7-10.4c-2.9-4.5-6.4-10-10.5-16.3c-2-3.2-4.2-6.6-6.5-10.2
					c-1.2-1.8-2.3-3.6-3.5-5.5c-0.6-0.9-1.2-1.9-1.8-2.9c-0.6-1-1.2-2-1.9-2.9l0,0l0,0c-0.4-1.2-0.8-2.4-1.4-3.5
					c-0.1-0.3-0.3-0.5-0.5-0.8c-0.2-0.2-0.4-0.4-0.7-0.6c-0.5-0.4-1-0.7-1.6-1.1c-2.2-1.3-4.7-2.5-7.1-3.7c-1.2-0.6-2.5-1.2-3.8-1.7
					c-1.3-0.6-2.6-1.1-4-1.3c-0.7-0.1-1.4-0.1-1.9,0.2c-0.1,0.1-0.3,0.2-0.4,0.3l-0.1,0.2c0,0,0,0.1,0,0.1c0,0.2,0.2,0.5,0.5,0.8
					c1,1,2.3,1.7,3.5,2.5l1,0.6l-1.2-0.2c-3.9-0.5-7.9-1-12-1.2c-2,0-4.1-0.1-6.1,0.5c-0.9,0.3-2,0.8-2.2,1.7
					c-0.2,0.9,0.4,1.9,1,2.6l-0.1-0.1c3.2,0.6,6.4,1.2,9.7,1.9c0.8,0.2,1.6,0.3,2.5,0.5c0.8,0.2,1.7,0.4,2.4,0.8
					c1.6,0.7,3,1.8,4.1,3.2c0.6,0.7,1,1.4,1.4,2.2c0.4,0.7,0.9,1.4,1.3,2.2c0.9,1.5,1.6,3.1,2.2,4.7c1.2,3.3,1.6,6.8,1.9,10.3
					l0.2,2.5l0.1,1.2l0,1.3c0,0.8,0,1.7,0,2.5l0,1.2c-0.1,0.4-0.2,0.8-0.4,1.2c-0.7,1.6-2.1,2.7-3.5,3.5c-1.4,0.9-2.9,1.5-4.5,1.9
					c-1.5,0.5-3.1,0.8-4.7,0.9c-1.6,0.2-3.2,0.2-4.7,0.3c-1.6,0.1-3.1,0.2-4.6,0.4c-1.5,0.2-3,0.5-4.5,0.7l0-0.5c0.6,0,1.1,0,1.6,0
					l0,0.5c-3.6-0.2-7.2,0.7-10.2,2.4c-1.5,0.9-2.9,2-4,3.3c-0.5,0.7-0.9,1.4-1.1,2.2c-0.2,0.8-0.1,1.7,0.3,2.3
					c0.4,0.7,1.1,1.1,1.9,1.3c0.8,0.2,1.6,0.1,2.4-0.1c1.6-0.4,3-1.4,4.6-2c3.2-1.2,6.6-1.1,9.7-0.6c3.1,0.5,6.1,1.6,8.9,2.5
					c2.8,1,5.6,1.9,8.4,2.3c1.4,0.2,2.8,0.3,4.1,0.3c1.4,0,2.7-0.3,4-0.5c1.3-0.2,2.6-0.4,3.9-0.4c0.7,0,1.3,0.1,1.9,0.3
					c0.6,0.2,1.2,0.5,1.7,0.9l0,0c1.4,0.8,2.6,2,3.5,3.2c0.9,1.3,1.6,2.7,2,4l0,0l0,0c2.7,10.9,4.8,19.6,6.3,25.5
					c0.7,3,1.3,5.3,1.7,6.8c0.2,0.8,0.3,1.4,0.4,1.8C319.6,288.8,319.6,289,319.6,289z"/>
			</g>
		</g>
	</g>
</g>
<g id="Plant">
	<g>
		<g>
			<g>
				<g>
					<path class="st9" d="M431.2,404.8c-2.7,3.6-7.7,2.3-10,0c-2.3-2.3-3.2-5.6-4-8.8c-1.9-7.2-3.7-14.7-2-21.9
						c0.5-2.2,1.4-4.3,2.9-5.9c1.6-1.6,3.9-2.5,6.1-1.8c2.5,0.7,4,3.3,5.1,5.7c3.2,7,4.7,14.8,4.6,22.5
						C433.8,398.1,433.3,401.9,431.2,404.8"/>
				</g>
			</g>
		</g>
		<g class="st13">
			<g>
				<g>
					<path d="M431.2,404.8c-2.7,3.6-7.7,2.3-10,0c-2.3-2.3-3.2-5.6-4-8.8c-1.9-7.2-3.7-14.7-2-21.9c0.5-2.2,1.4-4.3,2.9-5.9
						c1.6-1.6,3.9-2.5,6.1-1.8c2.5,0.7,4,3.3,5.1,5.7c3.2,7,4.7,14.8,4.6,22.5C433.8,398.1,433.3,401.9,431.2,404.8"/>
				</g>
			</g>
		</g>
		<g>
			<g>
				<g>
					<path class="st9" d="M421,423.3c-4.2-2.3-9.2-2.7-13.9-2.1c-2.5,0.4-5.2,1-7,2.9c-1.8,1.9-2.2,5.2-0.3,6.9
						c1.1,1,2.8,1.2,4.3,1.2c3.7,0.1,7.8-0.5,10.7,1.8c1.6,1.3,2.7,3.4,4.7,4.1c1.9,0.7,4.2-0.4,5.3-2.2c1.1-1.7,1.2-4,0.7-6
						C425.6,429.9,425.2,425.6,421,423.3z"/>
				</g>
			</g>
		</g>
		<g>
			<g>
				<g>
					<path class="st9" d="M438.2,410.3c-2.7-3.4-3.1-8.3-1.8-12.4c1.4-4.1,4.3-7.6,7.6-10.4c3.9-3.3,8.5-5.8,13.3-7.4
						c1.9-0.6,3.9-1.1,5.9-0.8c2,0.2,4,1.3,4.9,3.1c1.3,2.7-0.1,5.8-1.6,8.4c-2.6,4.5-5.6,8.9-9,12.9c-2.7,3.3-5.7,6.5-9.7,7.9
						c-4,1.4-8.1,1.1-10.1-1.7"/>
				</g>
			</g>
		</g>
		<g>
			<g>
				<g>
					<g>
						<path class="st5" d="M429.9,460.6c0,0-0.1-0.6-0.2-1.7c-0.1-1.2-0.2-2.8-0.3-4.6c-0.2-1.9-0.4-4.2-0.9-6.8
							c-0.5-2.5-1.2-5.2-2.2-8c-1-2.8-2.3-5.3-3.9-7.3c-1.5-2-3.3-3.5-5-4.4c-1.7-0.9-3.2-1.3-4.3-1.5c-1.1-0.1-1.7-0.2-1.7-0.3
							c0,0,0.6,0,1.7,0c1.1,0.1,2.7,0.4,4.5,1.3c1.8,0.9,3.7,2.4,5.3,4.4c1.6,2.1,3,4.6,4,7.4c1,2.8,1.8,5.6,2.2,8.1
							c0.4,2.6,0.6,4.9,0.7,6.8c0.1,2,0.1,3.5,0.1,4.6C430,460,429.9,460.6,429.9,460.6z"/>
					</g>
				</g>
			</g>
		</g>
		<g>
			<g>
				<g>
					<g>
						<path class="st5" d="M429.7,457.1c0,0,0-0.3,0-0.8c0-0.6,0-1.3,0.1-2.2c0.1-1.9,0.1-4.7,0.1-8.2c0-6.9-0.3-16.5-1.2-27
							c-0.9-10.5-2.2-20-3.4-26.8c-0.3-1.7-0.6-3.2-0.9-4.6c-0.3-1.3-0.5-2.5-0.7-3.5c-0.2-0.9-0.3-1.6-0.5-2.2
							c-0.1-0.5-0.1-0.8-0.1-0.8c0,0,0.1,0.2,0.3,0.7c0.2,0.6,0.4,1.3,0.6,2.2c0.3,0.9,0.5,2.1,0.8,3.4c0.3,1.3,0.6,2.9,1,4.6
							c1.3,6.8,2.7,16.3,3.6,26.9c0.9,10.5,1.1,20.1,1,27.1c-0.1,3.5-0.2,6.3-0.3,8.2c-0.1,0.9-0.1,1.6-0.2,2.2
							C429.7,456.8,429.7,457.1,429.7,457.1z"/>
					</g>
				</g>
			</g>
		</g>
		<g>
			<g>
				<g>
					<g>
						<path class="st5" d="M430.1,438.6c0,0,0-0.8,0.1-2.3c0.1-1.5,0.4-3.7,0.9-6.3c0.5-2.6,1.2-5.8,2.3-9.1c1-3.4,2.4-7.1,4.1-10.8
							c3.4-7.5,7.9-13.6,11.8-17.3c0.9-1,1.9-1.7,2.7-2.4c0.4-0.3,0.8-0.7,1.2-0.9c0.4-0.2,0.7-0.5,1-0.7c1.3-0.8,2-1.2,2-1.2
							c0.1,0.2-2.8,1.8-6.6,5.6c-3.7,3.8-8.1,9.8-11.5,17.2c-1.7,3.7-3.1,7.3-4.2,10.7c-1.1,3.4-1.8,6.4-2.4,9
							c-0.6,2.6-0.9,4.7-1.1,6.2C430.3,437.8,430.2,438.6,430.1,438.6z"/>
					</g>
				</g>
			</g>
		</g>
	</g>
	<g>
		<g>
			<g>
				<path class="st9" d="M102.1,428.8c1.1-4.5-1.8-9-5.2-12.3c-3.3-3.3-7.3-6.2-9.1-10.5c-2.8-7,0.9-16.1-3.9-22
					c-2.8-3.4-7.9-4.6-10.4-8.2c-1.3-1.9-1.8-4.3-2.3-6.6c-2.7-11.6-8.6-22.4-16.8-31c-0.5,10.3,1.8,20.8,6.7,30
					c2,3.7,4.4,7.3,5,11.4c1.1,6.7-2.6,13.6-0.9,20.1c1.9,7.5,10.4,12.5,10.8,20.2c0.4,6.5-5.3,12.3-4.8,18.8
					c0.2,2.8,1.5,5.3,2.9,7.7c5.1,8.4,12.5,14.1,23.8,13.8l13.8,0.4L102.1,428.8z"/>
			</g>
		</g>
		<g class="st10">
			<g>
				<g>
					<path d="M102.1,428.8c1.1-4.5-1.8-9-5.2-12.3c-3.3-3.3-7.3-6.2-9.1-10.5c-2.8-7,0.9-16.1-3.9-22c-2.8-3.4-7.9-4.6-10.4-8.2
						c-1.3-1.9-1.8-4.3-2.3-6.6c-2.7-11.6-8.6-22.4-16.8-31c-0.5,10.3,1.8,20.8,6.7,30c2,3.7,4.4,7.3,5,11.4
						c1.1,6.7-2.6,13.6-0.9,20.1c1.9,7.5,10.4,12.5,10.8,20.2c0.4,6.5-5.3,12.3-4.8,18.8c0.2,2.8,1.5,5.3,2.9,7.7
						c5.1,8.4,12.5,14.1,23.8,13.8l13.8,0.4L102.1,428.8z"/>
				</g>
			</g>
		</g>
		<g>
			<g>
				<g>
					<g>
						<path class="st9" d="M116.7,460.7c9-5.4,11.4-21.6,7.6-31.4c-3.8-9.7-10.4-18.6-11.5-29c-0.8-8,1.7-16.2-0.2-24
							c-2.6-10.5-12.9-18.7-12.9-29.5c0-6.1,3.5-11.8,3.2-17.9c-0.4-7.5-6.1-13.3-9.7-19.9c-5.5-10-5.9-21.9-7.8-33.2
							c-1.9-11.3-6.3-23.3-16.3-28.8c-1.4,9.6-3.9,16.2-3,29.1c0.3,4.7,5.8,13.5,6.6,23.7c0.5,6.1,0.8,12.2,1.2,18.3
							c0.4,5.9,0.8,12,3,17.5c1.7,4.3,4.3,8.1,5.5,12.5c2.3,8.3-0.6,17.2,1.3,25.6c1.6,7.1,6.6,13.2,7.6,20.4
							c1.5,10.1-5,20.7-1.6,30.3c1.7,4.8,5.7,8.6,6.8,13.5c0.9,3.8,0,7.9,0.8,11.7C98.5,456,110.4,461.2,116.7,460.7"/>
					</g>
				</g>
				<g>
					<g>
						<g>
							<path class="st5" d="M71.7,256.5c0,0,0.1,0.2,0.1,0.5c0.1,0.4,0.2,0.9,0.3,1.6c0.3,1.4,0.6,3.4,1.1,6c0.6,2.6,2,5.5,3.1,9.1
								c1.2,3.6,2.4,7.7,3.5,12.3c1.1,4.6,2,9.7,3,15.2c1,5.5,2,11.3,4.7,17c1.3,2.8,2.7,5.7,3.8,8.8c1.1,3.1,1.7,6.5,2,9.9
								c0.5,6.8,1.5,13.8,2.8,20.9c2.8,14.2,5.5,27.7,7.9,39.9c2.5,12.3,4.8,23.3,6.7,32.6c1.9,9.2,3.4,16.7,4.4,22
								c0.5,2.6,0.9,4.6,1.2,6c0.1,0.6,0.2,1.2,0.3,1.6c0.1,0.4,0.1,0.5,0.1,0.5c0,0-0.1-0.2-0.2-0.5c-0.1-0.4-0.2-0.9-0.4-1.5
								c-0.3-1.4-0.8-3.4-1.3-6c-1.1-5.2-2.7-12.7-4.7-21.9c-2-9.3-4.3-20.3-6.9-32.5c-2.5-12.3-5.2-25.8-8-40
								c-1.3-7.1-2.3-14.1-2.8-20.9c-0.3-3.4-0.8-6.7-2-9.7c-1.1-3.1-2.5-5.9-3.8-8.8c-2.8-5.7-3.7-11.7-4.7-17.2
								c-0.9-5.5-1.8-10.6-2.9-15.2c-1-4.6-2.2-8.7-3.4-12.3c-1.1-3.6-2.5-6.5-3-9.2c-0.5-2.6-0.7-4.7-0.9-6
								c-0.1-0.7-0.2-1.2-0.2-1.6C71.7,256.7,71.6,256.5,71.7,256.5z"/>
						</g>
					</g>
				</g>
			</g>
		</g>
	</g>
</g>
</svg>
